<svg xmlns="http://www.w3.org/2000/svg" width="101" height="90.461" viewBox="0 0 101 90.461"><defs><style>.a{fill:#f2f2f2;}.b{fill:#fff;}.c{fill:#6c63ff;}.d{fill:#2f2e41;}.e{fill:#3f3d56;}.f{fill:#ccc;}</style></defs><g transform="translate(0)"><path class="a" d="M769.186,523.547c-.919,5.653-5.058,10.03-9.465,13.855q-.923.8-1.85,1.571l-.013.01c-.03.025-.06.049-.087.074l-.382.316.079.025.247.076-.254-.069-.077-.02c-2.922-.789-5.9-1.655-8.292-3.5-2.478-1.92-4.185-5.194-3.33-8.211a5.531,5.531,0,0,1,.466-1.137c.081-.151.169-.3.263-.441a5.92,5.92,0,0,1,10.311.574c-.042-3.324-3.078-5.747-5.925-7.463s-6.074-3.566-6.969-6.769a6.405,6.405,0,0,1,.9-5.168c.03-.047.061-.094.093-.141a8.64,8.64,0,0,1,5.159-3.62c3.945-.895,8.078.753,11.314,3.182C766.583,510.595,770.231,517.119,769.186,523.547Z" transform="translate(-669.081 -449.09)"/><path class="b" d="M766.29,536.348a14.686,14.686,0,0,1,2.21,3.644,12.753,12.753,0,0,1,.887,3.687,16.341,16.341,0,0,1-1.238,7.639,23.521,23.521,0,0,1-2.957,5.13q-.923.8-1.85,1.571l-.013.01c-.03.025-.06.049-.087.074l-.382.316.079.025.247.076-.254-.069-.077-.02A12.886,12.886,0,0,0,751.7,545.578c.081-.151.169-.3.263-.441a13.593,13.593,0,0,1,2.329.575,13.32,13.32,0,0,1,6.672,5.047A13.619,13.619,0,0,1,763.328,558c.1-.118.2-.237.3-.356a23.879,23.879,0,0,0,4.448-7.489,15.2,15.2,0,0,0,.723-7.331,13.74,13.74,0,0,0-3.62-7.043,31.823,31.823,0,0,0-6.73-5.453,36.156,36.156,0,0,0-8-3.7.26.26,0,0,1-.17-.316.221.221,0,0,1,.093-.14.192.192,0,0,1,.167-.013c.347.112.691.226,1.034.347a36.566,36.566,0,0,1,8.1,4.047A29.428,29.428,0,0,1,766.29,536.348Z" transform="translate(-674.551 -468.135)"/><path class="c" d="M543.5,480.2a1.107,1.107,0,0,1-1.1-1.035l-.164-2.509a1.107,1.107,0,0,1,1.033-1.177l19.655-1.287a2.364,2.364,0,1,1,.309,4.719L543.571,480.2Z" transform="translate(-501.424 -424.899)"/><path class="d" d="M566.7,479.391a1.109,1.109,0,0,1-1.106-1.066l-.14-3.747a1.107,1.107,0,0,1,1.065-1.148l16.163-.6a1.107,1.107,0,0,1,1.148,1.065l.14,3.747a1.107,1.107,0,0,1-1.065,1.148l-16.163.6Z" transform="translate(-520.755 -423.764)"/><path class="d" d="M667.783,602.878h-2.514a1.108,1.108,0,0,1-1.107-1.107V580.817a1.108,1.108,0,0,1,1.107-1.107h2.514a1.109,1.109,0,0,1,1.107,1.107v20.954A1.108,1.108,0,0,1,667.783,602.878Z" transform="translate(-602.894 -512.71)"/><path class="d" d="M605.945,546.264l-2.15-1.3a1.109,1.109,0,0,1-.373-1.521l10.862-17.919a1.108,1.108,0,0,1,1.521-.373l2.15,1.3a1.108,1.108,0,0,1,.373,1.521l-10.861,17.919A1.108,1.108,0,0,1,605.945,546.264Z" transform="translate(-552.215 -467.173)"/><circle class="c" cx="8.687" cy="8.687" r="8.687" transform="translate(52.384 27.757)"/><path class="d" d="M629.207,387.25a2.059,2.059,0,0,1-.752-.442,1.385,1.385,0,0,1-.405-1.1.932.932,0,0,1,.414-.717,1.205,1.205,0,0,1,1.149-.013l-.016-3.391.341,0,.019,3.987-.262-.165a1.032,1.032,0,0,0-1.046-.129.6.6,0,0,0-.259.463,1.047,1.047,0,0,0,.3.818,2.816,2.816,0,0,0,1.551.572l-.054.336A5.615,5.615,0,0,1,629.207,387.25Z" transform="translate(-572.839 -347.839)"/><rect class="d" width="0.341" height="1.835" transform="translate(53.203 33.917) rotate(-82.477)"/><rect class="d" width="0.341" height="1.835" transform="translate(58.944 34.675) rotate(-82.477)"/><path class="d" d="M626.394,488.892H611.745a1.45,1.45,0,0,1-1.448-1.448l3.067-23.518a1.446,1.446,0,0,1,1.447-1.437h5.2a7.841,7.841,0,0,1,7.832,7.832v17.122a1.45,1.45,0,0,1-1.448,1.448Z" transform="translate(-558.069 -415.163)"/><path class="c" d="M661.281,500.614a1.109,1.109,0,0,1-1.016.647l-2.514-.022a1.107,1.107,0,0,1-1.1-1.117l.171-19.7a2.364,2.364,0,0,1,4.728.041l-.171,19.7A1.1,1.1,0,0,1,661.281,500.614Z" transform="translate(-596.645 -428.139)"/><path class="d" d="M659.073,492.853a1.109,1.109,0,0,1-1.017.647l-4.294-.037a1.109,1.109,0,0,1-1.1-1.117l.14-16.173a1.107,1.107,0,0,1,1.117-1.1l4.294.037a1.107,1.107,0,0,1,1.1,1.117l-.14,16.173A1.1,1.1,0,0,1,659.073,492.853Z" transform="translate(-593.326 -425.636)"/><path class="d" d="M628.454,327.464c-1.161-.961-2.714-.052-4.027-.181a3.106,3.106,0,0,1-2.543-2.419,3.844,3.844,0,0,1,1.425-3.688,5.536,5.536,0,0,1,4.165-1.128,10.467,10.467,0,0,1,4.638,1.847,20.758,20.758,0,0,1,3.71,3.025,7.986,7.986,0,0,1,2.147,3.787,5.251,5.251,0,0,1-.651,3.923,4.123,4.123,0,0,1-1.588,1.36c-.664.342-1.375.591-2.018.976a2.885,2.885,0,0,0-1.573,2.976,1.667,1.667,0,0,0,.393.706c.224.24.615-.09.39-.331a1.407,1.407,0,0,1-.194-1.513,2.772,2.772,0,0,1,1.206-1.378c.673-.4,1.419-.656,2.109-1.023a4.6,4.6,0,0,0,1.661-1.431,5.693,5.693,0,0,0,.817-4.081,8.052,8.052,0,0,0-2.03-4,20.117,20.117,0,0,0-3.75-3.193,11.875,11.875,0,0,0-4.785-2.107,6.361,6.361,0,0,0-4.455.8,4.7,4.7,0,0,0-2.2,3.611,3.788,3.788,0,0,0,1.832,3.363,3.253,3.253,0,0,0,1.952.413,14.85,14.85,0,0,1,2.179-.248,1.523,1.523,0,0,1,.9.346c.254.21.543-.212.292-.42Z" transform="translate(-567.22 -296.171)"/><path class="d" d="M603.018,625.366c0-.019.007-.038.011-.058a1.1,1.1,0,0,1,.482-.7l2.113-1.363a1.109,1.109,0,0,1,1.531.33l6.517,10.1a1.107,1.107,0,0,1-.33,1.531l-2.113,1.363a1.109,1.109,0,0,1-1.531-.33l-6.517-10.1A1.1,1.1,0,0,1,603.018,625.366Z" transform="translate(-552 -548.795)"/><path class="e" d="M342.207,233.462a2.139,2.139,0,0,0-1.956-1.308H301.217a2.117,2.117,0,0,0-2.116,2.116v49.382a2.117,2.117,0,0,0,2.116,2.116h39.036a2.119,2.119,0,0,0,2.116-2.116V234.27a2.079,2.079,0,0,0-.16-.808Zm-.31,50.19a1.648,1.648,0,0,1-1.646,1.646H301.217a1.646,1.646,0,0,1-1.646-1.646V234.27a1.648,1.648,0,0,1,1.646-1.646h39.036a1.654,1.654,0,0,1,1.528,1.035,1.822,1.822,0,0,1,.062.186,1.631,1.631,0,0,1,.056.425Z" transform="translate(-299.101 -223.485)"/><path class="e" d="M444.444,292.295H432.686a.941.941,0,1,1,0-1.881h11.758a.941.941,0,1,1,0,1.881Z" transform="translate(-409.484 -271.967)"/><path class="e" d="M444.444,321.719H432.686a.941.941,0,1,1,0-1.881h11.758a.941.941,0,1,1,0,1.881Z" transform="translate(-409.484 -296.452)"/><path class="c" d="M353.551,287.029h-8.593a1.059,1.059,0,0,1-1.058-1.058v-10.14a1.059,1.059,0,0,1,1.058-1.058h8.592a1.059,1.059,0,0,1,1.058,1.058v10.14A1.059,1.059,0,0,1,353.551,287.029Z" transform="translate(-336.382 -258.951)"/><path class="f" d="M370.5,381.968H343.928a.941.941,0,0,1,0-1.881H370.5a.941.941,0,0,1,0,1.881Z" transform="translate(-335.622 -346.59)"/><path class="f" d="M370.5,411.392H343.928a.941.941,0,0,1,0-1.881H370.5a.941.941,0,0,1,0,1.881Z" transform="translate(-335.622 -371.075)"/><path class="f" d="M370.5,440.816H343.928a.941.941,0,0,1,0-1.881H370.5a.941.941,0,1,1,0,1.881Z" transform="translate(-335.622 -395.561)"/><path class="f" d="M370.5,470.24H343.928a.941.941,0,0,1,0-1.881H370.5a.941.941,0,1,1,0,1.881Z" transform="translate(-335.622 -420.047)"/><path class="f" d="M370.5,499.664H343.928a.941.941,0,0,1,0-1.881H370.5a.941.941,0,0,1,0,1.881Z" transform="translate(-335.622 -444.533)"/><circle class="c" cx="9.078" cy="9.078" r="9.078" transform="translate(34.32 0)"/><path class="b" d="M537.045,220.99a.942.942,0,0,1-.567-.188l-.01-.008-2.133-1.632a.948.948,0,0,1,1.154-1.5l1.382,1.06,3.265-4.26a.948.948,0,0,1,1.329-.176h0l-.02.028.021-.028a.949.949,0,0,1,.175,1.329l-3.841,5.009a.948.948,0,0,1-.754.37Z" transform="translate(-494.547 -208.449)"/><path class="e" d="M592.828,717.836H531.067a.168.168,0,1,1,0-.336h61.762a.168.168,0,1,1,0,.336Z" transform="translate(-491.996 -627.375)"/></g></svg>