<svg xmlns="http://www.w3.org/2000/svg" width="148.038" height="96.793" viewBox="0 0 148.038 96.793"><defs><style>.a{opacity:0.5;}.b{fill:#ccc;}.c{fill:#456efe;}.d{fill:#3f3d56;}.e{fill:#fff;}.f{fill:#feb8b8;}.g{fill:#2f2e41;}.h{fill:#e6e6e6;}.i{fill:#f2f2f2;}</style></defs><g class="a" transform="translate(-171.808 -222.403)"><g transform="translate(171.808 222.403)"><rect class="b" width="16.36" height="0.312" transform="translate(71.052 6.388)"/><rect class="b" width="51.886" height="0.312" transform="translate(6.388 6.388)"/><circle class="c" cx="6.388" cy="6.388" r="6.388" transform="translate(0 0.156)"/><circle class="d" cx="6.388" cy="6.388" r="6.388" transform="translate(29.137 0.156)"/><path class="b" d="M841.686,196.717a6.544,6.544,0,1,1,6.544-6.544A6.544,6.544,0,0,1,841.686,196.717Zm0-12.777a6.233,6.233,0,1,0,6.233,6.233,6.233,6.233,0,0,0-6.233-6.233Z" transform="translate(-777.024 -183.628)"/><path class="b" d="M1028.686,196.717a6.544,6.544,0,1,1,6.544-6.544A6.544,6.544,0,0,1,1028.686,196.717Zm0-12.777a6.233,6.233,0,1,0,6.232,6.233A6.233,6.233,0,0,0,1028.686,183.94Z" transform="translate(-934.887 -183.628)"/><path class="e" d="M296.153,218.794a.517.517,0,0,1-.311-.1l-.006,0-1.173-.9a.521.521,0,1,1,.634-.827l.759.582,1.795-2.341a.521.521,0,0,1,.73-.1h0l-.011.015.011-.015a.521.521,0,0,1,.1.73l-2.111,2.753a.521.521,0,0,1-.415.2Z" transform="translate(-290.256 -210.345)"/></g><g transform="translate(281.795 222.404)"><path class="f" d="M297.388,510.146a2.467,2.467,0,0,1,.343.192l10.917-4.659.389-2.876,4.362-.027-.258,6.6-14.409,3.811a2.579,2.579,0,0,1-.109.294,2.491,2.491,0,1,1-1.236-3.33Z" transform="translate(-293.877 -476.273)"/><path class="f" d="M291.759,742.838h-2.984l-1.42-11.51h4.4Z" transform="translate(-270.649 -649.195)"/><path class="g" d="M288.354,775.109h5.755v3.622H284.73a3.624,3.624,0,0,1,3.624-3.624h0Z" transform="translate(-272.359 -682.318)"/><path class="f" d="M245.19,739.549l-2.969.292-2.541-11.315,4.383-.431Z" transform="translate(-212.474 -646.749)"/><path class="g" d="M239.227,771.975l5.726-.564.355,3.605-9.331.919a3.623,3.623,0,0,1,3.25-3.961Z" transform="translate(-211.688 -679.521)"/><circle class="f" cx="5.978" cy="5.978" r="5.978" transform="translate(15.962 2.366)"/><path class="g" d="M244.3,638.278a1.089,1.089,0,0,1-1.075-.9c-1.543-8.572-6.593-36.608-6.714-37.385a.344.344,0,0,1,0-.054v-2.091a.363.363,0,0,1,.068-.212l.667-.933a.36.36,0,0,1,.278-.152c3.8-.178,16.255-.7,16.857.051h0c.6.755.389,3.044.341,3.5l0,.047,5.595,35.78a1.1,1.1,0,0,1-.9,1.25l-3.494.576A1.1,1.1,0,0,1,254.69,637c-1.081-3.453-4.7-15.071-5.961-19.566a.121.121,0,0,0-.239.035c.063,4.285.214,15.218.268,18.994l.006.407a1.1,1.1,0,0,1-1,1.1l-3.369.305Q244.348,638.278,244.3,638.278Z" transform="translate(-226.838 -546.962)"/><path class="h" d="M257.107,460.659a5,5,0,0,0-2.026,2.921,27.673,27.673,0,0,0-1.189,6.611l-.379,6.717-4.687,17.81c4.062,3.437,6.405,2.656,11.873-.156s6.093.937,6.093.937l1.093-15.154,1.562-16.559a7.345,7.345,0,0,0-1.183-1.138,12.087,12.087,0,0,0-10.331-2.191Z" transform="translate(-238.961 -443.986)"/><path class="f" d="M243.366,521.514a2.571,2.571,0,0,1,.365.17l10.795-5.4.179-2.927,4.453-.307.239,6.672-14.425,4.771a2.556,2.556,0,1,1-1.6-2.977Z" transform="translate(-226.741 -484.044)"/><path class="h" d="M242.022,474.543c2.656.937,3.124,11.093,3.124,11.093-3.125-1.718-6.874,1.094-6.874,1.094s-.781-2.656-1.718-6.093a5.971,5.971,0,0,1,1.25-5.624A4.254,4.254,0,0,1,242.022,474.543Z" transform="translate(-211.612 -454.668)"/><path class="g" d="M269.58,403.813c-.745-.6-1.761.487-1.761.487l-.6-5.362a21.289,21.289,0,0,1-6.108-.149c-2.384-.6-2.756,2.161-2.756,2.161a19.128,19.128,0,0,1-.074-3.352c.149-1.341,2.085-2.681,5.512-3.575S269.01,397,269.01,397C271.395,398.194,270.326,404.41,269.58,403.813Z" transform="translate(-242.28 -393.889)"/></g><rect class="h" width="127.467" height="0.379" transform="translate(192.379 318.818)"/><path class="h" d="M263.382,601.656a3.367,3.367,0,0,0,3.251-.573c1.139-.956,1.5-2.53,1.786-3.988l.859-4.312-1.8,1.239a13.1,13.1,0,0,0-3.512,3.1,4.448,4.448,0,0,0-.567,4.447" transform="translate(-58.707 -289.523)"/><path class="i" d="M265.994,667.068a21.647,21.647,0,0,1-.3-4.987,7.843,7.843,0,0,1,1.512-4.112,6.842,6.842,0,0,1,1.755-1.59c.175-.111.337.167.162.278a6.5,6.5,0,0,0-2.573,3.1,10.419,10.419,0,0,0-.553,4.49c.058.915.182,1.824.307,2.732a.167.167,0,0,1-.112.2.162.162,0,0,1-.2-.112Z" transform="translate(-61.041 -349.415)"/><path class="h" d="M289.28,700.642a2.478,2.478,0,0,0,2.159,1.114,4.919,4.919,0,0,0,2.825-1.539l2.426-2.142L295.084,698a9.652,9.652,0,0,0-3.44.249,3.274,3.274,0,0,0-2.315,2.351" transform="translate(-82.697 -385.636)"/><path class="i" d="M262.787,723.71c1.089-1.928,2.354-4.072,4.613-4.757a5.149,5.149,0,0,1,1.94-.2c.206.017.155.335-.052.318a4.782,4.782,0,0,0-3.1.819,8.045,8.045,0,0,0-2.128,2.3c-.352.536-.668,1.1-.984,1.655C262.979,724.019,262.685,723.89,262.787,723.71Z" transform="translate(-58.473 -405.108)"/><g transform="translate(225.548 247.398)"><path class="h" d="M645.255,548.427H590.684a1.012,1.012,0,0,1-1.011-1.01V533.88a1.012,1.012,0,0,1,1.011-1.011h54.571a1.012,1.012,0,0,1,1.011,1.011v13.537A1.012,1.012,0,0,1,645.255,548.427Zm-54.571-15.154a.607.607,0,0,0-.606.606v13.537a.607.607,0,0,0,.606.606h54.571a.607.607,0,0,0,.606-.606V533.88a.607.607,0,0,0-.606-.606Z" transform="translate(-589.673 -532.869)"/><path class="h" d="M687.086,556.72a.686.686,0,0,0,0,1.372H719.43a.686.686,0,0,0,0-1.372Z" transform="translate(-668.089 -552.205)"/><path class="h" d="M687.086,578.466a.686.686,0,0,0,0,1.372H701a.686.686,0,0,0,0-1.372Z" transform="translate(-668.089 -569.834)"/><g transform="translate(5.412 3.112)"><circle class="h" cx="4.117" cy="4.117" r="4.117"/><path class="c" d="M296.544,219.671a.638.638,0,0,1-.384-.128l-.007-.005-1.445-1.105a.642.642,0,1,1,.781-1.02l.936.718,2.211-2.885a.642.642,0,0,1,.9-.119h0l-.014.019.014-.019a.643.643,0,0,1,.119.9l-2.6,3.394a.642.642,0,0,1-.511.25Z" transform="translate(-293.074 -213.266)"/></g></g></g></svg>