<svg xmlns="http://www.w3.org/2000/svg" width="156.076" height="102.75" viewBox="0 0 156.076 102.75"><defs><style>.a{fill:#e6e6e6;}.b{fill:#fff;}.c{fill:#ffb8b8;}.d{fill:#456efe;}.e{fill:#2f2e41;}.f{fill:#3f3d56;}.g{fill:#ccc;}</style></defs><g transform="translate(-611.394 -437.25)"><path class="a" d="M215.871,174.918q-.27,1.419-.647,2.808c-.027.108-.058.214-.088.321h-3.5a1.125,1.125,0,0,0-1.124,1.124v9.975c-.106.2-.214.393-.321.589-.556,1.012-1.134,2.012-1.725,3a114.03,114.03,0,0,1-39.13,39.108l.951-2.145-1.047-.072c-7.587-.519-15.2-1.094-22.609-2.8-7.751-1.784-15.333-4.878-21.408-10.009s-10.53-12.461-11.149-20.39a23.264,23.264,0,0,1,.814-8.095,20.785,20.785,0,0,1,9.026-12.31c7.052-4.231,16.252-3.369,23.686.151s13.483,9.342,19.391,15.065a74.9,74.9,0,0,0-24.232-25.294c-3.3-2.113-6.805-4-9.612-6.733s-4.875-6.572-4.379-10.46c.564-4.409,4.175-7.756,7.793-10.336,1.445-1.031,2.937-2.009,4.475-2.908a38.751,38.751,0,0,1,13.994-5.174c6.717-.965,13.972.5,19.121,4.918,5.8,4.979,8.181,13.01,7.955,20.692,3.574-5.2,9.087-9.174,15.312-9.342,6.463-.173,12.607,3.91,15.844,9.508S217.081,168.567,215.871,174.918Z" transform="translate(497.385 307.197)"/><path class="b" d="M492.322,295.141a57.538,57.538,0,0,0,10.951-1.761,20.157,20.157,0,0,0,9.508-5.441c2.722-2.958,4.192-6.8,5.229-10.624.578-2.132,1.053-4.294,1.5-6.457q.729-3.52,1.3-7.071,1.128-7.068,1.611-14.219.058-.868.107-1.737c.02-.357-.536-.356-.556,0q-.4,7.049-1.427,14.043c-.678,4.581-1.545,9.142-2.645,13.642-.932,3.811-2.139,7.682-4.529,10.855a18.187,18.187,0,0,1-8.975,6.082,49.579,49.579,0,0,1-11.025,2.006c-.456.043-.591.084-1.047.124-.353.031-.357.587,0,.556Z" transform="translate(180.043 208.554)"/><path class="b" d="M120.091,492.653a60.215,60.215,0,0,1,14.082,2.482,60.857,60.857,0,0,1,13.115,5.709,59.375,59.375,0,0,1,11.044,8.315,60.788,60.788,0,0,1,14.8,22.255q.293.773.565,1.553c.117.335.654.191.536-.148a60.8,60.8,0,0,0-5.9-12.266,61.592,61.592,0,0,0-8.462-10.661,60.046,60.046,0,0,0-10.8-8.622,61.326,61.326,0,0,0-27.229-9.052q-.874-.073-1.751-.121c-.357-.02-.356.536,0,.556Z" transform="translate(492.504 3.287)"/><path class="b" d="M282.255,165.219a32.727,32.727,0,0,1,8.591,4.2,40.346,40.346,0,0,1,7.334,6.513,53.993,53.993,0,0,1,6.073,8.369,71.4,71.4,0,0,1,4.829,9.817,88.83,88.83,0,0,1,3.516,10.677,100.386,100.386,0,0,1,3.216,22.375,88.885,88.885,0,0,1-.318,10.762,68.551,68.551,0,0,1-1.616,9.908,46.81,46.81,0,0,1-2.915,8.568q-.433.938-.919,1.85c-.168.315.311.6.48.28a42.826,42.826,0,0,0,3.281-8.258,63.948,63.948,0,0,0,1.957-9.715,84.5,84.5,0,0,0,.647-10.741,98.536,98.536,0,0,0-.672-11.286,101.652,101.652,0,0,0-1.957-11.277,92.023,92.023,0,0,0-3.273-10.983,76.423,76.423,0,0,0-4.551-10.107,58.594,58.594,0,0,0-5.835-8.808,43.452,43.452,0,0,0-7.129-7.065,34.474,34.474,0,0,0-8.36-4.822q-1.1-.438-2.229-.791c-.342-.108-.488.429-.148.536Z" transform="translate(356.318 278.139)"/><ellipse class="a" cx="39.742" cy="1.606" rx="39.742" ry="1.606" transform="translate(631.787 536.788)"/><path class="c" d="M652.8,439.939a1.682,1.682,0,0,0-.038.263l-6.9,3.979-1.677-.965-1.787,2.34,3.587,2.556,7.869-6.208a1.685,1.685,0,1,0-1.056-1.966Z" transform="translate(53.84 48.161)"/><path class="d" d="M604.644,441.649l5.431,3.871,2.429-3.046-5.28-4.236a2.14,2.14,0,0,0-3.081.427h0A2.14,2.14,0,0,0,604.644,441.649Z" transform="translate(86.287 48.894)"/><path class="c" d="M425.519,568.558l1.9.5,2.831-7.108-2.811-.737Z" transform="translate(254.201 -33.848)"/><path class="e" d="M0,0H6.187V2.39H2.39A2.39,2.39,0,0,1,0,0H0Z" transform="matrix(-0.967, -0.253, 0.253, -0.967, 684.834, 537.94)"/><path class="c" d="M523.962,573.654l1.938-.346-.413-7.64-2.86.511Z" transform="translate(172.686 -37.587)"/><path class="e" d="M0,0H6.187V2.39H2.39A2.39,2.39,0,0,1,0,0H0Z" transform="translate(702.645 536.853) rotate(169.872)"/><path class="e" d="M603.5,393.033a1.849,1.849,0,0,1,1.1,1.167,8.143,8.143,0,0,1,.434,1.833,7.382,7.382,0,0,1-.02,3.506,2.254,2.254,0,0,1-2.656,1.616,3.624,3.624,0,0,1-2.123-2.825,6.843,6.843,0,0,1,.47-4.028,3.275,3.275,0,0,1,1.228-1.577,1.212,1.212,0,0,1,1.617.337" transform="translate(89.334 86.851)"/><path class="e" d="M553.64,526.948l3.69,33.045-3.047,1.157-5.62-22.159-7.824,20.261-3.335.185s4.576-31.526,7.968-32.242Z" transform="translate(141.895 -25.968)"/><circle class="c" cx="3.944" cy="3.944" r="3.944" transform="translate(688.492 476.213)"/><path class="d" d="M590.981,429.222l-4.262-.556a14.205,14.205,0,0,0-2.594,9.08c.185,5.744-.463,7.5-.463,7.5l8.886.161C591.263,443.645,596.636,433.5,590.981,429.222Z" transform="translate(103.146 56.533)"/><path class="c" d="M593.754,491.742a1.689,1.689,0,0,0-.265.023l-5.452-5.8.556-1.853-2.687-1.2-1.668,4.077,7.844,6.24a1.685,1.685,0,1,0,1.672-1.478Z" transform="translate(102.664 11.005)"/><path class="d" d="M593.111,439.238l-2.525,6.173,3.521,1.668,2.916-6.109a2.14,2.14,0,0,0-1.121-2.9h0A2.139,2.139,0,0,0,593.111,439.238Z" transform="translate(97.336 48.774)"/><path class="e" d="M579.309,375.446c.618-.357.684-1.216.6-1.925a2.937,2.937,0,0,1,.192-2.077c.5-.691,1.5-.705,2.347-.728s1.888-.272,2.108-1.094a1.466,1.466,0,0,0-.613-1.468,4.307,4.307,0,0,0-1.551-.635,9.528,9.528,0,0,0-3.72-.468,4.743,4.743,0,0,0-4.04,5.3c.2,1.582.494,2.273.3,2.97-.358,1.3-1.9,2.134-1.931,3.481-.024,1.054.907,1.867,1.815,2.4a6.091,6.091,0,0,0,2.328.884,2.968,2.968,0,0,0,2.342-.653,3.156,3.156,0,0,0,.766-2.992,9.155,9.155,0,0,0-1.4-2.9" transform="translate(112.096 108.296)"/><path class="f" d="M771.449,426.948h-57A1.447,1.447,0,0,0,713,428.393V465a1.447,1.447,0,0,0,1.445,1.445h57A1.447,1.447,0,0,0,772.894,465V428.393A1.447,1.447,0,0,0,771.449,426.948ZM772.573,465a1.125,1.125,0,0,1-1.124,1.124h-57A1.125,1.125,0,0,1,713.321,465V428.393a1.125,1.125,0,0,1,1.124-1.124h57a1.125,1.125,0,0,1,1.124,1.124Z" transform="translate(-5.424 57.975)"/><path class="d" d="M743.634,479.165h-8.992a1.367,1.367,0,0,1-1.365-1.365v-8.992a1.367,1.367,0,0,1,1.365-1.365h8.992A1.366,1.366,0,0,1,745,468.808V477.8A1.367,1.367,0,0,1,743.634,479.165Z" transform="translate(-22.443 23.982)"/><path class="g" d="M786.119,589.04H735.057a1.044,1.044,0,0,1,0-2.087h51.063a1.044,1.044,0,0,1,0,2.088Z" transform="translate(-23.063 -76.337)"/><path class="g" d="M786.336,557.54H735.274a1.044,1.044,0,0,1,0-2.087h51.063a1.044,1.044,0,1,1,0,2.087Z" transform="translate(-23.244 -49.896)"/><path class="g" d="M856.818,514.53h-7.547a1.044,1.044,0,0,1,0-2.087h7.547a1.044,1.044,0,1,1,0,2.087Z" transform="translate(-118.936 -13.792)"/><path class="g" d="M882.031,482.54H849.274a1.044,1.044,0,1,1,0-2.087h32.757a1.044,1.044,0,1,1,0,2.087Z" transform="translate(-118.939 13.062)"/><path class="g" d="M759.659,621.041h-24.6a1.044,1.044,0,0,1,0-2.088h24.6a1.044,1.044,0,1,1,0,2.088Z" transform="translate(-23.063 -103.199)"/></g></svg>