<svg xmlns="http://www.w3.org/2000/svg" width="133.249" height="89.312" viewBox="0 0 133.249 89.312"><defs><style>.a{fill:#e5e5e5;}.b{fill:#2f2e41;}.c{fill:#e6e6e6;}.d{fill:#fff;}.e{fill:#456efe;}.f{fill:#9f616a;}.g{fill:#3f3d56;}</style></defs><path class="a" d="M549.117,184.02a41.859,41.859,0,0,1-27.488,39.314,41.38,41.38,0,0,1-7.522,1.974,41.847,41.847,0,1,1-6.835-83.132,41.841,41.841,0,0,1,41.844,41.844Z" transform="translate(-415.869 -136.552)"/><path class="b" d="M712.146,726.079a41.374,41.374,0,0,1-7.522,1.974,42.126,42.126,0,0,1-21.013-1.908l1.932-7.754.117-.465,3.943.015,19.811.071.254.749Z" transform="translate(-606.385 -639.297)"/><rect class="c" width="36.347" height="41.128"/><rect class="d" width="34.988" height="39.388" transform="translate(0.648 0.87)"/><circle class="c" cx="1.961" cy="1.961" r="1.961" transform="translate(16.212 34.935)"/><rect class="c" width="11.264" height="1.152" transform="translate(6.578 14.813)"/><rect class="e" width="17.001" height="1.152" transform="translate(6.578 18.266)"/><rect class="c" width="15.332" height="1.152" transform="translate(6.578 21.741)"/><rect class="e" width="23.676" height="1.152" transform="translate(6.578 25.124)"/><rect class="c" width="19.296" height="1.152" transform="translate(6.824 28.345)"/><g transform="translate(45.243 14.552)"><path class="f" d="M437.82,599.683a3.778,3.778,0,0,1,.379.456l17.766-.435,2.073-3.787,6.124,2.381-3.018,7.061a2.867,2.867,0,0,1-2.98,1.719l-20.072-2.425a3.761,3.761,0,1,1-.273-4.972Z" transform="translate(-431.379 -547.312)"/><path class="e" d="M670.758,413.239l8.314-2.725,2.442-3.349,11.883.7,1.745,3.908,6.336,2.994-.974,18.085-1.666,16.925c-8.566-4.436-24.553-1.054-24.693-1Z" transform="translate(-640.405 -382.493)"/><path class="e" d="M626.538,480.034l-8.457-3.384.036-.151c.036-.152,3.636-15.193,4.113-17.61a4.213,4.213,0,0,1,2.394-3.243l.056-.021,3.347,1.019,1.47,11.549Z" transform="translate(-594.407 -424.81)"/><path class="f" d="M803.664,597.881a3.777,3.777,0,0,1,.593.033l11.76-13.323L814.65,580.5l5.91-2.872,3.126,7.014a2.866,2.866,0,0,1-.765,3.354L807.5,601.063a3.761,3.761,0,1,1-3.831-3.181Z" transform="translate(-753.274 -531.339)"/><path class="e" d="M885.018,489.376l-4.906-11.54,1.913-8.038,2.062-2.6a1.188,1.188,0,0,1,.954.009c.761.306,1.408,1.244,1.924,2.788l4.6,13.1Z" transform="translate(-823.213 -434.827)"/><path class="b" d="M718.072,232.985v-8.7a11.658,11.658,0,1,1,23.315-.077q0,.039,0,.077v8.7a1.568,1.568,0,0,1-1.566,1.566H719.638A1.568,1.568,0,0,1,718.072,232.985Z" transform="translate(-681.719 -212.589)"/><circle class="f" cx="8.547" cy="8.547" r="8.547" transform="translate(37.068 4.665)"/><path class="b" d="M696.322,246.816a9.232,9.232,0,0,1,9.222-9.222h1.74a9.232,9.232,0,0,1,9.222,9.222v.174h-3.677l-1.254-3.512-.251,3.512h-1.9l-.633-1.772-.127,1.772H696.322Z" transform="translate(-662.727 -234.423)"/><path class="b" d="M782.406,283.954a1.543,1.543,0,0,1-.123-1.638c1.844-3.507,4.425-9.987,1-13.984l-.246-.287h9.948v14.936l-9.037,1.595a1.6,1.6,0,0,1-.277.024,1.559,1.559,0,0,1-1.264-.646Z" transform="translate(-737.633 -261.013)"/></g><g transform="translate(13.971 3.203)"><path class="e" d="M188.924,123.085a4.171,4.171,0,1,0,4.17,4.171h0a4.171,4.171,0,0,0-4.171-4.171Zm0,1.251a1.251,1.251,0,1,1-1.251,1.251h0a1.251,1.251,0,0,1,1.251-1.251Zm0,6.023a3.038,3.038,0,0,1-2.5-1.335c.02-.834,1.668-1.293,2.5-1.293s2.482.459,2.5,1.293a3.043,3.043,0,0,1-2.5,1.335Z" transform="translate(-184.753 -123.085)"/></g><path class="g" d="M213.15,361.759c1.718-3.149,5.834-5.142,9.2-3.345a6.09,6.09,0,0,1,3.1,3.931c.444,1.965-.491,3.838-1.457,5.488-.524.9-1.1,1.773-1.532,2.718a4.47,4.47,0,0,0-.432,3.174,4.131,4.131,0,0,0,1.9,2.169,14.18,14.18,0,0,0,2.924,1.306,17.213,17.213,0,0,0,6.528.845,17.856,17.856,0,0,0,3.254-.526c1.134-.289,2.247-.656,3.383-.938a8.332,8.332,0,0,1,5.857.241,5.933,5.933,0,0,1,2.771,4.714,11.45,11.45,0,0,1-3.4,9.459,9.523,9.523,0,0,1-4.306,2.512,4.842,4.842,0,0,1-4.37-.74,3.19,3.19,0,0,1,.037-4.331c1.277-1.594,3.442-1.977,5.373-2.015,2.2-.044,4.392.283,6.587.08a10.119,10.119,0,0,0,3.115-.751,7.9,7.9,0,0,0,2.348-1.589,10.314,10.314,0,0,0,2.724-4.9,15.584,15.584,0,0,0,0-6.7,30.226,30.226,0,0,0-.873-3.361c-.147-.465-.882-.266-.734.2,1.309,4.149,2.038,8.947-.49,12.8a7.622,7.622,0,0,1-4.558,3.281,24.122,24.122,0,0,1-6.709.194c-2.115-.077-4.438.006-6.251,1.238a4.662,4.662,0,0,0-2.078,4.747,4,4,0,0,0,3.8,2.774,8.257,8.257,0,0,0,4.983-1.375,12.318,12.318,0,0,0,5.562-8.907,10.005,10.005,0,0,0-.853-5.587,5.469,5.469,0,0,0-2.009-2.239,6.61,6.61,0,0,0-2.863-.882c-2.276-.21-4.462.572-6.621,1.169a18.362,18.362,0,0,1-3.376.645,16.86,16.86,0,0,1-3.331-.054,16.406,16.406,0,0,1-3.228-.716,12.919,12.919,0,0,1-2.93-1.325,2.927,2.927,0,0,1-1.55-2.27,5.915,5.915,0,0,1,1.035-3.044c1.038-1.825,2.32-3.61,2.591-5.746a6.192,6.192,0,0,0-1.813-5.043,6.818,6.818,0,0,0-5.039-2.09,8.17,8.17,0,0,0-5.188,2.18,8.541,8.541,0,0,0-1.75,2.223c-.235.43.422.814.657.384Z" transform="translate(-194.959 -324.11)"/></svg>