<svg xmlns="http://www.w3.org/2000/svg" width="114.707" height="86.035" viewBox="0 0 114.707 86.035"><defs><style>.a{fill:#3f3d56;}.b{fill:#e6e6e6;}.c{fill:#6c63ff;}.d{fill:#2f2e41;}.e{fill:#a0616a;}</style></defs><g transform="translate(0 -0.001)"><path class="a" d="M652.369,640.029H617.731v-.283H652.42Z" transform="translate(-537.714 -556.876)"/><circle class="b" cx="0.998" cy="0.998" r="0.998" transform="translate(4.559 0.001)"/><circle class="b" cx="0.998" cy="0.998" r="0.998" transform="translate(9.613 0.001)"/><circle class="b" cx="0.998" cy="0.998" r="0.998" transform="translate(14.667 0.001)"/><circle class="b" cx="0.998" cy="0.998" r="0.998" transform="translate(19.721 0.001)"/><circle class="b" cx="0.998" cy="0.998" r="0.998" transform="translate(24.774 0.001)"/><circle class="b" cx="0.998" cy="0.998" r="0.998" transform="translate(29.828 0.001)"/><circle class="b" cx="0.998" cy="0.998" r="0.998" transform="translate(34.882 0.001)"/><circle class="b" cx="0.998" cy="0.998" r="0.998" transform="translate(39.936 0.001)"/><circle class="b" cx="0.998" cy="0.998" r="0.998" transform="translate(44.989 0.001)"/><circle class="b" cx="0.998" cy="0.998" r="0.998" transform="translate(50.043 0.001)"/><circle class="b" cx="0.998" cy="0.998" r="0.998" transform="translate(4.559 5.118)"/><circle class="b" cx="0.998" cy="0.998" r="0.998" transform="translate(9.613 5.118)"/><circle class="b" cx="0.998" cy="0.998" r="0.998" transform="translate(14.667 5.118)"/><circle class="c" cx="0.998" cy="0.998" r="0.998" transform="translate(19.721 5.118)"/><circle class="b" cx="0.998" cy="0.998" r="0.998" transform="translate(24.774 5.118)"/><circle class="b" cx="0.998" cy="0.998" r="0.998" transform="translate(29.828 5.118)"/><circle class="b" cx="0.998" cy="0.998" r="0.998" transform="translate(34.882 5.118)"/><circle class="b" cx="0.998" cy="0.998" r="0.998" transform="translate(39.936 5.118)"/><circle class="b" cx="0.998" cy="0.998" r="0.998" transform="translate(44.989 5.118)"/><circle class="b" cx="0.998" cy="0.998" r="0.998" transform="translate(50.043 5.118)"/><circle class="b" cx="0.998" cy="0.998" r="0.998" transform="translate(4.559 10.235)"/><circle class="b" cx="0.998" cy="0.998" r="0.998" transform="translate(9.613 10.235)"/><circle class="b" cx="0.998" cy="0.998" r="0.998" transform="translate(14.667 10.235)"/><circle class="b" cx="0.998" cy="0.998" r="0.998" transform="translate(19.721 10.235)"/><circle class="b" cx="0.998" cy="0.998" r="0.998" transform="translate(24.774 10.235)"/><circle class="b" cx="0.998" cy="0.998" r="0.998" transform="translate(29.828 10.235)"/><circle class="b" cx="0.998" cy="0.998" r="0.998" transform="translate(34.882 10.235)"/><circle class="b" cx="0.998" cy="0.998" r="0.998" transform="translate(39.936 10.235)"/><circle class="b" cx="0.998" cy="0.998" r="0.998" transform="translate(44.989 10.235)"/><circle class="b" cx="0.998" cy="0.998" r="0.998" transform="translate(50.043 10.235)"/><circle class="b" cx="0.998" cy="0.998" r="0.998" transform="translate(4.559 15.352)"/><circle class="b" cx="0.998" cy="0.998" r="0.998" transform="translate(9.613 15.352)"/><circle class="b" cx="0.998" cy="0.998" r="0.998" transform="translate(14.667 15.352)"/><circle class="b" cx="0.998" cy="0.998" r="0.998" transform="translate(19.721 15.352)"/><circle class="b" cx="0.998" cy="0.998" r="0.998" transform="translate(24.774 15.352)"/><circle class="b" cx="0.998" cy="0.998" r="0.998" transform="translate(29.828 15.352)"/><circle class="b" cx="0.998" cy="0.998" r="0.998" transform="translate(34.882 15.352)"/><circle class="b" cx="0.998" cy="0.998" r="0.998" transform="translate(39.936 15.352)"/><circle class="b" cx="0.998" cy="0.998" r="0.998" transform="translate(44.989 15.352)"/><circle class="b" cx="0.998" cy="0.998" r="0.998" transform="translate(50.043 15.352)"/><circle class="b" cx="0.998" cy="0.998" r="0.998" transform="translate(4.559 20.47)"/><circle class="c" cx="0.998" cy="0.998" r="0.998" transform="translate(9.613 20.47)"/><circle class="b" cx="0.998" cy="0.998" r="0.998" transform="translate(14.667 20.47)"/><circle class="b" cx="0.998" cy="0.998" r="0.998" transform="translate(19.721 20.47)"/><circle class="b" cx="0.998" cy="0.998" r="0.998" transform="translate(24.774 20.47)"/><circle class="b" cx="0.998" cy="0.998" r="0.998" transform="translate(29.828 20.47)"/><circle class="b" cx="0.998" cy="0.998" r="0.998" transform="translate(34.882 20.47)"/><circle class="b" cx="0.998" cy="0.998" r="0.998" transform="translate(39.936 20.47)"/><circle class="b" cx="0.998" cy="0.998" r="0.998" transform="translate(44.989 20.47)"/><circle class="b" cx="0.998" cy="0.998" r="0.998" transform="translate(50.043 20.47)"/><circle class="b" cx="0.998" cy="0.998" r="0.998" transform="translate(4.559 25.587)"/><circle class="b" cx="0.998" cy="0.998" r="0.998" transform="translate(9.613 25.587)"/><circle class="b" cx="0.998" cy="0.998" r="0.998" transform="translate(14.667 25.587)"/><circle class="b" cx="0.998" cy="0.998" r="0.998" transform="translate(19.721 25.587)"/><circle class="b" cx="0.998" cy="0.998" r="0.998" transform="translate(24.774 25.587)"/><circle class="b" cx="0.998" cy="0.998" r="0.998" transform="translate(29.828 25.587)"/><circle class="b" cx="0.998" cy="0.998" r="0.998" transform="translate(34.882 25.587)"/><circle class="b" cx="0.998" cy="0.998" r="0.998" transform="translate(39.936 25.587)"/><circle class="b" cx="0.998" cy="0.998" r="0.998" transform="translate(44.989 25.587)"/><circle class="b" cx="0.998" cy="0.998" r="0.998" transform="translate(50.043 25.587)"/><circle class="b" cx="0.998" cy="0.998" r="0.998" transform="translate(4.559 30.704)"/><circle class="b" cx="0.998" cy="0.998" r="0.998" transform="translate(9.613 30.704)"/><circle class="c" cx="0.998" cy="0.998" r="0.998" transform="translate(14.667 30.704)"/><circle class="b" cx="0.998" cy="0.998" r="0.998" transform="translate(19.721 30.704)"/><circle class="b" cx="0.998" cy="0.998" r="0.998" transform="translate(24.774 30.704)"/><circle class="b" cx="0.998" cy="0.998" r="0.998" transform="translate(29.828 30.704)"/><circle class="b" cx="0.998" cy="0.998" r="0.998" transform="translate(34.882 30.704)"/><circle class="b" cx="0.998" cy="0.998" r="0.998" transform="translate(39.936 30.704)"/><circle class="b" cx="0.998" cy="0.998" r="0.998" transform="translate(44.989 30.704)"/><circle class="b" cx="0.998" cy="0.998" r="0.998" transform="translate(50.043 30.704)"/><circle class="b" cx="0.998" cy="0.998" r="0.998" transform="translate(4.559 35.821)"/><circle class="b" cx="0.998" cy="0.998" r="0.998" transform="translate(9.613 35.821)"/><circle class="b" cx="0.998" cy="0.998" r="0.998" transform="translate(14.667 35.821)"/><circle class="b" cx="0.998" cy="0.998" r="0.998" transform="translate(19.721 35.821)"/><circle class="b" cx="0.998" cy="0.998" r="0.998" transform="translate(24.774 35.821)"/><circle class="b" cx="0.998" cy="0.998" r="0.998" transform="translate(29.828 35.821)"/><circle class="b" cx="0.998" cy="0.998" r="0.998" transform="translate(34.882 35.821)"/><circle class="b" cx="0.998" cy="0.998" r="0.998" transform="translate(39.936 35.821)"/><circle class="b" cx="0.998" cy="0.998" r="0.998" transform="translate(44.989 35.821)"/><circle class="b" cx="0.998" cy="0.998" r="0.998" transform="translate(50.043 35.821)"/><circle class="b" cx="0.998" cy="0.998" r="0.998" transform="translate(4.559 40.938)"/><circle class="b" cx="0.998" cy="0.998" r="0.998" transform="translate(9.613 40.938)"/><circle class="b" cx="0.998" cy="0.998" r="0.998" transform="translate(14.667 40.938)"/><circle class="b" cx="0.998" cy="0.998" r="0.998" transform="translate(19.721 40.938)"/><circle class="b" cx="0.998" cy="0.998" r="0.998" transform="translate(24.774 40.938)"/><circle class="b" cx="0.998" cy="0.998" r="0.998" transform="translate(29.828 40.938)"/><circle class="b" cx="0.998" cy="0.998" r="0.998" transform="translate(34.882 40.938)"/><circle class="b" cx="0.998" cy="0.998" r="0.998" transform="translate(39.936 40.938)"/><circle class="b" cx="0.998" cy="0.998" r="0.998" transform="translate(44.989 40.938)"/><circle class="b" cx="0.998" cy="0.998" r="0.998" transform="translate(50.043 40.938)"/><circle class="b" cx="0.998" cy="0.998" r="0.998" transform="translate(4.559 46.055)"/><circle class="b" cx="0.998" cy="0.998" r="0.998" transform="translate(9.613 46.055)"/><circle class="b" cx="0.998" cy="0.998" r="0.998" transform="translate(14.667 46.055)"/><circle class="b" cx="0.998" cy="0.998" r="0.998" transform="translate(19.721 46.055)"/><circle class="b" cx="0.998" cy="0.998" r="0.998" transform="translate(24.774 46.055)"/><circle class="b" cx="0.998" cy="0.998" r="0.998" transform="translate(29.828 46.055)"/><circle class="b" cx="0.998" cy="0.998" r="0.998" transform="translate(34.882 46.055)"/><circle class="b" cx="0.998" cy="0.998" r="0.998" transform="translate(39.936 46.055)"/><circle class="b" cx="0.998" cy="0.998" r="0.998" transform="translate(44.989 46.055)"/><circle class="b" cx="0.998" cy="0.998" r="0.998" transform="translate(50.043 46.055)"/><path class="a" d="M160.955,166.328,172.8,145.565H149.094L137.232,166.11l11.862,20.545h23.723l11.84-20.507Z" transform="translate(-119.456 -126.709)"/><path class="c" d="M366.794,152.685l.022-.038L354.955,132.1h-.013l-11.849,20.763Z" transform="translate(-298.651 -114.99)"/><path class="a" d="M813.829,240.942a1.831,1.831,0,0,1,0-1.978,1,1,0,0,1,.8-.339,1.017,1.017,0,0,1,.812.339,1.816,1.816,0,0,1,0,1.978,1.017,1.017,0,0,1-.812.339A1,1,0,0,1,813.829,240.942Zm1.151-.351a1.381,1.381,0,0,0,.11-.641,1.334,1.334,0,0,0-.113-.632.371.371,0,0,0-.345-.2.36.36,0,0,0-.336.2,1.365,1.365,0,0,0-.11.632,1.382,1.382,0,0,0,.11.638.359.359,0,0,0,.336.2A.371.371,0,0,0,814.979,240.591Zm-.391,2.441,2.515-4.346h.677l-2.521,4.346Zm2.335-.3a1.5,1.5,0,0,1-.29-1,1.464,1.464,0,0,1,.29-.983,1.142,1.142,0,0,1,1.617,0,1.836,1.836,0,0,1,0,1.981,1.135,1.135,0,0,1-1.617,0Zm1.15-.354a1.382,1.382,0,0,0,.11-.638,1.333,1.333,0,0,0-.113-.632.391.391,0,0,0-.68,0,1.366,1.366,0,0,0-.11.632,1.384,1.384,0,0,0,.11.638.394.394,0,0,0,.684,0Z" transform="translate(-728.525 -222.987)"/><path class="a" d="M157.526,530.34a1.831,1.831,0,0,1,0-1.978,1,1,0,0,1,.8-.339,1.017,1.017,0,0,1,.812.339,1.815,1.815,0,0,1,0,1.978,1.017,1.017,0,0,1-.812.339A1,1,0,0,1,157.526,530.34Zm1.151-.351a1.38,1.38,0,0,0,.11-.641,1.333,1.333,0,0,0-.113-.632.371.371,0,0,0-.345-.2.359.359,0,0,0-.336.2,1.364,1.364,0,0,0-.11.632,1.381,1.381,0,0,0,.11.638.359.359,0,0,0,.336.2.371.371,0,0,0,.348-.2Zm-.391,2.441,2.515-4.346h.677l-2.521,4.346Zm2.335-.3a1.5,1.5,0,0,1-.29-1,1.464,1.464,0,0,1,.29-.983,1.142,1.142,0,0,1,1.617,0,1.836,1.836,0,0,1,0,1.981,1.135,1.135,0,0,1-1.617,0Zm1.15-.354a1.382,1.382,0,0,0,.11-.638,1.334,1.334,0,0,0-.113-.632.391.391,0,0,0-.681,0,1.366,1.366,0,0,0-.11.632,1.384,1.384,0,0,0,.11.638.394.394,0,0,0,.684,0Z" transform="translate(-157.236 -474.898)"/><path class="d" d="M438.252,149.93l-.154-.041,3.349-12.6h19.425v.159h-19.3Z" transform="translate(-381.349 -119.506)"/><path class="d" d="M772.2,246.278a1.667,1.667,0,1,1,1.667-1.667A1.667,1.667,0,0,1,772.2,246.278Zm0-3.174a1.508,1.508,0,1,0,1.508,1.508A1.508,1.508,0,0,0,772.2,243.1Z" transform="translate(-691.093 -226.748)"/><circle class="c" cx="0.635" cy="0.635" r="0.635" transform="translate(80.475 17.229)"/><path class="d" d="M97.947,330.343l.153.041-3.349,12.6H75.326v-.159h19.3Z" transform="translate(-65.569 -287.552)"/><path class="d" d="M209.11,532.342a1.667,1.667,0,1,1-1.667,1.667A1.667,1.667,0,0,1,209.11,532.342Zm0,3.174a1.508,1.508,0,1,0-1.508-1.508,1.508,1.508,0,0,0,1.508,1.508Z" transform="translate(-200.94 -478.658)"/><circle class="c" cx="0.635" cy="0.635" r="0.635" transform="translate(7.535 54.716)"/><rect class="e" width="2.41" height="3.277" transform="translate(93.155 80.478)"/><rect class="e" width="2.41" height="3.277" transform="translate(105.397 80.478)"/><path class="e" d="M992.8,496.3h0a1.43,1.43,0,0,1-1.413-1.652l.395-2.516.117-.748h1.832l.1,1.06.381,2.179A1.43,1.43,0,0,1,992.8,496.3Z" transform="translate(-883.321 -443.003)"/><path class="e" d="M854.383,494.066h0a1.43,1.43,0,0,1-1.413-1.652l.395-2.516.117-.748h1.831l.1,1.06.381,2.179a1.43,1.43,0,0,1-1.408,1.676Z" transform="translate(-762.834 -441.06)"/><path class="d" d="M727.616,404.306l-2.892-.1L720,375.677l-4.723,28.629-2.8-.1-.771-32.967h16.194Z" transform="translate(-619.52 -323.154)"/><path class="d" d="M855.143,751.24c-2.454.071-4.374-.592-5.633-2.167a1.04,1.04,0,0,1-.079-1.184h0a1.04,1.04,0,0,1,1.012-.5l.8.093,1.66-.83c-.34,1.975.584,2.012,2.794,1.35l.4,2.04a1,1,0,0,1-.95,1.195Z" transform="translate(-759.639 -665.209)"/><path class="d" d="M949.651,752.143c-2.454.071-4.374-.592-5.633-2.167a1.04,1.04,0,0,1-.079-1.184h0a1.04,1.04,0,0,1,1.012-.5l.8.093,1.648-.7c-.34,1.975.6,1.878,2.806,1.216l.4,2.04a1,1,0,0,1-.95,1.2Z" transform="translate(-841.905 -666.112)"/><circle class="e" cx="3.856" cy="3.856" r="3.856" transform="translate(95.661 10.207)"/><path class="e" d="M768.884,125.957l-4.145.193-.193-4.338,3.567-1.349Z" transform="translate(-665.511 -104.858)"/><path class="d" d="M891.29,292.284c-5.652-1.07-12.092-1.453-16.387,0l1.35-28.34,4.531-1.35.337-.53,3.808-.627,1.831.578,1.157,1.735,5.012,2.8C890.461,276.091,889.73,284.763,891.29,292.284Z" transform="translate(-781.941 -242.845)"/><path class="d" d="M994.386,321.888l-4.145-.482c.864-4.21.511-9.685.723-15.182.135-3.487.858-6.66,1.109-10.555h0a3.439,3.439,0,0,1,2.4,3.59C994.513,307.418,995.284,315.063,994.386,321.888Z" transform="translate(-882.338 -272.642)"/><path class="d" d="M855.88,306.6l-4.049-.289,2.41-13.688.816-11.391c-.127-1.661.761-2.626,2.076-2.683h0c2.873,3.4,3.206,8.09,2.314,13.4Z" transform="translate(-761.857 -257.744)"/><path class="d" d="M886.154,195.11l-.5-1.416a4.643,4.643,0,0,0-3.678-3.051h0l-3.116-.071.865-1.39a4.228,4.228,0,0,1,4.009-1.973l3.114.31a2.821,2.821,0,0,1,2.529,3.069l-.286,3.063a1.929,1.929,0,0,1-2.94,1.459Z" transform="translate(-785.387 -178.213)"/></g></svg>