<svg xmlns="http://www.w3.org/2000/svg" xmlns:xlink="http://www.w3.org/1999/xlink" width="115.861" height="89.682" viewBox="0 0 115.861 89.682"><defs><style>.a{opacity:0.51;}.b,.d{fill:#6c63ff;}.b,.c,.m{opacity:0.1;}.e{fill:url(#a);}.f{fill:#535461;}.g{fill:#f6f7f9;}.h,.t{opacity:0.2;}.i{fill:#dce0ed;}.j{fill:url(#b);}.k{fill:#65617d;}.l{fill:#a27772;}.n{fill:#fbbebe;}.o{fill:#7c7cdd;}.p{opacity:0.05;}.q{fill:#7c5c5c;}.r{fill:#ffd037;}.s{fill:#a8a8a8;}</style><linearGradient id="a" x1="0.5" y1="1" x2="0.5" gradientUnits="objectBoundingBox"><stop offset="0" stop-color="gray" stop-opacity="0.251"/><stop offset="0.54" stop-color="gray" stop-opacity="0.122"/><stop offset="1" stop-color="gray" stop-opacity="0.102"/></linearGradient><linearGradient id="b" x1="0.5" y1="1" x2="0.5" y2="0" xlink:href="#a"/></defs><g class="a" transform="translate(0 0.021)"><path class="b" d="M84.645,31.7c-3.726-.137-7.617-.234-10.986,1.363s-5.973,5.466-4.843,9.023a17.192,17.192,0,0,0,1.692,3.226,18.6,18.6,0,0,1,.361,17.5c-2.161,4.157-5.823,7.321-8.46,11.195s-4.135,9.242-1.541,13.144c1.776,2.672,5.072,3.972,8.265,4.287s6.4-.181,9.611-.309A41.4,41.4,0,0,1,96.92,94.572c7.877,3.453,14.662,9.361,22.956,11.641a6.936,6.936,0,0,0,3.055.309c1.806-.329,3.119-1.822,4.533-3,4.513-3.737,10.762-4.435,16.62-4.609s11.96-.04,17.256-2.555a22.787,22.787,0,0,0,10.4-10.9,40.934,40.934,0,0,0,3.537-14.851,21.084,21.084,0,0,0-.881-9.023c-1.223-3.2-3.7-5.747-6.3-7.974a30.731,30.731,0,0,0-9.036-5.693c-4.008-1.5-8.36-1.715-12.628-2.071a173.471,173.471,0,0,1-25.976-4.171c-8.106-1.938-17.006-4.055-24.389-8C92.353,31.692,88.822,31.849,84.645,31.7Z" transform="translate(-59.52 -31.65)"/><g class="c" transform="translate(74.552 48.886)"><path class="d" d="M773.4,534.593s.379-5.317,3.372-8.216a8.074,8.074,0,0,0,2.386-4.518,13.656,13.656,0,0,0,.161-2.479" transform="translate(-771.438 -516.01)"/><path class="d" d="M827.875,489.469c-.22.587-1.919,1.893-1.919,1.893a8.918,8.918,0,0,1-.207-2.687,1.134,1.134,0,0,1,2.125.794Z" transform="translate(-818.12 -487.938)"/><path class="d" d="M829.189,521.8a9.011,9.011,0,0,1-2.639.546,8.987,8.987,0,0,1,1.286-2.369,1.135,1.135,0,0,1,1.353,1.822Z" transform="translate(-818.892 -516.358)"/><path class="d" d="M809.8,571.506a9,9,0,0,1-2.554-.857,8.947,8.947,0,0,1,2.305-1.393,1.134,1.134,0,0,1,.249,2.251Z" transform="translate(-801.66 -560.538)"/><path class="d" d="M784.912,607.256a9,9,0,0,1-2.662-.417,8.987,8.987,0,0,1,2.036-1.764,1.135,1.135,0,1,1,.626,2.181Z" transform="translate(-779.34 -592.473)"/><path class="d" d="M804.529,523.81a8.993,8.993,0,0,0,2.071,1.722,8.965,8.965,0,0,0-.02-2.695,1.135,1.135,0,0,0-2.05.972Z" transform="translate(-799.145 -518.544)"/><path class="d" d="M775.287,563.186a9.048,9.048,0,0,0,2.492,1.025,9,9,0,0,0-.825-2.566,1.135,1.135,0,0,0-1.667,1.541Z" transform="translate(-772.853 -553.419)"/><path class="d" d="M755.263,609.157a8.988,8.988,0,0,0,2.283,1.431,8.977,8.977,0,0,0-.38-2.668,1.135,1.135,0,0,0-1.9,1.237Z" transform="translate(-755.097 -594.623)"/><path class="d" d="M827.875,489.469c-.22.587-1.919,1.893-1.919,1.893a8.918,8.918,0,0,1-.207-2.687,1.134,1.134,0,0,1,2.125.794Z" transform="translate(-818.12 -487.938)"/><path class="d" d="M829.189,521.8a9.011,9.011,0,0,1-2.639.546,8.987,8.987,0,0,1,1.286-2.369,1.135,1.135,0,0,1,1.353,1.822Z" transform="translate(-818.892 -516.358)"/><path class="d" d="M809.8,571.506a9,9,0,0,1-2.554-.857,8.947,8.947,0,0,1,2.305-1.393,1.134,1.134,0,0,1,.249,2.251Z" transform="translate(-801.66 -560.538)"/><path class="d" d="M784.912,607.256a9,9,0,0,1-2.662-.417,8.987,8.987,0,0,1,2.036-1.764,1.135,1.135,0,1,1,.626,2.181Z" transform="translate(-779.34 -592.473)"/><path class="d" d="M804.529,523.81a8.993,8.993,0,0,0,2.071,1.722,8.965,8.965,0,0,0-.02-2.695,1.135,1.135,0,0,0-2.05.972Z" transform="translate(-799.145 -518.544)"/><path class="d" d="M775.287,563.186a9.048,9.048,0,0,0,2.492,1.025,9,9,0,0,0-.825-2.566,1.135,1.135,0,0,0-1.667,1.541Z" transform="translate(-772.853 -553.419)"/><path class="d" d="M755.263,609.157a8.988,8.988,0,0,0,2.283,1.431,8.977,8.977,0,0,0-.38-2.668,1.135,1.135,0,0,0-1.9,1.237Z" transform="translate(-755.097 -594.623)"/></g><g class="c" transform="translate(75.567 28.76)"><path class="d" d="M783.2,346.813s.379-5.317,3.372-8.216a8.082,8.082,0,0,0,2.386-4.518,13.482,13.482,0,0,0,.161-2.479" transform="translate(-781.204 -328.23)"/><path class="d" d="M837.679,301.689c-.214.586-1.917,1.892-1.917,1.892a8.939,8.939,0,0,1-.208-2.686,1.134,1.134,0,1,1,2.125.794Z" transform="translate(-827.889 -300.157)"/><path class="d" d="M839.019,333.713a8.972,8.972,0,0,1-2.639.546,8.988,8.988,0,0,1,1.286-2.368,1.135,1.135,0,1,1,1.353,1.822Z" transform="translate(-828.684 -328.274)"/><path class="d" d="M819.613,383.683a9.005,9.005,0,0,1-2.553-.857,8.975,8.975,0,0,1,2.305-1.393,1.135,1.135,0,1,1,.248,2.256Z" transform="translate(-811.434 -372.715)"/><path class="d" d="M794.712,419.544a9,9,0,0,1-2.662-.417,9.038,9.038,0,0,1,2.036-1.765,1.135,1.135,0,1,1,.625,2.182Z" transform="translate(-789.105 -404.761)"/><path class="d" d="M814.217,335.778a8.975,8.975,0,0,0,2.072,1.723,9,9,0,0,0-.02-2.695,1.135,1.135,0,1,0-2.052.971Z" transform="translate(-808.798 -330.513)"/><path class="d" d="M785.251,375.578a9.017,9.017,0,0,0,2.493,1.025,8.992,8.992,0,0,0-.826-2.565,1.135,1.135,0,0,0-1.667,1.54Z" transform="translate(-782.783 -365.813)"/><path class="d" d="M764.773,420.929a9.007,9.007,0,0,0,2.283,1.431,8.976,8.976,0,0,0-.38-2.668,1.135,1.135,0,1,0-1.9,1.237Z" transform="translate(-764.572 -406.396)"/><path class="d" d="M837.679,301.689c-.214.586-1.917,1.892-1.917,1.892a8.939,8.939,0,0,1-.208-2.686,1.134,1.134,0,1,1,2.125.794Z" transform="translate(-827.889 -300.157)"/><path class="d" d="M839.019,333.713a8.972,8.972,0,0,1-2.639.546,8.988,8.988,0,0,1,1.286-2.368,1.135,1.135,0,1,1,1.353,1.822Z" transform="translate(-828.684 -328.274)"/><path class="d" d="M819.613,383.683a9.005,9.005,0,0,1-2.553-.857,8.975,8.975,0,0,1,2.305-1.393,1.135,1.135,0,1,1,.248,2.256Z" transform="translate(-811.434 -372.715)"/><path class="d" d="M794.712,419.544a9,9,0,0,1-2.662-.417,9.038,9.038,0,0,1,2.036-1.765,1.135,1.135,0,1,1,.625,2.182Z" transform="translate(-789.105 -404.761)"/><path class="d" d="M814.217,335.778a8.975,8.975,0,0,0,2.072,1.723,9,9,0,0,0-.02-2.695,1.135,1.135,0,1,0-2.052.971Z" transform="translate(-808.798 -330.513)"/><path class="d" d="M785.251,375.578a9.017,9.017,0,0,0,2.493,1.025,8.992,8.992,0,0,0-.826-2.565,1.135,1.135,0,0,0-1.667,1.54Z" transform="translate(-782.783 -365.813)"/><path class="d" d="M764.773,420.929a9.007,9.007,0,0,0,2.283,1.431,8.976,8.976,0,0,0-.38-2.668,1.135,1.135,0,1,0-1.9,1.237Z" transform="translate(-764.572 -406.396)"/></g><g class="c" transform="translate(7.032 39.342)"><path class="d" d="M161.66,437.553s-4.578-2.729-5.824-6.7a8.067,8.067,0,0,0-2.962-4.162,13.511,13.511,0,0,0-2.144-1.258" transform="translate(-147.985 -422.585)"/><path class="d" d="M127.069,399.23a8.907,8.907,0,0,1,.828,2.565,8.991,8.991,0,0,1-2.493-1.022,1.135,1.135,0,0,1,1.665-1.542Z" transform="translate(-125.123 -398.889)"/><path class="d" d="M159.322,405.934a9,9,0,0,1-.7,2.6,8.987,8.987,0,0,1-1.537-2.213,1.135,1.135,0,1,1,2.236-.389Z" transform="translate(-153.641 -404.315)"/><path class="d" d="M196.934,442.076c-.214.587-1.917,1.894-1.917,1.894a8.969,8.969,0,0,1-.209-2.686,1.135,1.135,0,1,1,2.126.792Z" transform="translate(-187.283 -436.054)"/><path class="d" d="M217.51,481.349a9.018,9.018,0,0,1-1.569,2.2,8.987,8.987,0,0,1-.66-2.612,1.134,1.134,0,0,1,2.229.421Z" transform="translate(-205.607 -471.315)"/><path class="d" d="M146.838,435.283a9.019,9.019,0,0,0,2.47-1.072,8.988,8.988,0,0,0-2.417-1.194,1.135,1.135,0,1,0-.054,2.269Z" transform="translate(-143.521 -429.359)"/><path class="d" d="M169.354,479.194a9.014,9.014,0,0,0,2.036-1.766,8.98,8.98,0,0,0-2.662-.415,1.135,1.135,0,0,0,.627,2.181Z" transform="translate(-163.343 -468.611)"/><path class="d" d="M200.42,517.739a8.984,8.984,0,0,0,2.305-1.393,8.92,8.92,0,0,0-2.554-.857,1.134,1.134,0,1,0,.249,2.251Z" transform="translate(-191.171 -502.987)"/><path class="d" d="M127.069,399.23a8.907,8.907,0,0,1,.828,2.565,8.991,8.991,0,0,1-2.493-1.022,1.135,1.135,0,0,1,1.665-1.542Z" transform="translate(-125.123 -398.889)"/><path class="d" d="M159.322,405.934a9,9,0,0,1-.7,2.6,8.987,8.987,0,0,1-1.537-2.213,1.135,1.135,0,1,1,2.236-.389Z" transform="translate(-153.641 -404.315)"/><path class="d" d="M196.934,442.076c-.214.587-1.917,1.894-1.917,1.894a8.969,8.969,0,0,1-.209-2.686,1.135,1.135,0,1,1,2.126.792Z" transform="translate(-187.283 -436.054)"/><path class="d" d="M217.51,481.349a9.018,9.018,0,0,1-1.569,2.2,8.987,8.987,0,0,1-.66-2.612,1.134,1.134,0,0,1,2.229.421Z" transform="translate(-205.607 -471.315)"/><path class="d" d="M146.838,435.283a9.019,9.019,0,0,0,2.47-1.072,8.988,8.988,0,0,0-2.417-1.194,1.135,1.135,0,1,0-.054,2.269Z" transform="translate(-143.521 -429.359)"/><path class="d" d="M169.354,479.194a9.014,9.014,0,0,0,2.036-1.766,8.98,8.98,0,0,0-2.662-.415,1.135,1.135,0,0,0,.627,2.181Z" transform="translate(-163.343 -468.611)"/><path class="d" d="M200.42,517.739a8.984,8.984,0,0,0,2.305-1.393,8.92,8.92,0,0,0-2.554-.857,1.134,1.134,0,1,0,.249,2.251Z" transform="translate(-191.171 -502.987)"/></g><path class="b" d="M776.25,803.82c3.077,1.339,6.832.524,10.323.618a2.825,2.825,0,0,1,1.367.284,3.5,3.5,0,0,1,.835.927c.979,1.194,2.984,1.578,4.736,1.375a27.992,27.992,0,0,0,5.013-1.384,14.819,14.819,0,0,1,8.945-.322,1.848,1.848,0,0,0,.808.154c.618-.078.8-.719,1.235-1.085.78-.661,2.476-.481,2.819-1.353.2-.51-.262-1.033-.765-1.381-1.929-1.333-4.684-1.553-7.206-1.347s-5,.773-7.536.775c-3.159,0-6.21-.87-9.338-1.227a14.922,14.922,0,0,0-6.561.511C778.724,801.151,778.239,802.918,776.25,803.82Z" transform="translate(-699.431 -717.414)"/><path class="b" d="M232.93,761.07c5.252,1.512,11.661.592,17.62.7a6.967,6.967,0,0,1,2.334.322,5.187,5.187,0,0,1,1.426,1.048c1.67,1.349,5.092,1.783,8.082,1.554a67.949,67.949,0,0,0,8.557-1.564c4.879-1,10.456-1.452,15.269-.364a4.563,4.563,0,0,0,1.38.175c1.055-.089,1.369-.812,2.107-1.226,1.332-.75,4.225-.543,4.81-1.527.343-.577-.446-1.168-1.305-1.562-3.288-1.506-7.993-1.755-12.3-1.522s-8.537.872-12.862.876c-5.391,0-10.6-.983-15.939-1.387a37.9,37.9,0,0,0-11.2.579C237.153,758.058,236.324,760.055,232.93,761.07Z" transform="translate(-214.344 -678.77)"/><path class="b" d="M101.77,811.174c1.5.9,3.323.354,5.022.417a1.067,1.067,0,0,1,.666.191,2.259,2.259,0,0,1,.406.626,2.216,2.216,0,0,0,2.3.927,10.813,10.813,0,0,0,2.439-.933,5.319,5.319,0,0,1,4.351-.214.684.684,0,0,0,.394.107c.3-.054.39-.486.6-.732.379-.446,1.2-.322,1.371-.912a1,1,0,0,0-.372-.931,4.261,4.261,0,0,0-3.506-.909,33.17,33.17,0,0,1-3.667.513,29.675,29.675,0,0,1-4.542-.827,5.322,5.322,0,0,0-3.193.345C102.974,809.376,102.738,810.568,101.77,811.174Z" transform="translate(-97.241 -725.168)"/><path class="e" d="M302.126,67.32h-49.8a4.56,4.56,0,0,0-4.568,4.554v68.995a4.56,4.56,0,0,0,4.568,4.551h49.8a4.56,4.56,0,0,0,4.568-4.554V71.874A4.56,4.56,0,0,0,302.126,67.32Z" transform="translate(-227.584 -63.515)"/><rect class="f" width="57.525" height="76.466" rx="20" transform="translate(20.878 4.74)"/><rect class="g" width="51.68" height="62" transform="translate(23.801 11.973)"/><circle class="g" cx="0.702" cy="0.702" r="0.702" transform="translate(48.705 7.545)"/><circle class="g" cx="2.105" cy="2.105" r="2.105" transform="translate(47.302 75.36)"/><g class="h" transform="translate(23.801 11.973)"><rect class="d" width="51.68" height="3.09"/></g><circle class="g" cx="0.659" cy="0.659" r="0.659" transform="translate(24.758 12.859)"/><circle class="g" cx="0.659" cy="0.659" r="0.659" transform="translate(26.437 12.859)"/><circle class="g" cx="0.659" cy="0.659" r="0.659" transform="translate(28.116 12.859)"/><rect class="i" width="48.125" height="0.161" transform="translate(25.344 30.199)"/><rect class="i" width="48.125" height="0.161" transform="translate(25.344 33.932)"/><rect class="i" width="48.125" height="0.161" transform="translate(25.344 37.666)"/><rect class="i" width="48.125" height="0.161" transform="translate(25.344 41.399)"/><rect class="i" width="48.125" height="0.161" transform="translate(25.344 45.132)"/><g class="h" transform="translate(25.285 32.476)"><path class="d" d="M284.094,316H235.91v-7.342l4.419,2.178,4.573.621,4.013-1.21,4.841-3.754,2.435-1.406,1.78-.343,1.7.091,2.8,1.384,3.808,2.425,2.988.384,2.369-.817,5.022-4.112,2.564-.914,2.683.415,2.184,1.262Z" transform="translate(-235.91 -303.18)"/></g><path class="d" d="M303.82,342.874a17.344,17.344,0,0,1-8.4-2.688l.12-.178c.062.042,6.234,4.124,11.478,2.079a15.9,15.9,0,0,0,4.591-3.028,11.6,11.6,0,0,1,4.444-2.758,6.647,6.647,0,0,1,5.935,1.333c1.442,1.184,4.312,3.086,7.344,2.518,1.546-.29,2.848-1.419,4.227-2.614,2.644-2.292,5.379-4.661,10.11-1.262l-.125.174c-4.594-3.3-7.262-.987-9.844,1.25-1.4,1.214-2.726,2.358-4.328,2.662-3.119.585-6.049-1.355-7.52-2.563a6.438,6.438,0,0,0-5.743-1.292,11.476,11.476,0,0,0-4.361,2.714,15.961,15.961,0,0,1-4.65,3.064A8.974,8.974,0,0,1,303.82,342.874Z" transform="translate(-270.136 -302.127)"/><circle class="d" cx="1.193" cy="1.193" r="1.193" transform="translate(47.308 32.832)"/><g class="h" transform="translate(48.769 18.24)"><path class="d" d="M529.832,202H514.784a.244.244,0,0,0-.244.244v10.177a.244.244,0,0,0,.422.167l2.608-2.781a.243.243,0,0,1,.178-.077h12.084a.244.244,0,0,0,.244-.244v-7.243A.244.244,0,0,0,529.832,202Z" transform="translate(-514.54 -202)"/></g><rect class="g" width="8.569" height="1.072" transform="translate(52.252 20.124)"/><rect class="g" width="2.353" height="1.072" transform="translate(52.252 22.499)"/><g class="h" transform="translate(29.408 52.963)"><rect class="d" width="2.353" height="1.072"/></g><g class="h" transform="translate(29.408 55.034)"><rect class="d" width="2.353" height="1.072"/></g><g class="h" transform="translate(29.408 57.106)"><rect class="d" width="2.353" height="1.072"/></g><g class="h" transform="translate(29.408 59.179)"><rect class="d" width="2.353" height="1.072"/></g><g class="h" transform="translate(29.408 61.251)"><rect class="d" width="2.353" height="1.072"/></g><g class="h" transform="translate(29.408 63.322)"><rect class="d" width="2.353" height="1.072"/></g><g class="h" transform="translate(29.408 65.395)"><rect class="d" width="2.353" height="1.072"/></g><g class="h" transform="translate(29.408 67.467)"><rect class="d" width="2.353" height="1.072"/></g><g class="h" transform="translate(33.838 68.539)"><rect class="d" width="2.353" height="1.072"/></g><g class="h" transform="translate(37.983 68.539)"><rect class="d" width="2.353" height="1.072"/></g><g class="h" transform="translate(42.127 68.539)"><rect class="d" width="2.353" height="1.072"/></g><g class="h" transform="translate(46.271 68.539)"><rect class="d" width="2.353" height="1.072"/></g><g class="h" transform="translate(50.415 68.539)"><rect class="d" width="2.353" height="1.072"/></g><g class="h" transform="translate(54.56 68.539)"><rect class="d" width="2.353" height="1.072"/></g><g class="h" transform="translate(58.704 68.539)"><rect class="d" width="2.353" height="1.072"/></g><g class="h" transform="translate(62.848 68.539)"><rect class="d" width="2.353" height="1.072"/></g><g class="h" transform="translate(66.993 68.539)"><rect class="d" width="2.353" height="1.072"/></g><rect class="g" width="3.572" height="1.072" transform="translate(57.249 22.499)"/><rect class="d" width="2.353" height="6.717" transform="translate(33.838 60.75)"/><rect class="d" width="2.353" height="9.825" transform="translate(37.983 57.642)"/><rect class="d" width="2.353" height="12.433" transform="translate(42.127 55.034)"/><rect class="d" width="2.353" height="11.08" transform="translate(46.271 56.386)"/><rect class="d" width="2.353" height="13.433" transform="translate(50.415 54.034)"/><g class="h" transform="translate(54.56 59.179)"><rect class="d" width="2.353" height="8.288"/></g><g class="h" transform="translate(58.704 59.179)"><rect class="d" width="2.353" height="8.288"/></g><g class="h" transform="translate(62.848 59.179)"><rect class="d" width="2.353" height="8.288"/></g><g class="h" transform="translate(66.993 59.179)"><rect class="d" width="2.353" height="8.288"/></g><path class="j" d="M856.99,191.406a29.418,29.418,0,0,0-3.516-1.831l-.051-.038a2.128,2.128,0,0,1-.643-.811v-.158a3.845,3.845,0,0,1,1.117-2.1l1.339-1.576a1.528,1.528,0,0,0,.345-.547,1.216,1.216,0,0,0,.036-.335v-.137c-.006-.391-.018-.783-.032-1.179-.013-.342-.1-.773-.443-.844-.178-.036-.413.028-.507-.125a.292.292,0,0,1-.022-.2.079.079,0,0,0,0,.016v-.019a4.544,4.544,0,0,0,.128-.8,1.118,1.118,0,0,0-.056-.407c-.2-.568-.88-.8-1.483-.908a2.6,2.6,0,0,1-1.657-.671,4.953,4.953,0,0,0-.329-.453,1.306,1.306,0,0,0-.616-.3,3.482,3.482,0,0,0-2.242.2,2.018,2.018,0,0,1-.9.286c-.319-.019-.616-.25-.944-.305a1.347,1.347,0,0,0-1.3.759,1.853,1.853,0,0,0-.24.9v.053h0a1.306,1.306,0,0,0,.344.914c.228.237.569.4.663.712.039.126.029.264.063.392a.151.151,0,0,0,.015.047l-.017.023a3.972,3.972,0,0,0-.84,2.452,4.062,4.062,0,0,0,2.854,3.852v.12a1.724,1.724,0,0,1-.554,1.348l-3.608,1.451s-2.175-.258-2.959,2.921a5.375,5.375,0,0,0-.135,1.613,4.729,4.729,0,0,1-.595,2.416c-.893,1.747-.689,5.758,1.135,6.155a6.031,6.031,0,0,0,2.465.2v.07c-.028.75-.3,7.244-1.295,8.03-.274.214-.223.364,0,.463,0,0,0,.042-.006.117a8.068,8.068,0,0,1-.848,3.312c-.771,1.191-.69,8.062-.69,8.062l-.518,4.055s.321,2.5,0,2.939c-.289.389-.675,9.646-.75,11.651h-.034a.974.974,0,0,0-.779.475,13.713,13.713,0,0,1-1.918,1.971,5.391,5.391,0,0,1-2.154,1.107,1.306,1.306,0,0,0-.244.107,1.286,1.286,0,0,0-.543.572.62.62,0,0,0-.059.478c.163.4,3.528.674,4.379.278a28.943,28.943,0,0,1,4.423-.884.91.91,0,0,0,.788-.787.52.52,0,0,0-.107-.394h0a3.467,3.467,0,0,1-.368-1.439.949.949,0,0,0,.248-.147,10.561,10.561,0,0,1,.608-4.249,24.5,24.5,0,0,0,.857-8.7s2.474-10.643,4.42-11.636h0c.03.037.974,1.251,1.094,5a15.185,15.185,0,0,0,1.5,6.314s-.609,6.474,0,8.9l-.8,3.822c-.058-.05-.1-.089-.1-.089s.023.107.057.277l-.017.08.034.009a7.53,7.53,0,0,1,.169,1.8c-.032.278-.107.659-.163,1.033-.084.588-.107,1.159.2,1.286.507.2,3.488.482,3.995-.173a.941.941,0,0,0,.148-.982,1,1,0,0,0-.148-.25,3.707,3.707,0,0,1-.568-2.206.667.667,0,0,0-.094-.524,26.68,26.68,0,0,1,.683-4.28c.507-1.911,1.578-6.1.79-8.856h0c-.03-.107-.064-.214-.1-.322a11.871,11.871,0,0,1-.446-4.646,9.461,9.461,0,0,1,0-4.051c.487-2.224.826-4.408.826-4.408a27.828,27.828,0,0,0,.034-4.739l-.016-.116.129-.029s-.689-3.058-.932-5c-.058-.46-.133-1.042-.214-1.663a4.029,4.029,0,0,0,.661-.164c2.182-.758,2.868-7.587,2.868-7.587v-2.165S859.545,192.875,856.99,191.406Zm-16.313,52.74c-.068-.034-.107-.057-.107-.057h0Z" transform="translate(-750.938 -162.218)"/><path class="k" d="M904.827,510.225c.95,2.731-.159,7.163-.673,9.141a27.668,27.668,0,0,0-.673,4.355,9.16,9.16,0,0,1-3.482-.08l.831-4.073c-.594-2.414,0-8.865,0-8.865a15.379,15.379,0,0,1-1.464-6.292c-.117-3.741-1.039-4.948-1.072-4.986h0c-1.9.989-4.314,11.6-4.314,11.6a24.79,24.79,0,0,1-.831,8.667,10.741,10.741,0,0,0-.594,4.235,1.306,1.306,0,0,1-1.077.207A7.436,7.436,0,0,1,889,522.969s.429-11.555.75-11.991,0-2.929,0-2.929l.513-4.036s-.078-6.848.673-8.038a8.157,8.157,0,0,0,.827-3.3.847.847,0,0,1,.006-.117l1.145-1.372s11.082-.831,11.913,0a2.37,2.37,0,0,1,.405,1.252,28.421,28.421,0,0,1-.033,4.723s-.332,2.177-.807,4.394a9.6,9.6,0,0,0,0,4.036A12.063,12.063,0,0,0,904.827,510.225Z" transform="translate(-800.096 -441.621)"/><path class="l" d="M995.426,793.068c-.5.653-3.4.375-3.9.173-.3-.125-.279-.693-.2-1.28.051-.373.128-.75.159-1.03a9.456,9.456,0,0,0-.238-2.158s.654.692.811,0a.756.756,0,0,1,.565-.536,1.484,1.484,0,0,1,1.028.064c.513.223,1.372.7,1.218,1.342a3.778,3.778,0,0,0,.554,2.2,1,1,0,0,1,.144.249A.952.952,0,0,1,995.426,793.068Z" transform="translate(-891.387 -707.109)"/><path class="m" d="M995.644,824.607c-.5.653-3.4.375-3.9.172-.3-.125-.279-.693-.2-1.28a3.363,3.363,0,0,0,1.729.185,5.037,5.037,0,0,1,.623-.019,14.393,14.393,0,0,0,1.888-.037A.952.952,0,0,1,995.644,824.607Z" transform="translate(-891.606 -738.648)"/><path class="m" d="M914.651,576.358a24.794,24.794,0,0,1-.831,8.667,10.739,10.739,0,0,0-.594,4.235,1.306,1.306,0,0,1-1.077.207c.239-1.672,1.256-8.862,1.913-14.543A23.748,23.748,0,0,1,918.273,564l.692.762C917.064,565.75,914.651,576.358,914.651,576.358Z" transform="translate(-820.765 -506.961)"/><path class="n" d="M951.951,251.6l-.483,2.374-2.367,3.977-2.918-1.246s-3.966-4.155-1.474-4.749a2.186,2.186,0,0,0,.827-.369,1.7,1.7,0,0,0,.643-1.431,4.475,4.475,0,0,0-.405-1.7l5.1-1.608a8.156,8.156,0,0,0-.367,2.069,2.725,2.725,0,0,0,.9,2.4A1.548,1.548,0,0,0,951.951,251.6Z" transform="translate(-849.1 -223.803)"/><path class="m" d="M966.635,246.9a8.153,8.153,0,0,0-.367,2.069,3.723,3.723,0,0,1-.3.315,4.037,4.037,0,0,1-4.036.922,4.476,4.476,0,0,0-.405-1.7Z" transform="translate(-864.853 -223.848)"/><path class="n" d="M947.373,207.177a4.019,4.019,0,1,1-1.175-2.858A4.036,4.036,0,0,1,947.373,207.177Z" transform="translate(-845.005 -184.778)"/><path class="m" d="M951.951,288.889l-.483,2.374L949.1,295.24l-2.918-1.246s-3.966-4.155-1.474-4.749a2.185,2.185,0,0,0,.827-.369c-.45,1.238,1.408,3.812,1.408,3.812.214.322.713.118.713.118,1.2-.18,3.4-3.624,3.76-4.2A1.548,1.548,0,0,0,951.951,288.889Z" transform="translate(-849.1 -261.088)"/><path class="m" d="M928.249,492.5c-.7.16-4.59,1.021-6.065.806-1.622-.238-4.777-.4-4.777-.4a9.381,9.381,0,0,1-2.627-.174.856.856,0,0,1,.006-.117l1.145-1.372s11.082-.831,11.913,0A2.355,2.355,0,0,1,928.249,492.5Z" transform="translate(-823.113 -441.674)"/><path class="o" d="M897.974,293.154s-2.088-2.894-1.3-4.018l-3.527,1.446s-2.123-.257-2.894,2.911a5.479,5.479,0,0,0-.132,1.608,4.791,4.791,0,0,1-.581,2.407c-.871,1.742-.673,5.738,1.108,6.135a5.454,5.454,0,0,0,2.414.2s-.237,7.243-1.266,8.074,2.623.633,2.623.633,3.155.159,4.778.4,6.174-.831,6.174-.831-.673-3.048-.91-4.987-.792-6.068-.792-6.068l4.037-5.466s.712-3.3-1.781-4.768a28.119,28.119,0,0,0-3.43-1.822s-2.5,4.073-3.807,4.273C898.686,293.273,898.19,293.473,897.974,293.154Z" transform="translate(-800.129 -261.436)"/><path class="m" d="M923.613,338.47a5.955,5.955,0,0,0,.2,1.822c.237.516,1.108,3.364,1.108,3.364H922.94s1.072-1.148.989-1.7S923.613,338.47,923.613,338.47Z" transform="translate(-830.399 -305.604)"/><path class="n" d="M931.31,384.208s-4.371-1.072-4.778-1.98S925,379.282,925,379.282l.461-.622,2.126,1.669s2.533,2.018,3.72,2.216S931.31,384.208,931.31,384.208Z" transform="translate(-832.238 -341.486)"/><path class="p" d="M931.31,384.208s-4.371-1.072-4.778-1.98S925,379.282,925,379.282l.461-.622,2.126,1.669s2.533,2.018,3.72,2.216S931.31,384.208,931.31,384.208Z" transform="translate(-832.238 -341.486)"/><path class="n" d="M953.356,382.251v2.371h-.382a11.1,11.1,0,0,0-5.38,1.392l-.716.4-.192.107-1.227-2.763,1.148-1.029h.059a6.886,6.886,0,0,0,2.01-.045,3.254,3.254,0,0,1,2.535-.322c.71.181,1.315.976,2,.728Z" transform="translate(-850.505 -344.674)"/><path class="m" d="M982.973,319.737l.792.89v2.158s-.673,6.807-2.81,7.559-5.952-.436-5.952-.436-.986-2.612-.525-2.77,4.073-1.112,4.073-1.112-.05-3.994.741-5.181c0,0-.514-3.719,1.267-3.8S982.973,319.737,982.973,319.737Z" transform="translate(-876.303 -286.474)"/><path class="o" d="M984.046,319.737l.792.89v2.158s-.671,6.807-2.815,7.559-5.953-.436-5.953-.436-.985-2.612-.524-2.77,4.073-1.112,4.073-1.112-.051-3.994.741-5.181c0,0-.514-3.719,1.267-3.8S984.046,319.737,984.046,319.737Z" transform="translate(-877.258 -286.474)"/><path class="m" d="M953.14,208.9a1.571,1.571,0,0,0-.09-.771.6.6,0,0,0-.628-.362c-.339.079-.484.52-.817.626a.643.643,0,0,1-.718-.371,1.9,1.9,0,0,1-.138-.857v-.991a1.636,1.636,0,0,0-.234-1.031,1.818,1.818,0,0,0-1.357-.492,1.149,1.149,0,0,0-.775.313,1,1,0,0,1-.816.289.7.7,0,0,1-.568-.491v-.013a4.036,4.036,0,1,1,6,5.359A10.789,10.789,0,0,0,953.14,208.9Z" transform="translate(-851.88 -184.784)"/><path class="q" d="M938.868,184.6a.705.705,0,0,1-.568-.492c-.033-.128-.025-.264-.062-.391-.092-.311-.429-.473-.643-.708a1.592,1.592,0,0,1-.1-1.822,1.313,1.313,0,0,1,1.266-.757c.321.056.6.284.922.3a1.877,1.877,0,0,0,.882-.285,3.323,3.323,0,0,1,2.188-.194,1.272,1.272,0,0,1,.6.3,5.359,5.359,0,0,1,.321.451,2.509,2.509,0,0,0,1.618.669c.588.106,1.253.339,1.447.9a2.382,2.382,0,0,1-.07,1.173.339.339,0,0,0,.015.241c.092.152.321.089.5.125.334.07.42.5.429.84q.021.585.032,1.17a1.15,1.15,0,0,1-.372.979l-1.307,1.57a3.359,3.359,0,0,0-1.078,2.406.559.559,0,0,1-.69-.4,1.8,1.8,0,0,1,.043-.891,10.909,10.909,0,0,0,.207-1.546,1.571,1.571,0,0,0-.09-.771.591.591,0,0,0-.628-.363c-.339.079-.484.52-.817.626a.644.644,0,0,1-.718-.371,1.9,1.9,0,0,1-.138-.857v-.992a1.638,1.638,0,0,0-.234-1.031,1.818,1.818,0,0,0-1.357-.492,1.151,1.151,0,0,0-.775.313A1.017,1.017,0,0,1,938.868,184.6Z" transform="translate(-843.182 -164.251)"/><path class="m" d="M960.79,337.55l1.239,5.091S963.007,342.636,960.79,337.55Z" transform="translate(-864.192 -304.782)"/><path class="m" d="M990.837,329.61a8.149,8.149,0,0,0-.989,5.405l.3.022S989.61,333.765,990.837,329.61Z" transform="translate(-890.004 -297.693)"/><path class="m" d="M1009.9,468.753s1.992-.659,2.137.87C1012.037,469.624,1011.661,468.575,1009.9,468.753Z" transform="translate(-908.039 -421.797)"/><path class="m" d="M927.823,388s-.4,2.771.322,3.879a8.69,8.69,0,0,1-3.483.475L924.42,388Z" transform="translate(-831.72 -349.825)"/><path class="m" d="M946.879,390.535l-.192.107-1.227-2.763,1.148-1.029h.059A8.631,8.631,0,0,0,946.879,390.535Z" transform="translate(-850.505 -348.798)"/><path class="o" d="M918.3,386.85s-.4,2.77.322,3.878a8.689,8.689,0,0,1-3.483.475l-1.385-4.353Z" transform="translate(-822.194 -348.798)"/><path class="l" d="M846.067,790.549a.9.9,0,0,1-.768.784,27.97,27.97,0,0,0-4.317.881c-.831.4-4.116.119-4.274-.277a.628.628,0,0,1,.057-.476,1.275,1.275,0,0,1,.536-.571,1.322,1.322,0,0,1,.238-.107,5.2,5.2,0,0,0,2.1-1.1,13.375,13.375,0,0,0,1.871-1.964.953.953,0,0,1,.761-.474c.347-.016.733.159.891.919,0,0,1.9,1.084,2.413.133a5.208,5.208,0,0,0,.395,1.859h0A.53.53,0,0,1,846.067,790.549Z" transform="translate(-753.387 -706.275)"/><path class="m" d="M846.067,814.815a.9.9,0,0,1-.768.784,27.992,27.992,0,0,0-4.317.881c-.831.4-4.116.119-4.274-.276a.629.629,0,0,1,.057-.476,1.276,1.276,0,0,1,.536-.571c.536.356,1.724.7,4.34.295a19.082,19.082,0,0,0,4.331-1.031h0A.53.53,0,0,1,846.067,814.815Z" transform="translate(-753.387 -730.541)"/><g class="c" transform="translate(94.076 17.778)"><path d="M1024.906,206.649v-.019a3.658,3.658,0,0,0,.122-.9,5.726,5.726,0,0,1-.122.721A.441.441,0,0,0,1024.906,206.649Z" transform="translate(-1015.502 -204.868)"/><path d="M944.352,203.174a1.164,1.164,0,0,1,.1.452,1.349,1.349,0,0,0-.1-.63.591.591,0,0,0-.627-.363c-.339.079-.484.52-.817.626a.645.645,0,0,1-.719-.371,1.883,1.883,0,0,1-.137-.857v-.992a1.638,1.638,0,0,0-.234-1.031,1.819,1.819,0,0,0-1.357-.492,1.149,1.149,0,0,0-.775.313,1,1,0,0,1-.816.29.705.705,0,0,1-.568-.492c-.033-.128-.025-.264-.062-.391-.093-.311-.429-.473-.643-.708a1.286,1.286,0,0,1-.333-.837,1.349,1.349,0,0,0,.333,1.015c.223.236.554.4.643.71.037.126.029.263.062.39a.705.705,0,0,0,.568.492,1,1,0,0,0,.816-.29,1.149,1.149,0,0,1,.775-.313,1.828,1.828,0,0,1,1.357.492,1.648,1.648,0,0,1,.234,1.031v.992a1.807,1.807,0,0,0,.137.857.653.653,0,0,0,.719.371c.332-.107.478-.547.817-.626A.592.592,0,0,1,944.352,203.174Z" transform="translate(-937.259 -197.69)"/><path d="M1011,236.6a1.519,1.519,0,0,1-.337.544l-1.306,1.57a3.56,3.56,0,0,0-1.09,2.27,3.86,3.86,0,0,1,1.09-2.092l1.306-1.569a1.532,1.532,0,0,0,.337-.546,1.469,1.469,0,0,0,.034-.429A1.03,1.03,0,0,1,1011,236.6Z" transform="translate(-1000.658 -232.206)"/><path d="M1001.646,275.334a.937.937,0,0,1-.039-.214,1.069,1.069,0,0,0,.039.39.559.559,0,0,0,.691.4c-.008-.058-.012-.116-.014-.174A.553.553,0,0,1,1001.646,275.334Z" transform="translate(-994.707 -266.821)"/></g><path class="m" d="M879.26,795s.414.728,1.912.087" transform="translate(-791.4 -713.203)"/><path class="m" d="M997.5,796.67a2.287,2.287,0,0,0,2.922.5" transform="translate(-896.968 -714.694)"/><path class="m" d="M1024.743,628.7s-.914.571-.943.9.472-.238.472-.238Z" transform="translate(-920.448 -564.727)"/><path class="m" d="M1022.339,669.53a1.909,1.909,0,0,1-1.125.439c-.683.03-.626.921-.18.653A11.4,11.4,0,0,0,1022.339,669.53Z" transform="translate(-917.68 -601.181)"/><path class="m" d="M1030.974,674.86s-.438,2.154-.794,1.738" transform="translate(-926.145 -605.94)"/><path class="d" d="M182.768,768.36s.588.77-.272,1.929-1.57,2.144-1.286,2.868c0,0,1.3-2.159,2.358-2.189S183.931,769.658,182.768,768.36Z" transform="translate(-168.11 -689.418)"/><path class="m" d="M183.066,768.36a.924.924,0,0,1,.12.241c1.031,1.211,1.581,2.342.589,2.371-.923.026-2.036,1.677-2.3,2.094a.977.977,0,0,0,.031.094s1.3-2.159,2.358-2.189S184.229,769.658,183.066,768.36Z" transform="translate(-168.408 -689.418)"/><path class="r" d="M205.356,776.069c0,.271-.03.491-.068.491s-.069-.22-.069-.491.039-.143.076-.143S205.356,775.8,205.356,776.069Z" transform="translate(-189.604 -696.146)"/><path class="r" d="M206.123,778.986c-.238.13-.446.208-.464.176s.161-.165.4-.295.144-.035.162,0S206.361,778.857,206.123,778.986Z" transform="translate(-189.995 -698.74)"/><path class="d" d="M156.246,768.36s-.588.77.272,1.929,1.57,2.144,1.286,2.868c0,0-1.3-2.159-2.358-2.189S155.085,769.658,156.246,768.36Z" transform="translate(-144.698 -689.418)"/><path class="m" d="M156.227,768.36a.966.966,0,0,0-.12.241c-1.031,1.211-1.581,2.342-.589,2.371.924.026,2.036,1.677,2.3,2.094a.753.753,0,0,1-.031.094s-1.3-2.159-2.358-2.189S155.065,769.658,156.227,768.36Z" transform="translate(-144.679 -689.418)"/><path class="r" d="M157.05,776.069c0,.271.03.491.068.491s.069-.22.069-.491-.039-.143-.076-.143S157.05,775.8,157.05,776.069Z" transform="translate(-146.596 -696.146)"/><path class="r" d="M152.342,778.986c.238.13.445.208.463.176s-.161-.165-.4-.295-.144-.035-.162,0S152.1,778.857,152.342,778.986Z" transform="translate(-142.263 -698.74)"/><path class="s" d="M158.8,804.8a6.035,6.035,0,0,0,2.144-.4c.5-.354,2.532-.775,2.655-.208s2.474,2.818.615,2.833a15.715,15.715,0,0,1-4.813-.592C158.905,806.128,158.8,804.8,158.8,804.8Z" transform="translate(-148.159 -721.159)"/><path class="t" d="M164.246,814.216a15.716,15.716,0,0,1-4.813-.592c-.377-.229-.527-1.054-.578-1.434H158.8s.107,1.328.6,1.629a15.734,15.734,0,0,0,4.813.592c.536,0,.722-.2.712-.478C164.85,814.105,164.646,814.212,164.246,814.216Z" transform="translate(-148.159 -728.551)"/></g></svg>