<svg xmlns="http://www.w3.org/2000/svg" width="135.744" height="95.655" viewBox="0 0 135.744 95.655"><defs><style>.a{fill:#f2f2f2;}.b{fill:#3f3d56;}.c{fill:#6c63ff;}.d{fill:#e6e6e6;}.e{fill:#ff6584;}.f{fill:#ccc;}.g{fill:#ffb8b8;}.h{fill:#2f2e41;}.i{fill:#a0616a;}</style></defs><g transform="translate(0 0.003)"><path class="a" d="M259.886,170.075h-8.657a3.142,3.142,0,0,0-3.139,3.139V182.6c-.111-.007-.221-.017-.33-.03a11.069,11.069,0,1,1,12.076-12.825C259.854,169.853,259.871,169.964,259.886,170.075Z" transform="translate(-229.806 -160.495)"/><path class="b" d="M412.159,216.495H301.307a3.473,3.473,0,0,0-3.469,3.469v58.482a3.473,3.473,0,0,0,3.469,3.469H412.159a3.473,3.473,0,0,0,3.469-3.469V219.964a3.473,3.473,0,0,0-3.469-3.469Zm3.139,61.952a3.142,3.142,0,0,1-3.139,3.139H301.307a3.142,3.142,0,0,1-3.139-3.139V219.964a3.142,3.142,0,0,1,3.139-3.139H412.159a3.142,3.142,0,0,1,3.139,3.139Z" transform="translate(-279.884 -207.246)"/><path class="b" d="M450.952,272.2H351a.165.165,0,0,1,0-.33h99.949a.165.165,0,0,1,0,.33Z" transform="translate(-324.128 -253.469)"/><path class="b" d="M522,293.178a.165.165,0,0,1-.165-.165V238.66a.165.165,0,1,1,.33,0v54.352A.165.165,0,0,1,522,293.178Z" transform="translate(-466.878 -225.611)"/><path class="b" d="M673,293.178a.165.165,0,0,1-.165-.165V238.66a.165.165,0,0,1,.33,0v54.352A.165.165,0,0,1,673,293.178Z" transform="translate(-592.932 -225.611)"/><path class="b" d="M824,293.178a.165.165,0,0,1-.165-.165V238.66a.165.165,0,1,1,.33,0v54.352A.165.165,0,0,1,824,293.178Z" transform="translate(-718.987 -225.611)"/><path class="c" d="M391.494,333.573h-6.037a.744.744,0,0,1-.743-.743v-7.124a.744.744,0,0,1,.743-.743h6.036a.744.744,0,0,1,.743.743v7.124A.744.744,0,0,1,391.494,333.573Z" transform="translate(-352.408 -297.794)"/><path class="c" d="M443.494,456.573h-6.037a.744.744,0,0,1-.743-.743v-7.124a.744.744,0,0,1,.743-.743h6.037a.744.744,0,0,1,.743.743v7.124a.744.744,0,0,1-.743.743Z" transform="translate(-395.817 -400.474)"/><path class="c" d="M561.494,359.573h-6.037a.744.744,0,0,1-.743-.743v-7.124a.744.744,0,0,1,.743-.743h6.037a.744.744,0,0,1,.743.743v7.124A.744.744,0,0,1,561.494,359.573Z" transform="translate(-494.323 -319.499)"/><path class="c" d="M714.494,312.573h-6.036a.744.744,0,0,1-.743-.743v-7.124a.744.744,0,0,1,.743-.743h6.036a.744.744,0,0,1,.743.743v7.124A.744.744,0,0,1,714.494,312.573Z" transform="translate(-622.047 -280.264)"/><path class="c" d="M855.494,312.573h-6.037a.744.744,0,0,1-.743-.743v-7.124a.744.744,0,0,1,.743-.743h6.037a.744.744,0,0,1,.743.743v7.124A.744.744,0,0,1,855.494,312.573Z" transform="translate(-739.753 -280.264)"/><path class="d" d="M920.494,324.573h-6.036a.744.744,0,0,1-.744-.743v-7.124a.744.744,0,0,1,.744-.743h6.036a.744.744,0,0,1,.743.743v7.123A.744.744,0,0,1,920.494,324.573Z" transform="translate(-794.015 -290.281)"/><path class="d" d="M891.494,401.573h-6.037a.744.744,0,0,1-.743-.743v-7.124a.744.744,0,0,1,.743-.743h6.037a.744.744,0,0,1,.743.743v7.124A.744.744,0,0,1,891.494,401.573Z" transform="translate(-769.805 -354.561)"/><path class="e" d="M767.494,385.573h-6.037a.744.744,0,0,1-.743-.743v-7.124a.744.744,0,0,1,.743-.743h6.037a.744.744,0,0,1,.743.743v7.124A.744.744,0,0,1,767.494,385.573Z" transform="translate(-666.291 -341.204)"/><path class="d" d="M696.494,401.573h-6.036a.744.744,0,0,1-.743-.743v-7.124a.744.744,0,0,1,.743-.743h6.036a.744.744,0,0,1,.743.743v7.124A.744.744,0,0,1,696.494,401.573Z" transform="translate(-607.02 -354.561)"/><path class="d" d="M543.494,469.573h-6.037a.744.744,0,0,1-.743-.743v-7.124a.744.744,0,0,1,.743-.743h6.037a.744.744,0,0,1,.743.743v7.124A.744.744,0,0,1,543.494,469.573Z" transform="translate(-479.297 -411.327)"/><path class="e" d="M358.494,412.573h-6.037a.744.744,0,0,1-.743-.743v-7.124a.744.744,0,0,1,.743-.743h6.037a.744.744,0,0,1,.743.743v7.124A.744.744,0,0,1,358.494,412.573Z" transform="translate(-324.859 -363.743)"/><path class="d" d="M461.494,333.573h-6.036a.744.744,0,0,1-.743-.743v-7.124a.744.744,0,0,1,.743-.743h6.036a.744.744,0,0,1,.743.743v7.124A.744.744,0,0,1,461.494,333.573Z" transform="translate(-410.843 -297.794)"/><path class="f" d="M414.915,250.817H405.5a.661.661,0,0,1,0-1.322h9.417a.661.661,0,1,1,0,1.322Z" transform="translate(-369.207 -234.794)"/><path class="f" d="M575.915,250.817H566.5a.661.661,0,1,1,0-1.322h9.417a.661.661,0,0,1,0,1.322Z" transform="translate(-503.609 -234.794)"/><path class="f" d="M726.916,250.817H717.5a.661.661,0,0,1,0-1.322h9.417a.661.661,0,0,1,0,1.322Z" transform="translate(-629.663 -234.794)"/><path class="f" d="M867.915,250.817H858.5a.661.661,0,1,1,0-1.322h9.417a.661.661,0,0,1,0,1.322Z" transform="translate(-747.369 -234.794)"/><path class="g" d="M309.51,516.97a1.661,1.661,0,0,1-1.437-2.1l-4.235-3.942,2.239-.568,4.164,3.377a1.67,1.67,0,0,1-.731,3.236Z" transform="translate(-284.893 -452.56)"/><path class="g" d="M184.4,526.777h2.025l.963-7.812H184.4Z" transform="translate(-153.938 -433.232)"/><path class="h" d="M0,0H6.365V2.459H2.459A2.459,2.459,0,0,1,0,0H0Z" transform="translate(36.396 95.426) rotate(179.997)"/><path class="g" d="M100.345,519.254l1.957.521,2.941-7.3-2.889-.769Z" transform="translate(-83.767 -427.171)"/><path class="h" d="M0,0H6.365V2.459H2.459A2.459,2.459,0,0,1,0,0H0Z" transform="matrix(-0.966, -0.257, 0.257, -0.966, 21.826, 95.426)"/><path class="h" d="M304.154,535.95h-3.09a.781.781,0,0,1-.781-.709l-1.876-19.483a.619.619,0,0,0-1.21-.118l-5.447,18.205a.783.783,0,0,1-.942.536l-2.875-.719a.784.784,0,0,1-.569-.956c.047-.183,4.694-18.342,4.734-18.529,1.053-7.759,2.312-9.839,2.989-10.955.056-.092.107-.178.154-.258.058-.1.415-1.1.642-1.745a.791.791,0,0,1,.4-.492c2.843-1.454,6.17-.448,7.122-.1a.774.774,0,0,1,.386.3c2.855,4.307,1.454,29.322,1.144,34.293A.785.785,0,0,1,304.154,535.95Z" transform="translate(-271.12 -443.884)"/><circle class="g" cx="4.058" cy="4.058" r="4.058" transform="translate(21.002 34.602)"/><path class="f" d="M313.722,440.605l-.029-.028c-.055-.053-5.461-5.349-4.761-10.247.3-2.095,1.994-3.433,4.9-3.871a4.483,4.483,0,0,1,4.956,3.159l2.875,9.827Z" transform="translate(-289.092 -382.482)"/><path class="f" d="M298.814,460.535l-3.852-3.828a2.17,2.17,0,0,1-.575-2.047l1.865-7.586a1.711,1.711,0,1,1,3.3.891l-1.963,6.674,3.175,3.409Z" transform="translate(-276.952 -398.645)"/><path class="g" d="M408.155,444.028a1.661,1.661,0,0,1-2.459.666l-5.143,2.665.227-2.264,4.559-2.822a1.67,1.67,0,0,1,2.815,1.755Z" transform="translate(-365.63 -395.202)"/><path class="f" d="M356.711,437.355l-5.013,2.166a2.116,2.116,0,0,1-2.061-.221l-6.375-4.568A1.711,1.711,0,1,1,345.315,432l5.466,4.3,4.345-1.681Z" transform="translate(-317.207 -386.844)"/><path class="h" d="M295.59,370.413c.5-.627,1.436-.661,2.123-1.075a2.481,2.481,0,0,0,.983-2.763,3.467,3.467,0,0,0-2.128-2.174,5.871,5.871,0,0,0-3.108-.2,6.312,6.312,0,0,0-4,2.242,3.951,3.951,0,0,0-.327,4.4,6.121,6.121,0,0,1,1.152,1.8,2.782,2.782,0,0,1-1.134,2.453,25.757,25.757,0,0,0-2.386,2.168,3.306,3.306,0,0,0-.837,2.979,3.012,3.012,0,0,0,1.877,1.815,7.955,7.955,0,0,0,2.663.382,4.5,4.5,0,0,0,2.542-.476,2.956,2.956,0,0,0,1.242-2.4,5.683,5.683,0,0,0-.7-2.692,10.35,10.35,0,0,1-.707-1.517,2.126,2.126,0,0,1,.071-1.629,2.032,2.032,0,0,1,1.421-.941l.095-.016a1.222,1.222,0,0,0,1.046-1.425A1.194,1.194,0,0,1,295.59,370.413Z" transform="translate(-269.858 -330.453)"/><path class="i" d="M468.126,527.824H466.1l-.963-7.812h2.989Z" transform="translate(-388.294 -434.106)"/><path class="h" d="M449.784,563.8h3.906v2.459h-6.365A2.459,2.459,0,0,1,449.784,563.8Z" transform="translate(-373.425 -470.658)"/><path class="i" d="M542.044,517.505l-1.842.841-4.122-6.706L538.8,510.4Z" transform="translate(-447.516 -426.081)"/><path class="h" d="M2.459,0H6.365V2.459H0A2.459,2.459,0,0,1,2.459,0Z" transform="translate(88.891 93.362) rotate(-24.548)"/><path class="i" d="M712.084,528.2a1.661,1.661,0,0,0,.132-2.544l2.381-5.4-3.025.513-1.8,5.051a1.67,1.67,0,0,0,2.309,2.382Z" transform="translate(-623.455 -460.822)"/><path class="h" d="M652.743,565.432h-1.935a.746.746,0,0,1-.741-.69l-1.055-28.177a.743.743,0,0,1,.814-.794l11.19,1.188a.744.744,0,0,1,.671.726l.234,12.429a.577.577,0,0,0,.039.2l4.59,11.9a.743.743,0,0,1-.437.965l-1.961.722a.743.743,0,0,1-.918-.358L657.6,552.581a.742.742,0,0,1-.067-.189l-.963-4.641a.578.578,0,0,0-1.141.052l-1.943,16.97A.743.743,0,0,1,652.743,565.432Z" transform="translate(-573.041 -473.774)"/><circle class="i" cx="4.058" cy="4.058" r="4.058" transform="translate(76.608 32.645)"/><path class="c" d="M654.956,440.751a14.483,14.483,0,0,1-7.744-2.346l-.039-.027,0-.048,1.552-18.076a2.548,2.548,0,0,1,2.412-2.323c2.011-.092,4.713.024,6.16,1.1a7.053,7.053,0,0,1,2.89,6.726,66.523,66.523,0,0,0,.192,13.717l.007.06-.055.025A12.764,12.764,0,0,1,654.956,440.751Z" transform="translate(-571.507 -375.383)"/><path class="c" d="M712.491,460.6a.827.827,0,0,1-.608-.268L711,459.36a.83.83,0,0,1-.183-.792l2.024-6.85-3.079-6.467a1.455,1.455,0,0,1,2.6-1.316l4.179,6.78a1.974,1.974,0,0,1,.119,1.85l-3.4,7.544a.824.824,0,0,1-.622.476A.834.834,0,0,1,712.491,460.6Z" transform="translate(-623.634 -396.474)"/><path class="i" d="M550.452,454.2a1.661,1.661,0,0,0,2.478-.591l5.854.759-1.345-2.757-5.353-.3a1.67,1.67,0,0,0-1.634,2.887Z" transform="translate(-490.196 -403.164)"/><path class="c" d="M579.93,427.19a2.229,2.229,0,0,1-.3-.021l-9.21-1.277a.915.915,0,0,1-.7-.514.945.945,0,0,1-.053-.137h0a.92.92,0,0,1,.1-.732l.762-1.264a.923.923,0,0,1,.786-.444h0l8.028.009,6-5.372a1.625,1.625,0,0,1,2.227,2.365l-5.983,6.654A2.208,2.208,0,0,1,579.93,427.19Z" transform="translate(-506.769 -374.646)"/><path class="h" d="M651.065,357.6c.371-.858.685-2-.027-2.608a2.635,2.635,0,0,0-1.547-.4,4.76,4.76,0,0,1-3.835-2.158,2.855,2.855,0,0,1,1.076-3.92,4.592,4.592,0,0,1,3.022.152l2.975.844a5.247,5.247,0,0,1,2.448,1.19,3.365,3.365,0,0,1,.133,4.067,7.3,7.3,0,0,1-3.409,2.964Z" transform="translate(-569.938 -317.283)"/><path class="b" d="M311.328,737.517H189.359a.2.2,0,0,1,0-.393H311.328a.2.2,0,0,1,0,.393Z" transform="translate(-189.162 -641.864)"/></g></svg>