<svg xmlns="http://www.w3.org/2000/svg" width="135.744" height="81.476" viewBox="0 0 135.744 81.476"><defs><style>.a{opacity:0.5;}.b{fill:#f2f2f2;}.c{fill:#ccc;}.d{fill:#ffb8b8;}.e{fill:#2f2e41;}.f{fill:#6c63ff;}.g{fill:#e6e6e6;}.h{fill:#3f3d56;}.i{fill:#fff;}</style></defs><g class="a" transform="translate(0)"><path class="b" d="M227.011,238.078a8.539,8.539,0,1,1,8.539-8.539,8.539,8.539,0,0,1-8.539,8.539Zm0-16.722a8.183,8.183,0,1,0,8.183,8.183A8.183,8.183,0,0,0,227.011,221.356Z" transform="translate(-218.472 -221)"/><path class="b" d="M572.742,249.539a4.269,4.269,0,1,1,4.269-4.27A4.269,4.269,0,0,1,572.742,249.539Zm0-8.183a3.914,3.914,0,1,0,3.914,3.914A3.914,3.914,0,0,0,572.742,241.356Z" transform="translate(-506.208 -237.442)"/><path class="b" d="M739.275,361.606a4.8,4.8,0,1,1,4.8-4.8A4.8,4.8,0,0,1,739.275,361.606Zm0-9.251a4.447,4.447,0,1,0,4.448,4.447A4.447,4.447,0,0,0,739.275,352.356Z" transform="translate(-642.678 -328.696)"/><path class="c" d="M794.732,677.356H754.706a.178.178,0,1,1,0-.356h40.026a.178.178,0,0,1,0,.356Z" transform="translate(-659.166 -595.88)"/><circle class="d" cx="4.369" cy="4.369" r="4.369" transform="translate(109.647 18.523)"/><path class="d" d="M616.877,383.532l-2.065.7-3.688-7.632,3.048-1.035Z" transform="translate(-502.408 -308.755)"/><path class="e" d="M2.648,0H6.854V2.648H0A2.648,2.648,0,0,1,2.648,0Z" transform="translate(108.221 76.241) rotate(-18.76)"/><path class="d" d="M652.886,405.748l-2.178.109-1.459-8.35,3.215-.162Z" transform="translate(-533.75 -326.66)"/><path class="e" d="M2.648,0H6.854V2.648H0A2.648,2.648,0,0,1,2.648,0Z" transform="translate(112.725 78.787) rotate(-2.877)"/><path class="d" d="M801.422,469.194a1.789,1.789,0,0,0-.083-2.742l2.077-6.008-3.2.818-1.481,5.58a1.8,1.8,0,0,0,2.688,2.352Z" transform="translate(-695.248 -417.848)"/><path class="e" d="M829.481,522.938a.828.828,0,0,1-.084,0l-2.957-.313a.8.8,0,0,1-.711-.707l-2.285-20.371-1.654,5.574,3.083,10.955a.8.8,0,0,1-.679,1.012l-3,.345a.8.8,0,0,1-.865-.59l-3.275-12.329a.8.8,0,0,1-.02-.311l1.472-11.065,10.979.88.794,26.1a.8.8,0,0,1-.8.825Z" transform="translate(-710.548 -446.367)"/><path class="f" d="M827.943,405.238a28.885,28.885,0,0,1-8.095-1.508l-.073-.025,4.149-21.291.076,0c1.644.067,6.132.1,6.177.1h.081l1.73,18.789.309,2.748-.038.031A6.9,6.9,0,0,1,827.943,405.238Z" transform="translate(-712.806 -353.698)"/><path class="e" d="M816.342,402.755l-2.6-1.045,1.323-16a2.643,2.643,0,0,1,1.152-1.975l1.366-.929h0a.866.866,0,0,1,.859-1.11l.391.013a.445.445,0,0,1,.681.473l-.086,1.7Z" transform="translate(-707.85 -353.056)"/><path class="e" d="M805.314,413.467l-3.389-.143,1.1-7.061.91-6.644a1.588,1.588,0,0,1,2.06-1.4h0a1.586,1.586,0,0,1,1.1,1.716l-.921,7.2Z" transform="translate(-698.131 -366.636)"/><path class="e" d="M848.872,402.027l-.023-.071a16.583,16.583,0,0,1,1.012-10.793l1.281-6.373,1.1-4a.478.478,0,0,1,.29-.315.441.441,0,0,1,.471.121h0a3.06,3.06,0,0,1,2.288.229l1.538.81a1.746,1.746,0,0,1,.886,1.943l-2.1,8.97,1.022,8.378Z" transform="translate(-736.323 -352.083)"/><path class="d" d="M856.248,453.615a1.789,1.789,0,0,0,1.978-1.9l4.76-3.526-1.664-.789-5.133,2.644a1.8,1.8,0,0,0,.059,3.572Z" transform="translate(-741.462 -407.124)"/><path class="e" d="M873.062,403.169l-1.608-3,3.965-2.609-1.935-6.94A2.1,2.1,0,0,1,875.091,388h0a2.1,2.1,0,0,1,2.4,1.381l2.611,7.674a.8.8,0,0,1-.269.892Z" transform="translate(-755.291 -358.256)"/><path class="e" d="M836.263,321.705c-.524.068-.919-.468-1.1-.963s-.323-1.072-.778-1.34c-.622-.366-1.418.074-2.13-.047a1.866,1.866,0,0,1-1.367-1.8,5.454,5.454,0,0,1,.6-2.347l.111.933a1.85,1.85,0,0,1,.808-1.617l-.143,1.368a1.452,1.452,0,0,1,1.671-1.2l-.023.815a13.465,13.465,0,0,1,2.795-.137,4.037,4.037,0,0,1,3.885,4.81,12.02,12.02,0,0,1-1.3,3.963c-.151.318-.359.676-.708.717a.714.714,0,0,1-.7-.527,1.909,1.909,0,0,1,.008-.938,3.989,3.989,0,0,0,.117-1.419,1.157,1.157,0,0,0-.9-.992c-.474-.058-.959.484-.731.9Z" transform="translate(-721.937 -297.886)"/><path class="g" d="M440.927,581.866l-1.7-.716-1.167-8.526H422.523l-1.265,8.491-1.522.761a.361.361,0,0,0,.162.685h20.89a.361.361,0,0,0,.14-.694Z" transform="translate(-383.768 -510.071)"/><path class="c" d="M335.3,522.275H258.981a1.512,1.512,0,0,1-1.509-1.512V510h79.341v10.763A1.512,1.512,0,0,1,335.3,522.275Z" transform="translate(-250.534 -458.588)"/><path class="h" d="M336.571,317.354H257.08V271.3a1.825,1.825,0,0,1,1.823-1.823h75.845a1.825,1.825,0,0,1,1.823,1.823Z" transform="translate(-250.211 -260.856)"/><path class="i" d="M347.269,329.457h-70a1.407,1.407,0,0,1-1.405-1.405V289.673a1.407,1.407,0,0,1,1.405-1.405h70a1.407,1.407,0,0,1,1.405,1.405v38.379a1.407,1.407,0,0,1-1.405,1.405Z" transform="translate(-265.657 -276.301)"/><path class="c" d="M359.484,627.336H291.706a.178.178,0,1,1,0-.356h67.778a.178.178,0,1,1,0,.356Z" transform="translate(-278.531 -554.758)"/><path class="h" d="M376.754,365.448H319.91a.178.178,0,0,1-.178-.178V338.025a.178.178,0,0,1,.356,0v27.067h56.666a.178.178,0,0,1,0,.356Z" transform="translate(-301.718 -317.06)"/><path class="f" d="M362.67,444.183H357.5a.529.529,0,0,1-.528-.528v-7.127A.529.529,0,0,1,357.5,436h5.17a.529.529,0,0,1,.528.528v7.127a.529.529,0,0,1-.528.528Z" transform="translate(-332.333 -397.752)"/><path class="f" d="M415.67,412.943H410.5a.529.529,0,0,1-.528-.528V398.528A.529.529,0,0,1,410.5,398h5.17a.529.529,0,0,1,.528.528v13.887A.529.529,0,0,1,415.67,412.943Z" transform="translate(-375.904 -366.512)"/><path class="f" d="M468.67,444.183H463.5a.529.529,0,0,1-.528-.528v-7.127A.529.529,0,0,1,463.5,436h5.17a.529.529,0,0,1,.528.528v7.127A.529.529,0,0,1,468.67,444.183Z" transform="translate(-419.476 -397.752)"/><path class="f" d="M521.67,400.611H516.5a.517.517,0,0,1-.528-.5V383.5a.517.517,0,0,1,.528-.5h5.17a.517.517,0,0,1,.528.5v16.6A.517.517,0,0,1,521.67,400.611Z" transform="translate(-463.047 -354.18)"/><path class="f" d="M574.67,378.415H569.5a.529.529,0,0,1-.528-.528V356.528A.529.529,0,0,1,569.5,356h5.17a.529.529,0,0,1,.528.528v21.359A.529.529,0,0,1,574.67,378.415Z" transform="translate(-506.619 -331.984)"/><circle class="h" cx="1.049" cy="1.049" r="1.049" transform="translate(26.57 34.261)"/><circle class="h" cx="1.049" cy="1.049" r="1.049" transform="translate(36.359 27.269)"/><circle class="h" cx="1.049" cy="1.049" r="1.049" transform="translate(45.449 34.261)"/><circle class="h" cx="1.049" cy="1.049" r="1.049" transform="translate(55.237 23.773)"/><circle class="h" cx="1.049" cy="1.049" r="1.049" transform="translate(64.327 19.578)"/><path class="h" d="M174.386,131.239l-9.451-7.079-9.322,6.982-.213-.285,9.535-7.142,9.406,7.045,9.347-10.229.038-.015,9.428-3.8.133.33-9.391,3.784Z" transform="translate(-127.755 -95.954)"/></g></svg>