<svg xmlns="http://www.w3.org/2000/svg" width="113.544" height="88.66" viewBox="0 0 113.544 88.66"><defs><style>.a{opacity:0.5;}.b{fill:#ffb8b8;}.c{fill:#456efe;}.d{fill:#2f2e41;}.e{opacity:0.2;}.f{fill:#e6e6e6;}.g{fill:#fff;}</style></defs><g class="a"><path class="b" d="M608.1,514.986h0a2.614,2.614,0,0,1-4.1-.7l-2.418-4.643.962-2.084,5.184,3.318a2.614,2.614,0,0,1,.377,4.111Z" transform="translate(-544.551 -453.998)"/><path class="c" d="M468.113,349.351l-19.822-10.3a.726.726,0,0,1-.37-.469l-4.3-17.33a4.16,4.16,0,0,1,2.663-4.928l1.036-.363a1.788,1.788,0,0,1,2.313,1.209l4.238,15.257a.725.725,0,0,0,.236.365l16.151,13.382a.726.726,0,0,1,.136.969l-1.348,1.97a.726.726,0,0,1-.933.234Z" transform="translate(-411.819 -293.042)"/><path class="b" d="M70.15,426.93l-8.5-2.084.481-4.81,8.5,3.848Z" transform="translate(-51.767 -352.687)"/><path class="d" d="M356.04,202.87c-9.614-5.061-19.678-7.6-30.464-6.093,3.251-5.511,5.666-10.605,5.5-14.419a7.507,7.507,0,0,1,2.945-6.4,9.114,9.114,0,0,1,5.432-1.793h0a7.464,7.464,0,0,1,5.528-.22,5.813,5.813,0,0,1,3.372,3.339,5.289,5.289,0,0,0,2.314,2.366,6.494,6.494,0,0,1,2.506,2.618,4.3,4.3,0,0,1-.183,4.564C356.717,190.747,356.728,196.623,356.04,202.87Z" transform="translate(-312.805 -173.522)"/><path class="d" d="M319.47,540.918h0a4.785,4.785,0,0,1-5.377,1.409c-7.07.654-12.8-4.323-18.936-9.048l1.443-3.848-12.025-8.5,5.131-3.207,11.063-4.169,18.615,21.135A4.785,4.785,0,0,1,319.47,540.918Z" transform="translate(-278.378 -459.037)"/><circle class="b" cx="6.734" cy="6.734" r="6.734" transform="translate(22.873 3.212)"/><path class="b" d="M409.433,267.781l-7.857.8c.422-4.594.588-8.832,0-12.025h7.857C407.94,261.641,408.071,265.264,409.433,267.781Z" transform="translate(-376.619 -243.243)"/><path class="c" d="M321.4,314.333l-12.827-6.895c4.626-5.363,6.582-13.735,7.493-23.286.154-1.615,1.389-1.56,3.009-1.647,1.71-.092,3.391-1,4.89-.08l4.329,4.81,2.084-2.245,4.1,1.755a1.885,1.885,0,0,1,1.073,2.239c-.076,7.725-1.012,14.515-5.009,17.973l-3.367,3.527Z" transform="translate(-298.53 -264.622)"/><path class="e" d="M366.771,626.131s-6.118-5.7-10.274-5.418" transform="translate(-338.768 -549.002)"/><path class="b" d="M80.339,448.093l-1.452,8.629-4.833-.125,1.94-9.062Z" transform="translate(-62.181 -375.778)"/><path class="d" d="M324.035,679.523h0a2.642,2.642,0,0,1-.906-.131l-7.8-.656a3.671,3.671,0,0,1-1.851-4.559l.872-3.058a4.192,4.192,0,0,0,4.89-.561l6.9,4.832a2.643,2.643,0,0,1-2.1,4.133Z" transform="translate(-302.462 -590.864)"/><path class="d" d="M259.912,597.683h0a2.642,2.642,0,0,1,.131-.906l.656-7.8a3.671,3.671,0,0,1,4.559-1.851l3.058.872a4.192,4.192,0,0,0,.561,4.89l-4.832,6.9a2.643,2.643,0,0,1-4.133-2.1Z" transform="translate(-257.668 -520.624)"/><path class="d" d="M264.467,463.6l-5.612-.321.16-9.781-3.816.22a8.71,8.71,0,0,1-9.134-10.166q.031-.17.069-.342a10.562,10.562,0,0,1,4.342-6.363l5.813-4.033,4.73,2,3.748-2.012a6.5,6.5,0,0,1,6.363.728h0a6.5,6.5,0,0,1,2.221,7.656Z" transform="translate(-245.924 -390.803)"/><path class="e" d="M329.675,513.557s-2.565,5.131-2.245,8.177" transform="translate(-314.339 -459.036)"/><path class="e" d="M155.152,179.535l1.4,6.446,8.536,7.343-7.536-7.7Z" transform="translate(-130.275 -150.748)"/><path class="e" d="M106.152,198.535l2.565,10.422,7.536,2.726-7.055-3.527Z" transform="translate(-89.132 -166.702)"/><path class="d" d="M399.629,196.074c-4.963-2.283-10.575-2.935-15.553-.481l.641-5.772,10.9-1.764Z" transform="translate(-361.925 -185.726)"/><path class="f" d="M521.878,526.057a.8.8,0,0,0-.8.8v29.823a.8.8,0,0,0,.8.8H589.7a.8.8,0,0,0,.8-.8V526.859a.8.8,0,0,0-.8-.8Z" transform="translate(-476.958 -469.532)"/><path class="g" d="M526.458,530.557a.883.883,0,0,0-.882.882v28.22a.883.883,0,0,0,.882.882h66.22a.883.883,0,0,0,.882-.882v-28.22a.883.883,0,0,0-.882-.882Z" transform="translate(-480.737 -473.31)"/><path class="b" d="M506.1,484.986h0a2.614,2.614,0,0,1-4.1-.7l-2.418-4.643.962-2.084,5.184,3.318a2.614,2.614,0,0,1,.377,4.111Z" transform="translate(-458.906 -428.808)"/><path class="c" d="M366.113,319.351l-19.822-10.3a.726.726,0,0,1-.37-.469l-4.3-17.33a4.16,4.16,0,0,1,2.663-4.928l1.036-.363a1.788,1.788,0,0,1,2.313,1.209l4.238,15.257a.725.725,0,0,0,.236.365l16.151,13.382a.726.726,0,0,1,.136.969l-1.348,1.97A.726.726,0,0,1,366.113,319.351Z" transform="translate(-326.173 -267.852)"/><circle class="c" cx="4.689" cy="4.689" r="4.689" transform="translate(52.387 61.806)"/><path class="f" d="M665.342,568.744a.781.781,0,0,0,0,1.563h36.841a.781.781,0,0,0,0-1.563Z" transform="translate(-597.437 -505.375)"/><path class="f" d="M665.342,597.987a.781.781,0,0,0,0,1.563h15.853a.781.781,0,0,0,0-1.563Z" transform="translate(-597.437 -529.929)"/><path class="f" d="M573.82,644.739c-.594,0-1.078.351-1.078.781s.484.781,1.078.781h50.829c.594,0,1.078-.351,1.078-.781s-.484-.781-1.078-.781Z" transform="translate(-520.34 -569.185)"/><path class="f" d="M573.82,673.982c-.594,0-1.078.351-1.078.781s.484.781,1.078.781h50.829c.594,0,1.078-.351,1.078-.781s-.484-.781-1.078-.781Z" transform="translate(-520.34 -593.739)"/></g></svg>