<svg xmlns="http://www.w3.org/2000/svg" width="132.066" height="69.107" viewBox="0 0 132.066 69.107"><defs><style>.a{opacity:0.6;}.b{fill:#a0616a;}.c{fill:#ccc;}.d{fill:#2f2e41;}.e{fill:#3f3d56;}.f{fill:#6c63ff;}.g{fill:#fff;}</style></defs><g class="a" transform="translate(0 0)"><g transform="translate(107.576 0)"><path class="b" d="M983.247,387.926a1.6,1.6,0,0,1-.423-2.419l-1.67-12.206,3.478.171.546,11.905a1.61,1.61,0,0,1-1.932,2.548Z" transform="translate(-962.486 -350.865)"/><path class="c" d="M967.645,328.479a.654.654,0,0,1-.266.188l-3.126,1.193a.657.657,0,0,1-.834-.347l-2.769-6.223a2.6,2.6,0,0,1-.127-1.84,2.529,2.529,0,0,1,1.925-1.726,2.412,2.412,0,0,1,1.039.015,2.519,2.519,0,0,1,1.811,1.574l2.462,6.508A.658.658,0,0,1,967.645,328.479Z" transform="translate(-945.02 -305.709)"/><path class="b" d="M887.369,609.787h-2.163l-.784-8.382,2.947.039Z" transform="translate(-881.035 -542.934)"/><path class="d" d="M865.608,650.551h4.171v2.626h-6.8a2.626,2.626,0,0,1,2.626-2.626Z" transform="translate(-862.981 -584.316)"/><path class="b" d="M949.721,610h-2.163l-1.029-8.342h3.192Z" transform="translate(-933.331 -543.144)"/><path class="d" d="M929.262,650.551h4.17v2.626h-6.8a2.626,2.626,0,0,1,2.626-2.626Z" transform="translate(-916.579 -584.316)"/><path class="d" d="M894.3,470.341l-3.4-.251a.8.8,0,0,1-.735-.753l-.757-15.653a.617.617,0,0,0-1.222-.095l-3.159,15.42a.8.8,0,0,1-.841.632l-3.071-.246a.794.794,0,0,1-.728-.854v-.016l2.849-28.487a.794.794,0,0,1,.959-.7L895.03,441.7a.8.8,0,0,1,.625.79l-.5,27.078a.794.794,0,0,1-.792.779Z" transform="translate(-877.637 -406.457)"/><circle class="b" cx="4.333" cy="4.333" r="4.333" transform="translate(9.357 1.098)"/><path class="c" d="M900.223,326.363a3.875,3.875,0,0,1-1.287-2.975c0-6.228,5.391-20.141,5.559-20.575.016-.1.158-.15.9-.654a3.925,3.925,0,0,1,3.2-.23.79.79,0,0,1,.573.585l.256.37a.616.616,0,0,0,.359.424c1.11.468,4.639,2.625,3.437,10.742-1.117,7.54-1.57,11.974-1.713,13.532a.792.792,0,0,1-.718.717c-.544.049-1.479.114-2.591.114C905.622,328.413,902.084,328.065,900.223,326.363Z" transform="translate(-893.255 -290.585)"/><path class="b" d="M873.44,372.207a1.6,1.6,0,0,1,1-2.244l5.415-11.065,2.793,2.08-6.18,10.19a1.61,1.61,0,0,1-3.024,1.04Z" transform="translate(-871.651 -338.735)"/><path class="c" d="M912.686,319.372a.653.653,0,0,1-.325.008l-3.26-.751a.657.657,0,0,1-.5-.753l1.169-6.71a2.6,2.6,0,0,1,.92-1.6,2.529,2.529,0,0,1,2.56-.36,2.412,2.412,0,0,1,.855.591,2.519,2.519,0,0,1,.626,2.316l-1.583,6.776A.658.658,0,0,1,912.686,319.372Z" transform="translate(-901.386 -296.729)"/><path class="d" d="M919.946,240.615a1.867,1.867,0,0,1-.5-1.656c.151-.79.24-1.307.257-1.5h0c.057-.643-.593-1.164-1.237-1.248l-.063-.007.049.047c.122.115.274.258.238.405-.022.089-.1.152-.248.192a2.1,2.1,0,0,1-2.44-.814,1.945,1.945,0,0,1-.371-.811,3.222,3.222,0,0,1,.961-2.765,3.346,3.346,0,0,1,2.187-1.191,1.919,1.919,0,0,1,1.9,1.16,1.44,1.44,0,0,1,1.122-.632,2.586,2.586,0,0,1,1.439.4,4.8,4.8,0,0,1-1.7,8.937,1.835,1.835,0,0,1-.306.026,1.785,1.785,0,0,1-1.283-.548Z" transform="translate(-907.27 -231.269)"/></g><path class="e" d="M416.663,422.924a1.2,1.2,0,0,0-1.1-.735H393.65a1.189,1.189,0,0,0-1.188,1.188V451.1a1.189,1.189,0,0,0,1.188,1.188h21.916a1.19,1.19,0,0,0,1.188-1.188V423.377a1.166,1.166,0,0,0-.09-.453Zm-.174,28.177a.925.925,0,0,1-.924.924H393.65a.924.924,0,0,1-.924-.924V423.377a.925.925,0,0,1,.924-.924h21.916a.929.929,0,0,1,.858.581,1.025,1.025,0,0,1,.035.1.917.917,0,0,1,.032.239Z" transform="translate(-359.215 -392.029)"/><path class="e" d="M478.707,457.994h-6.6a.528.528,0,1,1,0-1.056h6.6a.528.528,0,1,1,0,1.056Z" transform="translate(-425.833 -421.288)"/><path class="e" d="M478.707,475.544h-6.6a.528.528,0,0,1,0-1.056h6.6a.528.528,0,0,1,0,1.056Z" transform="translate(-425.833 -436.066)"/><path class="f" d="M424.6,454.49h-4.824a.6.6,0,0,1-.594-.594V448.2a.6.6,0,0,1,.594-.594H424.6a.6.6,0,0,1,.594.594V453.9a.6.6,0,0,1-.594.594Z" transform="translate(-381.715 -413.433)"/><path class="c" d="M434.084,511.48H419.166a.528.528,0,0,1,0-1.056h14.918a.528.528,0,1,1,0,1.056Z" transform="translate(-381.256 -466.325)"/><path class="c" d="M434.084,529.03H419.166a.528.528,0,0,1,0-1.056h14.918a.528.528,0,1,1,0,1.056Z" transform="translate(-381.256 -481.103)"/><path class="c" d="M434.084,546.58H419.166a.528.528,0,0,1,0-1.056h14.918a.528.528,0,1,1,0,1.056Z" transform="translate(-381.256 -495.88)"/><path class="c" d="M434.084,564.13H419.166a.528.528,0,0,1,0-1.056h14.918a.528.528,0,1,1,0,1.056Z" transform="translate(-381.256 -510.658)"/><path class="c" d="M434.084,581.68H419.166a.528.528,0,0,1,0-1.056h14.918a.528.528,0,1,1,0,1.056Z" transform="translate(-381.256 -525.435)"/><path class="e" d="M821.16,667.047h30.8a.158.158,0,1,0,0-.316h-30.8a.158.158,0,0,0,0,.316Z" transform="translate(-720.057 -597.94)"/><circle class="f" cx="5.097" cy="5.097" r="5.097" transform="translate(40.667 13.287)"/><path class="g" d="M459.276,339.288a.529.529,0,0,1-.318-.106l-.006,0-1.2-.916a.532.532,0,0,1,.648-.845l.776.595,1.833-2.392a.532.532,0,0,1,.746-.1h0l-.011.016.012-.016a.533.533,0,0,1,.1.746L459.7,339.08a.532.532,0,0,1-.423.208Z" transform="translate(-414.017 -318.96)"/><circle class="c" cx="3.454" cy="3.454" r="3.454" transform="translate(8.757 9.148)"/><path class="g" d="M250.878,305.381a.358.358,0,0,1-.215-.072l0,0-.812-.621a.361.361,0,1,1,.439-.573l.526.4,1.242-1.62a.361.361,0,0,1,.505-.067h0l-.008.01.008-.01a.361.361,0,0,1,.067.505l-1.461,1.906a.361.361,0,0,1-.287.141Z" transform="translate(-239.01 -291.462)"/><path class="c" d="M219.226,359.221a.945.945,0,0,0-.864-.578H201.118a.935.935,0,0,0-.935.935v21.815a.935.935,0,0,0,.935.935h17.244a.936.936,0,0,0,.935-.935V359.578A.918.918,0,0,0,219.226,359.221Zm-.137,22.172a.728.728,0,0,1-.727.727H201.118a.727.727,0,0,1-.727-.727h0V359.578a.728.728,0,0,1,.727-.727h17.244a.731.731,0,0,1,.675.458.811.811,0,0,1,.027.082.72.72,0,0,1,.025.188Z" transform="translate(-197.31 -338.521)"/><path class="c" d="M268.045,386.817h-5.194a.416.416,0,0,1,0-.831h5.194a.416.416,0,1,1,0,.831Z" transform="translate(-249.729 -361.545)"/><path class="c" d="M268.045,400.627h-5.194a.416.416,0,0,1,0-.831h5.194a.416.416,0,1,1,0,.831Z" transform="translate(-249.729 -373.173)"/><path class="c" d="M225.471,384.061h-3.8a.468.468,0,0,1-.467-.467v-4.479a.468.468,0,0,1,.467-.467h3.8a.468.468,0,0,1,.467.467v4.479A.468.468,0,0,1,225.471,384.061Z" transform="translate(-215.014 -355.365)"/><path class="c" d="M232.934,428.9H221.2a.416.416,0,0,1,0-.831h11.738a.416.416,0,0,1,0,.831Z" transform="translate(-214.653 -396.982)"/><path class="c" d="M232.934,442.717H221.2a.416.416,0,1,1,0-.831h11.738a.416.416,0,1,1,0,.831Z" transform="translate(-214.653 -408.614)"/><path class="c" d="M232.934,456.522H221.2a.416.416,0,0,1,0-.831h11.738a.416.416,0,1,1,0,.831Z" transform="translate(-214.653 -420.238)"/><path class="c" d="M232.934,470.335H221.2a.416.416,0,1,1,0-.831h11.738a.416.416,0,1,1,0,.831Z" transform="translate(-214.653 -431.869)"/><path class="c" d="M232.934,484.141H221.2a.416.416,0,0,1,0-.831h11.738a.416.416,0,1,1,0,.831Z" transform="translate(-214.653 -443.494)"/><path class="c" d="M182.123,507.822h24.238a.124.124,0,1,0,0-.249H182.123a.124.124,0,1,0,0,.249Z" transform="translate(-181.998 -463.924)"/><circle class="c" cx="3.454" cy="3.454" r="3.454" transform="translate(75.105 9.148)"/><path class="g" d="M670.878,305.381a.358.358,0,0,1-.215-.072l0,0-.812-.621a.361.361,0,1,1,.439-.573l.526.4,1.242-1.62a.36.36,0,0,1,.505-.067h0l-.008.01.008-.01a.361.361,0,0,1,.067.505l-1.461,1.906a.361.361,0,0,1-.287.141Z" transform="translate(-592.662 -291.462)"/><path class="c" d="M639.226,359.221a.945.945,0,0,0-.864-.578H621.118a.935.935,0,0,0-.935.935v21.815a.935.935,0,0,0,.935.935h17.244a.936.936,0,0,0,.935-.935V359.578A.92.92,0,0,0,639.226,359.221Zm-.137,22.172a.728.728,0,0,1-.727.727H621.118a.727.727,0,0,1-.727-.727h0V359.578a.728.728,0,0,1,.727-.727h17.244a.731.731,0,0,1,.675.458.823.823,0,0,1,.027.082.722.722,0,0,1,.025.188Z" transform="translate(-550.962 -338.521)"/><path class="c" d="M688.045,386.817h-5.194a.416.416,0,0,1,0-.831h5.194a.416.416,0,0,1,0,.831Z" transform="translate(-603.38 -361.545)"/><path class="c" d="M688.045,400.627h-5.194a.416.416,0,0,1,0-.831h5.194a.416.416,0,0,1,0,.831Z" transform="translate(-603.38 -373.173)"/><path class="c" d="M645.471,384.061h-3.8a.468.468,0,0,1-.467-.467v-4.479a.468.468,0,0,1,.467-.467h3.8a.468.468,0,0,1,.468.467v4.479A.468.468,0,0,1,645.471,384.061Z" transform="translate(-568.666 -355.365)"/><path class="c" d="M652.934,428.9H641.2a.416.416,0,0,1,0-.831h11.739a.416.416,0,0,1,0,.831Z" transform="translate(-568.305 -396.982)"/><path class="c" d="M652.934,442.717H641.2a.416.416,0,0,1,0-.831h11.739a.416.416,0,0,1,0,.831Z" transform="translate(-568.305 -408.614)"/><path class="c" d="M652.934,456.522H641.2a.416.416,0,0,1,0-.831h11.739a.416.416,0,0,1,0,.831Z" transform="translate(-568.305 -420.238)"/><path class="c" d="M652.934,470.335H641.2a.416.416,0,0,1,0-.831h11.739a.416.416,0,0,1,0,.831Z" transform="translate(-568.305 -431.869)"/><path class="c" d="M652.934,484.141H641.2a.416.416,0,0,1,0-.831h11.739a.416.416,0,0,1,0,.831Z" transform="translate(-568.305 -443.494)"/><path class="c" d="M602.122,507.822h24.238a.124.124,0,1,0,0-.249H602.122a.124.124,0,0,0,0,.249Z" transform="translate(-535.649 -463.924)"/><path class="e" d="M370.16,611.644h30.8a.158.158,0,1,0,0-.316h-30.8a.158.158,0,1,0,0,.316Z" transform="translate(-340.303 -551.289)"/></g></svg>