<svg xmlns="http://www.w3.org/2000/svg" width="123.919" height="67.094" viewBox="0 0 123.919 67.094"><defs><style>.a{fill:#f2f2f2;}.b{fill:#6c63ff;}.c{fill:#fff;}.d{fill:#3f3d56;}.e{fill:#ffb8b8;}.f{fill:#2f2e41;}.g{opacity:0.2;}</style></defs><g transform="translate(0)"><path class="a" d="M281.263,462.151v.146a5.046,5.046,0,0,1-5.046,5.045H219.255a5.045,5.045,0,0,1-5.045-5.044v-.146Z" transform="translate(-214.018 -426.656)"/><path class="b" d="M244.257,284.456a7.218,7.218,0,0,1-8.457-5.088l.287-.051A7.2,7.2,0,0,1,244.257,284.456Z" transform="translate(-232.152 -272.978)"/><path class="a" d="M904.439,563.027a1.907,1.907,0,1,1,2.615-2.178l-1.111-7.944c-.255-1.826-.46-3.868.644-5.346a4.16,4.16,0,0,1,4.674-1.231,5.724,5.724,0,0,1,3.327,3.732,9.334,9.334,0,0,1-.055,5.113,26.275,26.275,0,0,1-1.96,4.786c-.781,1.588-1.729,3.308-3.4,3.893C907.578,564.41,904.439,563.027,904.439,563.027Z" transform="translate(-792.834 -497.14)"/><path class="c" d="M932.3,545.2a21.659,21.659,0,0,1,1.028,7.052,22.254,22.254,0,0,1-1.267,6.984,21.229,21.229,0,0,1-1.708,3.666.24.24,0,0,0,.415.242,22.08,22.08,0,0,0,2.585-6.777,22.658,22.658,0,0,0,.29-7.286,21.892,21.892,0,0,0-.881-4.009C932.671,544.779,932.207,544.9,932.3,545.2Z" transform="translate(-815.48 -496.161)"/><path class="c" d="M905.316,631.55l3.8,3.995c.214.224.553-.116.34-.34l-3.8-3.995C905.442,630.986,905.1,631.326,905.316,631.55Z" transform="translate(-794.417 -568.587)"/><path class="d" d="M850.17,498.561a.562.562,0,0,1-.369-.137,26.422,26.422,0,0,1-6.19-5.605.566.566,0,0,1-.03-.791l1.152-1.273.237.215-1.152,1.272a.246.246,0,0,0,.017.347l.017.018a26.1,26.1,0,0,0,6.132,5.553l.021.016a.246.246,0,0,0,.347-.017l2.248-2.483a.246.246,0,0,0-.005-.336c-.521-.284-1.029-.593-1.511-.92l.18-.265c.479.325.985.632,1.5.914l.031.022a.566.566,0,0,1,.04.8l-2.248,2.483a.563.563,0,0,1-.392.185Z" transform="translate(-742.5 -450.681)"/><path class="b" d="M864.867,505.034c.706.639,1.431.989,1.62.781a.261.261,0,0,0,.029-.245,1.878,1.878,0,0,0-.36-.642q-.941-.67-1.83-1.446c-.186-.061-.328-.059-.4.018a.146.146,0,0,0-.024.037C863.786,503.779,864.2,504.428,864.867,505.034Z" transform="translate(-759.676 -461.335)"/><path class="d" d="M843.436,465.111a.554.554,0,0,0,.176.383,27.743,27.743,0,0,0,3.117,3.268,24.808,24.808,0,0,0,2.611,2.033c.152.1.306.2.461.3a.555.555,0,0,0,.368.138l.029,0a.562.562,0,0,0,.392-.186l2.248-2.482a.567.567,0,0,0-.04-.8l-.03-.022a17.317,17.317,0,0,1-6.115-5.535l-.024-.029a.567.567,0,0,0-.8.04l-2.248,2.482A.565.565,0,0,0,843.436,465.111Zm.32-.016a.243.243,0,0,1,.062-.176l2.248-2.483a.244.244,0,0,1,.171-.08.24.24,0,0,1,.163.051,17.643,17.643,0,0,0,6.195,5.61.245.245,0,0,1,.006.335l-2.249,2.483a.237.237,0,0,1-.17.08.25.25,0,0,1-.178-.062l-.021-.016q-.509-.327-1-.684-.941-.67-1.83-1.446a27.447,27.447,0,0,1-3.3-3.423l-.016-.018a.251.251,0,0,1-.08-.171Z" transform="translate(-742.5 -426.559)"/><ellipse class="b" cx="0.508" cy="1.726" rx="0.508" ry="1.726" transform="translate(103.912 39.34) rotate(-47.838)"/><path class="e" d="M563.709,366.832h-1.963l-.934-7.571h2.9Z" transform="translate(-471.023 -301.741)"/><path class="f" d="M761.84,645.548H755.51v-.08A2.463,2.463,0,0,1,757.974,643h3.866Z" transform="translate(-668.653 -578.554)"/><path class="e" d="M599.709,366.832h-1.963l-.934-7.571h2.9Z" transform="translate(-501.259 -301.741)"/><path class="f" d="M797.84,645.548h-6.329v-.08A2.463,2.463,0,0,1,793.974,643h3.866Z" transform="translate(-698.889 -578.554)"/><path class="f" d="M773.99,441.622l-.469,27.81a.64.64,0,0,1-.7.627l-2.3-.209a.641.641,0,0,1-.581-.588L768.6,451.915a.16.16,0,0,0-.32.006l-.672,17.744a.64.64,0,0,1-.64.616h-2.463a.64.64,0,0,1-.639-.6l-1.724-28.218,10.247-2.562Z" transform="translate(-674.223 -407.128)"/><circle class="e" cx="3.932" cy="3.932" r="3.932" transform="translate(88.403 0.516)"/><path class="d" d="M757.41,326.137a.715.715,0,0,1-.218-.507l-.265-18.963a4.563,4.563,0,0,1,3.087-4.394c.368-1.671,2.329-1.881,3.472-1.856a1.775,1.775,0,0,1,1.437.788l.819,1.229,1.806,1.059a4.567,4.567,0,0,1,2.157,4.934l-.278,1.265a29.065,29.065,0,0,0,.272,13.555l.56,2.133a.72.72,0,0,1-.752.9l-.65-.05a.72.72,0,0,1-.662-.647l-.108-1.075a.08.08,0,0,0-.159,0l-.1,1.041a.72.72,0,0,1-.706.649l-9.2.142h-.011A.716.716,0,0,1,757.41,326.137Z" transform="translate(-669.842 -290.816)"/><path class="f" d="M761.287,247.173c.016.556.4.878.876,1.169a5.069,5.069,0,0,0,1.57.539.48.48,0,0,0,.705-.42l.5-1.893a11.988,11.988,0,0,0,.383-1.847,4.242,4.242,0,0,0-1-3.365,2.693,2.693,0,0,0-3.3-.508c-1.193-1.524-6.648,1.843-5.3,2.9.239.189.605-.05.909-.073a.97.97,0,0,1,.837.266c.252.308.142.767.246,1.151a1.075,1.075,0,0,0,1.358.7,3.7,3.7,0,0,0,.7-.453.906.906,0,0,1,.79-.172c.346.129.469.552.5.92A8.513,8.513,0,0,0,761.287,247.173Z" transform="translate(-668.644 -240.458)"/><path class="g" d="M551.9,107.768l-.64,7.845-3.362,8.165,4.963-8.005Z" transform="translate(-460.175 -90.514)"/><path class="e" d="M742.145,426.439a1.61,1.61,0,0,0,.051-2.468l2.142-5.305-2.914.589-1.587,4.948a1.619,1.619,0,0,0,2.309,2.237Z" transform="translate(-655.21 -390.134)"/><path class="d" d="M743.873,335.331l-1.65-.595a.724.724,0,0,1-.451-.868l2.721-9.962.415-9a2.052,2.052,0,1,1,4.1.248l-.741,9.858-3.467,9.881a.718.718,0,0,1-.924.439Z" transform="translate(-657.094 -301.365)"/><path class="e" d="M843.193,428.406a1.61,1.61,0,0,0-.9-2.3l-.067-5.721-2.463,1.666.442,5.177a1.619,1.619,0,0,0,2.992,1.175Z" transform="translate(-739.412 -391.579)"/><path class="d" d="M817.8,342.071l-1.751.087a.724.724,0,0,1-.75-.627l-1.327-10.241-3.086-8.468a2.052,2.052,0,1,1,3.876-1.349l3.114,9.383.607,10.455a.719.719,0,0,1-.684.761Z" transform="translate(-715.07 -307.344)"/><path class="d" d="M665.151,657.719h-61a.16.16,0,0,1,0-.32h61a.16.16,0,1,1,0,.32Z" transform="translate(-541.392 -590.644)"/><path class="d" d="M519.18,385.859a2.9,2.9,0,0,1-2.174-.813c-1.182-1.219-1.108-3.569-1.048-5.458.017-.549.034-1.068.017-1.5v-.007a3.224,3.224,0,0,1,3.206-3.208h7.624a2.9,2.9,0,0,1,2.172.812c1.182,1.218,1.109,3.568,1.05,5.456-.017.551-.033,1.071-.017,1.506a3.226,3.226,0,0,1-3.208,3.215Zm-2.885-7.782c.017.445,0,.968-.017,1.522-.058,1.828-.129,4.1.958,5.225a2.559,2.559,0,0,0,1.944.716H526.8a2.9,2.9,0,0,0,2.888-2.889c-.017-.44,0-.965.017-1.522.057-1.827.128-4.1-.96-5.223a2.558,2.558,0,0,0-1.942-.715h-7.623a2.9,2.9,0,0,0-2.887,2.885Z" transform="translate(-467.431 -353.35)"/><path class="d" d="M241,283.622a7.46,7.46,0,0,1-7.036-5.4l-.036-.163.447-.08a7.364,7.364,0,0,1,8.357,5.257l.037.155-.155.038A6.722,6.722,0,0,1,241,283.622Zm-6.685-5.311a6.964,6.964,0,0,0,3.079,3.934,6.675,6.675,0,0,0,4.987.907,7.038,7.038,0,0,0-7.94-4.863Z" transform="translate(-230.581 -271.848)"/><path class="d" d="M235.535,396.637a2.657,2.657,0,0,1-2.4-1.324,3.324,3.324,0,0,1,0-3.259,2.667,2.667,0,0,1,2.455-1.325h10.158a2.672,2.672,0,0,1,2.452,1.327,3.324,3.324,0,0,1,0,3.259,2.678,2.678,0,0,1-2.454,1.322H235.535Zm.006-5.588a2.354,2.354,0,0,0-2.129,1.167,3,3,0,0,0,0,2.936,2.356,2.356,0,0,0,2.173,1.165h10.163a2.359,2.359,0,0,0,2.176-1.164,3,3,0,0,0,0-2.936,2.366,2.366,0,0,0-2.173-1.168h-10.21Z" transform="translate(-229.556 -366.669)"/><path class="b" d="M531.513,390.252h-3.2a.8.8,0,1,1,0-1.6h3.2a.8.8,0,1,1,0,1.6Z" transform="translate(-477.157 -364.924)"/><path class="b" d="M531.513,406.252h-3.2a.8.8,0,1,1,0-1.6h3.2a.8.8,0,1,1,0,1.6Z" transform="translate(-477.157 -378.363)"/><path class="b" d="M531.513,422.252h-3.2a.8.8,0,1,1,0-1.6h3.2a.8.8,0,1,1,0,1.6Z" transform="translate(-477.157 -391.801)"/><path class="b" d="M566.513,390.252h-3.2a.8.8,0,1,1,0-1.6h3.2a.8.8,0,1,1,0,1.6Z" transform="translate(-506.553 -364.924)"/><path class="b" d="M566.513,406.252h-3.2a.8.8,0,1,1,0-1.6h3.2a.8.8,0,1,1,0,1.6Z" transform="translate(-506.553 -378.363)"/><path class="b" d="M566.513,422.252h-3.2a.8.8,0,1,1,0-1.6h3.2a.8.8,0,1,1,0,1.6Z" transform="translate(-506.553 -391.801)"/><rect class="d" width="67.053" height="0.32" transform="translate(0.192 13.951)"/><path class="d" d="M274.971,295.256H218.294a5.289,5.289,0,0,1-5.284-5.283V262.435a5.29,5.29,0,0,1,5.284-5.284h56.678a5.289,5.289,0,0,1,5.284,5.284v27.538A5.289,5.289,0,0,1,274.971,295.256Zm-56.678-37.785a4.969,4.969,0,0,0-4.963,4.963v27.538a4.969,4.969,0,0,0,4.963,4.963h56.678a4.969,4.969,0,0,0,4.963-4.963V262.435a4.969,4.969,0,0,0-4.963-4.963Z" transform="translate(-213.01 -254.478)"/></g></svg>