<svg xmlns="http://www.w3.org/2000/svg" width="115.718" height="106.59" viewBox="0 0 115.718 106.59"><defs><style>.a{opacity:0.5;}.b{fill:#e6e6e6;}.c{fill:#ccc;}.d{fill:#3f3d56;}.e{fill:#456efe;}.f{fill:#f2f2f2;}.g{fill:#fff;}.h{fill:#ffb8b8;}.i{fill:#2f2e41;}</style></defs><g class="a"><path class="b" d="M397.952,216.471H395.44v-.365h2.483a3.053,3.053,0,0,0,2.311-1.276c1.611-1.954,2.933-6.793.088-18.744a72.393,72.393,0,0,1,.915-35.623,1.779,1.779,0,0,0-1.712-2.271H362.574a1.787,1.787,0,0,0-1.441.733,13.965,13.965,0,0,0-2.121,5.774l-.359-.064a14.315,14.315,0,0,1,2.185-5.924,2.153,2.153,0,0,1,1.736-.884h36.951a2.144,2.144,0,0,1,2.062,2.737,72.017,72.017,0,0,0-.91,35.438c2.885,12.119,1.5,17.062-.173,19.075A3.457,3.457,0,0,1,397.952,216.471Z" transform="translate(-344.818 -157.826)"/><path class="c" d="M361.452,252.971H358.94v-.365h2.483a3.054,3.054,0,0,0,2.311-1.276c1.611-1.954,2.933-6.793.088-18.744a72.394,72.394,0,0,1,.915-35.623,1.779,1.779,0,0,0-1.712-2.271H326.074a1.787,1.787,0,0,0-1.441.733,13.964,13.964,0,0,0-2.121,5.774l-.359-.064a14.316,14.316,0,0,1,2.185-5.924,2.153,2.153,0,0,1,1.736-.884h36.951a2.144,2.144,0,0,1,2.062,2.738,72.016,72.016,0,0,0-.91,35.438c2.885,12.119,1.5,17.062-.173,19.075A3.457,3.457,0,0,1,361.452,252.971Z" transform="translate(-314.975 -187.668)"/><path class="d" d="M322.625,289.471H286.2a2.143,2.143,0,0,1-1.993-2.937c1.32-3.3,3.1-11.211.17-27.15-3.457-18.821-.362-25.623,1.129-27.674a2.153,2.153,0,0,1,1.736-.884H324.2a2.144,2.144,0,0,1,2.062,2.737,72.016,72.016,0,0,0-.91,35.438c2.885,12.119,1.5,17.062-.173,19.075A3.458,3.458,0,0,1,322.625,289.471Zm-35.379-58.28a1.787,1.787,0,0,0-1.441.733c-1.463,2.013-4.5,8.711-1.065,27.393,2.8,15.226,1.44,23.278-.19,27.351a1.749,1.749,0,0,0,.178,1.653,1.781,1.781,0,0,0,1.477.783H322.6a3.05,3.05,0,0,0,2.311-1.276c1.611-1.954,2.933-6.793.088-18.744a72.4,72.4,0,0,1,.915-35.623,1.779,1.779,0,0,0-1.712-2.271Z" transform="translate(-282.806 -217.51)"/><path class="e" d="M338.729,307.744h-29a1.459,1.459,0,0,1,0-2.919h29a1.459,1.459,0,0,1,0,2.919Z" transform="translate(-303.623 -278.011)"/><path class="c" d="M338.729,341.744h-29a1.459,1.459,0,1,1,0-2.919h29a1.459,1.459,0,1,1,0,2.919Z" transform="translate(-303.623 -305.809)"/><path class="c" d="M338.729,375.744h-29a1.459,1.459,0,0,1,0-2.919h29a1.459,1.459,0,0,1,0,2.919Z" transform="translate(-303.623 -333.607)"/><path class="c" d="M350.729,409.744h-29a1.459,1.459,0,1,1,0-2.919h29a1.459,1.459,0,0,1,0,2.919Z" transform="translate(-313.434 -361.405)"/><path class="c" d="M350.729,443.744h-29a1.459,1.459,0,1,1,0-2.919h29a1.459,1.459,0,0,1,0,2.919Z" transform="translate(-313.434 -389.204)"/><path class="e" d="M323.407,273.744H309.726a1.459,1.459,0,1,1,0-2.919h13.681a1.459,1.459,0,1,1,0,2.919Z" transform="translate(-303.623 -250.213)"/><path class="d" d="M379.18,490.987c.294-1.247,1.678-1.655,2.809-1.61a11.984,11.984,0,0,1,2.118.335c.727.163,1.446.355,2.162.559,1.313.374,2.613.827,3.947,1.12a6.857,6.857,0,0,0,3.427.05,3.25,3.25,0,0,0,2.259-2.215,2.218,2.218,0,0,0-1.1-2.638,1.842,1.842,0,0,0-2.522.763,2.771,2.771,0,0,0,.809,3.094,9.055,9.055,0,0,0,1.5,1.141,5.6,5.6,0,0,0,1.8.806,2.6,2.6,0,0,0,2.856-1.115,1.884,1.884,0,0,0,.214-.736c.032-.351-.515-.348-.547,0-.092,1-1.268,1.474-2.147,1.364a4.365,4.365,0,0,1-1.665-.646,9.753,9.753,0,0,1-1.379-.973c-.746-.645-1.445-1.707-.944-2.714a1.368,1.368,0,0,1,2.117-.283,1.928,1.928,0,0,1,.127,2.563,3.207,3.207,0,0,1-2.585,1.233,10.108,10.108,0,0,1-3.13-.49c-1.261-.358-2.509-.759-3.776-1.1-.719-.191-1.444-.364-2.176-.5a7.184,7.184,0,0,0-2.11-.146,2.858,2.858,0,0,0-2.589,1.987C378.572,491.184,379.1,491.33,379.18,490.987Z" transform="translate(-361.162 -426.447)"/><path class="f" d="M688.066,604.014a83.567,83.567,0,0,0,.788,10.736c.017.125.036.25.053.375l33.636-.188c.1-.124.2-.25.29-.377.314-.421.608-.853.879-1.3,1.3-2.156,1.893-4.679,1.3-6.42l-.011-.027a3.054,3.054,0,0,0-.6-1.036c-1.358-1.529-4.1-1.274-6.6-.04,2.236-2.447,4.016-5.535,4.151-8.291.133-2.688-1.273-4.609-2.8-6.241l-.15-.159c-.024-.027-.05-.052-.074-.079-1.19-1.244-2.576-2.47-4.584-2.322-2.2.163-4.642,2.007-6.354,4.156a35.931,35.931,0,0,0-4,6.967,28.119,28.119,0,0,1-4.255,6.853,26.207,26.207,0,0,0,5.279-10.295c.747-3.511.09-6.884-2.146-8.537a5.229,5.229,0,0,0-2.291-.924c-.1-.016-.194-.029-.294-.041a9.18,9.18,0,0,0-6.644,2.191,15.294,15.294,0,0,0-4.72,7.328A24.992,24.992,0,0,0,688.066,604.014Z" transform="translate(-614.14 -508.534)"/><path class="g" d="M808.729,704.837l.643,0q.307-.192.616-.379c.128-.081.257-.158.386-.237q3.2-1.955,6.44-3.75t6.507-3.428a.27.27,0,0,0,.155-.308.08.08,0,0,0-.011-.023c-.03-.057-.1-.081-.2-.032-.267.134-.536.268-.8.405q-3.279,1.659-6.529,3.483t-6.46,3.808l-.135.084Z" transform="translate(-712.796 -598.365)"/><path class="g" d="M763.264,634.168l.4,0,.268-.377,6.322-8.867q5.175-7.258,10.347-14.516a.256.256,0,0,0,.045-.088c.029-.107-.049-.17-.15-.159a.3.3,0,0,0-.21.134l-5.8,8.138-10.295,14.442-.655.918C763.442,633.917,763.352,634.042,763.264,634.168Z" transform="translate(-675.624 -527.649)"/><path class="g" d="M714.631,612.628c.02.67.065,1.33.122,1.983l.034.375.417,0c-.013-.125-.026-.25-.037-.375-.088-.944-.151-1.9-.159-2.88a40.174,40.174,0,0,1,.791-8.1,50.415,50.415,0,0,1,2.449-8.413,57.772,57.772,0,0,1,4.008-8.323.221.221,0,0,0,.037-.148c-.017-.119-.175-.154-.294-.041a.35.35,0,0,0-.06.076q-.289.5-.567,1a57.744,57.744,0,0,0-3.836,8.352,50.177,50.177,0,0,0-2.283,8.425A39.633,39.633,0,0,0,714.631,612.628Z" transform="translate(-635.852 -508.419)"/><path class="d" d="M491.075,508.6a.456.456,0,0,1,.248-.8,7.531,7.531,0,0,1,2.954.3l9.725,3a1,1,0,1,1-.592,1.917l-9.725-3a7.532,7.532,0,0,1-2.61-1.416Z" transform="translate(-452.951 -443.927)"/><path class="h" d="M698.906,527.332a1.96,1.96,0,0,1-.888-2.87l-1.667-8.718,4.249-.331.257,8.527a1.97,1.97,0,0,1-1.95,3.392Z" transform="translate(-620.917 -450.186)"/><path class="e" d="M675.2,448.449,670.869,428.3a3.192,3.192,0,0,1,6.242-1.34l4.327,20.153a.822.822,0,0,1-.63.975l-4.637,1A.821.821,0,0,1,675.2,448.449Z" transform="translate(-600.025 -375.802)"/><path class="h" d="M358.378,533.4h-2.236l-1.064-8.626h3.3Z" transform="translate(-290.309 -429.052)"/><path class="i" d="M339.983,568.561H344.3v2.715h-7.028A2.716,2.716,0,0,1,339.983,568.561Z" transform="translate(-275.747 -464.851)"/><path class="h" d="M399.378,532.4h-2.236l-1.064-8.626h3.3Z" transform="translate(-323.83 -428.235)"/><path class="i" d="M380.983,567.561H385.3v2.715h-7.028A2.715,2.715,0,0,1,380.983,567.561Z" transform="translate(-309.268 -464.033)"/><path class="i" d="M628.3,584.179a.815.815,0,0,1-.295-.559l-2.6-28.6a.821.821,0,0,1,.787-.895l13.039-.489a.821.821,0,0,1,.851.85l-1.042,28.488a.822.822,0,0,1-.746.787l-2.629.239a.821.821,0,0,1-.893-.763l-1.207-18.1a.262.262,0,0,0-.273-.255h0a.262.262,0,0,0-.272.257l-1.08,18.22a.817.817,0,0,1-.738.768l-2.3.23a.815.815,0,0,1-.6-.184Z" transform="translate(-562.908 -481.439)"/><circle class="h" cx="4.48" cy="4.48" r="4.48" transform="translate(65.925 35.46)"/><path class="e" d="M619.659,436.98a.814.814,0,0,1-.192-.671c.827-5.027.361-12.417-.176-17.731a8.063,8.063,0,0,1,3.327-7.351l2.34-2.005a.834.834,0,0,1,.558-.2l5.813.166a.818.818,0,0,1,.557.24l.9,1.989.009.007a8.039,8.039,0,0,1,3.268,6.875l-.856,17.682a.825.825,0,0,1-.793.781l-14.109.5h-.027A.819.819,0,0,1,619.659,436.98Z" transform="translate(-557.881 -363.203)"/><path class="h" d="M528.706,490.13a1.96,1.96,0,0,1,2.256-1.985l7.272-5.089,2.041,3.741-7.675,3.724a1.97,1.97,0,0,1-3.893-.391Z" transform="translate(-483.852 -423.731)"/><path class="e" d="M546.56,445.506a.816.816,0,0,1-.537-.326l-2.806-3.823a.822.822,0,0,1,.176-1.147l16.616-12.2a3.192,3.192,0,0,1,3.778,5.147l-16.617,12.2a.815.815,0,0,1-.484.159A.832.832,0,0,1,546.56,445.506Z" transform="translate(-495.586 -378.223)"/><path class="i" d="M645.267,350.862a2.381,2.381,0,0,0,.052-2.648,5.1,5.1,0,0,0-2.119-1.8,27.5,27.5,0,0,1-2.5-1.3c-.784-.519-.75-2.716-.958-3.632l.5.166c-.191-.245-.253-.968-.444-1.213.563.056,1,.59,1.557.645l-.325-.871c1.929-.119,3.128,1.221,5.057,1.1a4.339,4.339,0,0,1,2.779.451,3.677,3.677,0,0,1,1.255,2.1,7.08,7.08,0,0,1-.279,5.22,3.943,3.943,0,0,1-4.473,2.069Z" transform="translate(-574.632 -306.934)"/><path class="d" d="M534.376,740.19h69.5a.182.182,0,1,0,0-.365h-69.5a.182.182,0,1,0,0,.365Z" transform="translate(-488.339 -633.663)"/></g></svg>