<svg xmlns="http://www.w3.org/2000/svg" xmlns:xlink="http://www.w3.org/1999/xlink" width="109" height="84.103" viewBox="0 0 109 84.103"><defs><style>.a{fill:url(#a);}.b{fill:#6c63ff;}.c{opacity:0.05;}.d,.g{fill:#fff;}.d,.n{opacity:0.2;}.e{fill:#985454;}.f{fill:url(#b);}.h{fill:#e0e0e0;}.i{fill:#bdbdbd;}.j{fill:url(#c);}.k{fill:url(#d);}.l{fill:url(#e);}.m{fill:url(#g);}.o{fill:url(#i);}.p{fill:url(#j);}.q{fill:#ff5252;}.r{fill:#f6b9ad;}.s{fill:#263238;}.t{fill:#fccc63;}.u{fill:url(#k);}.v{fill:url(#l);}.w{fill:#ca7070;}.x{fill:#00695c;}</style><linearGradient id="a" x1="0.5" y1="1" x2="0.5" gradientUnits="objectBoundingBox"><stop offset="0" stop-color="gray" stop-opacity="0.251"/><stop offset="0.54" stop-color="gray" stop-opacity="0.122"/><stop offset="1" stop-color="gray" stop-opacity="0.102"/></linearGradient><linearGradient id="b" x1="0.5" y1="1" x2="0.5" y2="0" xlink:href="#a"/><linearGradient id="c" x1="0.5" y1="1" x2="0.5" gradientUnits="objectBoundingBox"><stop offset="0" stop-opacity="0.122"/><stop offset="0.55" stop-opacity="0.09"/><stop offset="1" stop-opacity="0.02"/></linearGradient><linearGradient id="d" x1="0.5" y1="1.001" x2="0.5" y2="0.001" xlink:href="#c"/><linearGradient id="e" x1="0.5" y1="1" x2="0.5" y2="0" xlink:href="#c"/><linearGradient id="g" x1="0.5" y1="1" x2="0.5" y2="0" xlink:href="#c"/><linearGradient id="i" x1="0.501" y1="1" x2="0.501" y2="-0.04" xlink:href="#a"/><linearGradient id="j" x1="0.5" y1="1" x2="0.5" y2="0" xlink:href="#a"/><linearGradient id="k" x1="246.583" y1="-1170.459" x2="246.583" y2="-1171.347" xlink:href="#a"/><linearGradient id="l" x1="1.415" y1="-0.941" x2="1.415" y2="-1.927" xlink:href="#a"/></defs><g transform="translate(0.03)"><path class="a" d="M521.848,599.316c-.062-.06-.126-.126-.171-.177a.755.755,0,0,1-.178-.341h.045l.021-.1a9.3,9.3,0,0,0-2.791-8.8.1.1,0,0,0,.013-.023,9.713,9.713,0,0,0,.111-5.771,16.733,16.733,0,0,0,1.493-2.241,9.234,9.234,0,0,0,3.631-5.094,6.4,6.4,0,0,0,.126-.728.778.778,0,0,0,.116-.9.844.844,0,0,0-.055-.117.282.282,0,0,0-.021-.033.7.7,0,0,0-.044-.064l-.029-.033a.645.645,0,0,0-.047-.047l-.033-.028-.05-.035-.035-.021-.054-.026-.034-.015-.06-.02-.03-.009a.793.793,0,0,0-.086-.018h0a1.348,1.348,0,0,0-.57.057s-.453.786-.276,1.085c-.137.174-.5.638-1.007,1.235a6.8,6.8,0,0,0-.15-1.488,6.418,6.418,0,0,0-.185-.715.77.77,0,0,0-.264-.864.862.862,0,0,0-.1-.084l-.033-.021a.743.743,0,0,0-.067-.04l-.039-.018a.641.641,0,0,0-.062-.024l-.04-.011-.06-.013h-.138l-.064.006H520.6a.708.708,0,0,0-.086.02h0a1.347,1.347,0,0,0-.5.287s-.088.9.2,1.1a43.505,43.505,0,0,1-1.679,5.284,10.069,10.069,0,0,1-.928.713V581a.978.978,0,0,0,0-.107h0a1.013,1.013,0,0,0-.016-.1l.016-.009.068-.038.1-.06.063-.04q.07-.049.136-.1l.052-.044c.031-.026.06-.054.091-.082l.043-.06q.054-.055.1-.116l.037-.044a1.421,1.421,0,0,0,.091-.126l.037-.054q.039-.06.074-.126l.023-.04c.029-.054.055-.11.081-.166l.02-.05q.028-.068.05-.14a.189.189,0,0,1,.016-.049c.019-.06.035-.126.048-.186a.081.081,0,0,1,.006-.038q.015-.081.025-.162V579c0-.067.01-.133.01-.2a2.209,2.209,0,0,0-.285-1.085l.1-.028.077-.024c.029-.01.043-.019.039-.025-.054-.073-.11-.142-.166-.21l-.055-.063a.919.919,0,0,0-.126-.126l-.064-.065c-.04-.039-.081-.078-.126-.115l-.063-.057c-.05-.044-.1-.084-.152-.126l-.033-.026c-.062-.045-.126-.088-.185-.126l-.071-.043c-.04-.025-.082-.049-.126-.072l-.082-.043-.115-.055-.084-.038c-.04-.016-.082-.033-.126-.047l-.077-.028c-.062-.02-.126-.038-.185-.054l-.1-.021-.1-.021-.1-.016-.094-.011-.106-.009h-.2a1.719,1.719,0,0,0-.175.009h0a2.966,2.966,0,0,0-2.568,3.208v1.579h2.14v.715a2.22,2.22,0,0,0-1.289,2.014v6.09l-1.8,8.347h-.009v.023h0l-.353,1.571,2.67.427a.137.137,0,0,0,.084-.157.5.5,0,0,0-.032-.126,2.116,2.116,0,0,0-.152-.3c-.094-.162-.206-.336-.282-.494a1.1,1.1,0,0,1-.087-.252.981.981,0,0,1-.018-.136l1.965-6.458h-.009l.047-.152a6.019,6.019,0,0,1,3.147,3.224,5.045,5.045,0,0,1,.057,3.237h-.009v.021c-.028.069-.048.108-.048.108h.048v1.182h2.711C522.43,599.839,522.115,599.576,521.848,599.316Z" transform="translate(-468.718 -516.143)"/><path class="b" d="M539.837,608.411s4.676-4.916,3.147-9.641l-1.226.252s-1.645,6.924-3.4,7.918S539.837,608.411,539.837,608.411Z" transform="translate(-491.19 -537.987)"/><path class="c" d="M539.837,608.411s4.676-4.916,3.147-9.641l-1.226.252s-1.645,6.924-3.4,7.918S539.837,608.411,539.837,608.411Z" transform="translate(-491.19 -537.987)"/><path class="d" d="M555.807,599.352l.2-.042c1.523,4.725-3.147,9.641-3.147,9.641l-.144-.024C553.259,608.336,557.228,603.758,555.807,599.352Z" transform="translate(-504.198 -538.459)"/><path class="e" d="M568.628,591.657s.34-.423-.193-.953-1.185.1-1.185.1-.093.94.22,1.089S568.628,591.657,568.628,591.657Z" transform="translate(-516.888 -530.751)"/><path class="d" d="M571.91,591.706s.34-.423-.193-.953a.666.666,0,0,0-.568-.208.675.675,0,0,1,.7.18c.533.53.193.953.193.953a3.764,3.764,0,0,1-.783.252A4.109,4.109,0,0,0,571.91,591.706Z" transform="translate(-520.308 -530.768)"/><rect class="f" width="101.022" height="61.412" rx="27.5" transform="translate(2.997)"/><rect class="g" width="98.406" height="59.181" rx="27.5" transform="translate(4.143 0.626)"/><rect class="h" width="2.868" height="8.143" transform="translate(11.828 9.916)"/><rect class="h" width="2.868" height="8.143" transform="translate(15.498 9.916)"/><rect class="h" width="2.868" height="8.143" transform="translate(19.168 9.916)"/><rect class="h" width="2.868" height="8.143" transform="translate(25.591 9.916)"/><rect class="h" width="2.868" height="8.143" transform="translate(29.261 9.916)"/><rect class="h" width="2.868" height="8.143" transform="translate(32.931 9.916)"/><rect class="h" width="2.868" height="8.143" transform="translate(39.354 9.916)"/><rect class="h" width="2.868" height="8.143" transform="translate(43.024 9.916)"/><rect class="h" width="2.868" height="8.143" transform="translate(46.694 9.916)"/><rect class="h" width="2.868" height="8.143" transform="translate(53.117 9.916)"/><rect class="h" width="2.868" height="8.143" transform="translate(56.787 9.916)"/><rect class="h" width="2.868" height="8.143" transform="translate(60.457 9.916)"/><rect class="i" width="25.003" height="3.67" transform="translate(11.828 50.975)"/><rect class="h" width="43.354" height="3.67" transform="translate(11.828 44.783)"/><path class="j" d="M784.058,321.071a.6.6,0,0,1,.582-.629h.865V315.28h-7.7v5.942h6.26Z" transform="translate(-700.941 -290.188)"/><path class="k" d="M784.631,400.161a.6.6,0,0,1-.582-.63v-.151h-6.26v5.942H785.5v-5.162Z" transform="translate(-700.933 -363.7)"/><rect class="l" width="6.26" height="3.101" transform="translate(76.857 31.81)"/><path class="j" d="M846.174,399.571a.6.6,0,0,1-.582.63h-.862v5.162h7.7V399.42h-6.261Z" transform="translate(-759.445 -363.735)"/><path class="m" d="M844.72,315.28v5.162h.862a.6.6,0,0,1,.582.629v.151h6.26V315.28Z" transform="translate(-759.436 -290.188)"/><rect class="l" width="6.26" height="3.101" transform="translate(86.729 31.81)"/><path class="b" d="M786.261,326.052a.555.555,0,0,1,.555-.554h.823V320.91h-7.35v5.276h5.971Z" transform="translate(-703.118 -295.109)"/><path class="b" d="M786.816,396.3a.555.555,0,0,1-.555-.554v-.133H780.29v5.276h7.349V396.3Z" transform="translate(-703.118 -360.404)"/><rect class="b" width="5.971" height="2.752" transform="translate(77.172 31.765)"/><path class="b" d="M845.509,395.743a.555.555,0,0,1-.555.554h-.823v4.588h7.349V395.61h-5.97Z" transform="translate(-758.921 -360.404)"/><path class="b" d="M844.14,320.91V325.5h.823a.555.555,0,0,1,.555.554v.133h5.971V320.91Z" transform="translate(-758.929 -295.109)"/><rect class="b" width="5.971" height="2.752" transform="translate(86.588 31.765)"/><g class="n" transform="translate(2.831 55.289)"><path class="o" d="M189.853,555.174l.011-.038S189.725,555.116,189.853,555.174Z" transform="translate(-189.799 -555.133)"/></g><g class="n" transform="translate(-0.03 54.512)"><path class="p" d="M182.977,552.089a.9.9,0,0,0-.049-.126c0-.013-.014-.024-.02-.037a.774.774,0,0,0-.042-.07l-.028-.036q-.021-.028-.045-.053l-.033-.031a.513.513,0,0,0-.05-.042l-.035-.025-.055-.033-.035-.019-.063-.026-.031-.013q-.045-.015-.089-.025h0a1.424,1.424,0,0,0-.606.016s-.578.852-.355,1.158l-.073-.023s-4.292,4.784-6.713,5.678q-.093-.063-.193-.118v-.9a1.056,1.056,0,0,0,0-.112h0a1.044,1.044,0,0,0-.018-.107l.018-.01.072-.04.1-.063.067-.043q.074-.052.145-.108l.054-.047c.033-.028.064-.057.1-.087l.055-.054a1.607,1.607,0,0,0,.111-.126l.039-.048q.05-.062.1-.126l.039-.058q.042-.063.079-.126l.024-.043c.03-.057.059-.116.084-.176l.021-.053q.029-.073.054-.147a.167.167,0,0,1,.018-.052,1.789,1.789,0,0,0,.05-.2.079.079,0,0,1,.008-.04q.016-.084.026-.171v-.058c.006-.07.011-.142.011-.214a2.337,2.337,0,0,0-.521-1.474c.184-.287.3-.456.3-.456-.111-.076-.219-.146-.327-.212l-.1-.062-.215-.126-.126-.064c-.064-.034-.126-.067-.193-.1l-.126-.057-.183-.079-.126-.048c-.06-.024-.126-.045-.181-.065l-.113-.038c-.062-.02-.126-.036-.185-.053l-.1-.028c-.069-.016-.137-.031-.205-.044l-.073-.015c-.092-.016-.184-.029-.274-.038h0a3.274,3.274,0,0,0-1.648.252,3.05,3.05,0,0,1,.37-1.538l-.057-.019-.02.019s-.068.015-.173.034a1.444,1.444,0,0,0-.089.167,1.917,1.917,0,0,1,.263-.656l-.057-.019a.775.775,0,0,0-.02-1.041c-.454-.681-1.288-.151-1.288-.151a3.525,3.525,0,0,0-.126.687c-.064-.025-.108-.045-.138-.06a17.165,17.165,0,0,0-.647,4.323,16.671,16.671,0,0,0-2.243,5.956h0l-.009.054h0c-.009.049-.013.076-.013.076l3.9.091V566.5l-2.848,6.005s1.076.039,2.713.252l-.449,3.213h0l-.15.9h2.7c.3-.6-1.2-.9-1.2-.9h-.034l.587-3q.389.065.8.143a7.829,7.829,0,0,0,1.217.137h0a6.449,6.449,0,0,0,1.013-.044,7.1,7.1,0,0,1-.112,2.762H175.2l-.15.9h2.7c.262-.524-.847-.82-1.133-.881l.013-.088a15.083,15.083,0,0,0,.107-3.06,3.705,3.705,0,0,0,.962-.574h0l.038-.033h0l.011-.011-2.014-5.649c.378-1.6-.934-3.273-.234-4.118a2.08,2.08,0,0,0,.194-2.094c1.888-.826,5.714-2.9,6.787-6.48a6.778,6.778,0,0,0,.191-.768S183.212,552.874,182.977,552.089Z" transform="translate(-167.07 -548.96)"/></g><path class="q" d="M189.423,563.763s-2.051,6.467,1.385,10.048l.993-.755s-2.032-7.059-.9-8.717C188.9,563.662,189.423,563.763,189.423,563.763Z" transform="translate(-186.108 -507.383)"/><path class="r" d="M195.842,559.357s.417-.348,0-.973-1.181-.138-1.181-.138-.278.9,0,1.112S195.842,559.357,195.842,559.357Z" transform="translate(-191.11 -502.407)"/><rect class="r" width="1.945" height="2.883" rx="0.973" transform="translate(7.407 65.289) rotate(180)"/><path class="d" d="M202.842,580.226s-2.007-6.972-.914-8.687c.1-.018.159-.031.159-.031l.018-.018.052.018c-1.133,1.658.9,8.717.9,8.717l-.993.755-.087-.093Z" transform="translate(-197.285 -514.142)"/><circle class="r" cx="2.154" cy="2.154" r="2.154" transform="translate(4.245 59.105)"/><path class="d" d="M218.056,590.677v-.938a.966.966,0,0,0-.023-.2,2.154,2.154,0,0,0-.864-4.065h.126a2.154,2.154,0,0,1,.986,4.065.965.965,0,0,1,.023.2v.938a.966.966,0,0,1-1.094.964A.976.976,0,0,0,218.056,590.677Z" transform="translate(-210.893 -526.362)"/><path class="q" d="M200.76,631.859s4.155.47,4.308,0c.5-1.52-.833-3.156-.166-3.957a1.971,1.971,0,0,0,.166-1.948,2.154,2.154,0,0,0-2.154-2.154h0a2.154,2.154,0,0,0-2.154,2.154Z" transform="translate(-196.549 -559.866)"/><path class="d" d="M218.936,627.9a1.971,1.971,0,0,0,.166-1.948,2.154,2.154,0,0,0-2.154-2.154.85.85,0,0,0-.138.008,2.152,2.152,0,0,1,2.014,2.146,1.971,1.971,0,0,1-.166,1.948c-.669.8.661,2.439.166,3.957-.048.145-.476.2-1.045.208.7.008,1.267-.04,1.321-.208C219.6,630.339,218.269,628.7,218.936,627.9Z" transform="translate(-210.578 -559.866)"/><path class="r" d="M200.4,686.72h0a12.333,12.333,0,0,1,1.754,8.522l-.013.093h-1.3a6.943,6.943,0,0,0,0-3.266,5.162,5.162,0,0,0-1.964-3.126l-1.249,6.392h-1.2l1.2-8.615Z" transform="translate(-192.764 -614.865)"/><path class="r" d="M277.826,578.248s.5-.21.285-.93-1.089-.478-1.089-.478-.53.782-.326,1.063S277.826,578.248,277.826,578.248Z" transform="translate(-262.883 -518.783)"/><path class="q" d="M218.092,592.726s6.453-2.091,7.372-6.97l-1.2-.366s-4.75,5.3-6.759,5.34S218.092,592.726,218.092,592.726Z" transform="translate(-210.522 -526.292)"/><path class="d" d="M233.644,588.34l.2.062c-.914,4.88-7.369,6.971-7.369,6.971l-.115-.089C227.119,595.016,232.792,592.891,233.644,588.34Z" transform="translate(-218.926 -528.87)"/><g class="n" transform="translate(4.594 71.855)"><path class="g" d="M205.05,704.37l-1.25,6.392h.277l1.214-6.205A2.959,2.959,0,0,0,205.05,704.37Z" transform="translate(-203.8 -702.148)"/><path class="g" d="M226.086,686.72h-.276a12.334,12.334,0,0,1,1.754,8.522l-.013.093h.276l.013-.093A12.393,12.393,0,0,0,226.086,686.72Z" transform="translate(-223.039 -686.72)"/></g><path class="d" d="M280.225,578.385s.5-.21.285-.93a.666.666,0,0,0-.4-.454.675.675,0,0,1,.533.493c.215.72-.285.93-.285.93a3.762,3.762,0,0,1-.808-.152A4.114,4.114,0,0,0,280.225,578.385Z" transform="translate(-265.419 -518.958)"/><path class="s" d="M182.614,685.94,180,691.456a32.377,32.377,0,0,1,4.55.552c2.9.551,4.274-.827,4.274-.827l-1.867-5.239Z" transform="translate(-178.402 -614.183)"/><path class="q" d="M196.709,754.94s1.385.276,1.1.827H195.33l.139-.827Z" transform="translate(-191.802 -674.496)"/><path class="q" d="M231.749,754.94s1.385.276,1.1.827H230.37l.138-.827Z" transform="translate(-222.431 -674.496)"/><path class="t" d="M180.051,581.836s-3.31,4.687-1.793,6.612l-5.928-.138S173.984,577.7,180.051,581.836Z" transform="translate(-171.698 -522.349)"/><path class="d" d="M180.06,581.95a5.032,5.032,0,0,0-2.309-.94,5.834,5.834,0,0,1,1.62.8s-3.309,4.687-1.793,6.618l-5.218-.126c-.014.078-.02.126-.02.126l5.928.138C176.75,586.638,180.06,581.95,180.06,581.95Z" transform="translate(-171.707 -522.463)"/><path class="d" d="M226.325,685.94h-.409l1.867,5.239a4.22,4.22,0,0,1-2.743.953,4.386,4.386,0,0,0,3.156-.953Z" transform="translate(-217.772 -614.183)"/><path class="d" d="M204.366,754.94h-.276s1.385.276,1.1.827h.271C205.744,755.216,204.366,754.94,204.366,754.94Z" transform="translate(-199.459 -674.496)"/><path class="d" d="M239.406,754.94h-.276s1.385.276,1.1.827h.276C240.784,755.216,239.406,754.94,239.406,754.94Z" transform="translate(-230.088 -674.496)"/><g class="n" transform="translate(103.792 57.061)"><path class="u" d="M991.73,569.214l.013.03C991.843,569.179,991.73,569.214,991.73,569.214Z" transform="translate(-991.73 -569.205)"/></g><g class="n" transform="translate(94.461 56.506)"><path class="v" d="M928.53,588.494l2.187-.63-.465-1.319h0l-.006-.019h-.008l-2.437-7.072-.63-5.294a1.988,1.988,0,0,0-.034-.2c1.99-3.409,0-8.154-.178-8.567-.023.015-.058.035-.108.063a2.908,2.908,0,0,0-.174-.553s-.737-.355-1.044.252c-.268.528.009.8.086.859l-.044.021a1.589,1.589,0,0,1,.28.514,1.211,1.211,0,0,0-.091-.126.837.837,0,0,1-.146-.011l-.018-.014-.044.021a3.1,3.1,0,0,1,.5,1.648,2.394,2.394,0,0,0-.308-.285,2.434,2.434,0,0,0-1.681-.478h0l-.109.013h0c-.062.008-.123.02-.184.034l-.045.01-.077.02-.088.028-.063.021-.108.043-.04.018a1.317,1.317,0,0,0-.126.064,2.374,2.374,0,0,1-.449.225c-.021.006-.044.01-.065.015h0a.79.79,0,0,1-.531-.086l-.054-.033a.723.723,0,0,1-.06-.044.349.349,0,0,0,0,.152.462.462,0,0,0,.2.292.439.439,0,0,0,.091.048.37.37,0,0,0,.15.024.334.334,0,0,0,.052-.006l-.013.008a.923.923,0,0,1-.092.052h-.006q-.051.025-.1.045h0a1.2,1.2,0,0,1-.548.073h0l-.06-.008a.36.36,0,0,1-.089-.016.677.677,0,0,0,.038.057l.014.016.029.035.016.018.031.031.018.016.038.03.015.011.055.036.019.01.04.021.026.011.035.015.029.01.035.011.029.009.04.009.049.009h.272a.685.685,0,0,0,.2-.074,1.176,1.176,0,0,1-.126.067h0l-.06.03-.063.03-.062.028-.064.026-.062.024-.067.024-.062.02-.07.021-.059.016-.077.019-.055.013-.088.016-.047.008-.133.018h0a.579.579,0,0,1,.22.084.555.555,0,0,0,.136.053.493.493,0,0,0,.063,0h.13l.067-.009h.111a.9.9,0,0,1,.369.072.641.641,0,0,1,.167.115c-.015.033-.03.067-.044.1s-.023.059-.033.088q-.03.089-.053.181a1.94,1.94,0,0,0-.039.677.742.742,0,0,0,.019.126l.006.034q.01.049.023.1v.025q.016.059.035.117l.009.023q.016.048.035.094l.011.028a1.915,1.915,0,0,0,.111.218l.013.021q.029.048.06.093v.009q.037.052.076.1v.008q.036.045.076.088l.009.01a1.953,1.953,0,0,0,.183.175h0a1.949,1.949,0,0,0,.562.326.863.863,0,0,0,0,.091h0a.879.879,0,0,0,0,.093l.086.723q-.058.04-.113.084c-1.807-.577-5.016-5.8-5.016-5.8l-.062.008c.227-.217-.118-1-.118-1a1.177,1.177,0,0,0-.5-.1H918.1l-.025.008h-.016l-.026.011h-.014l-.039.02h0l-.036.023-.013.009-.025.019-.014.011-.021.02-.014.014-.02.021-.014.015-.02.025-.013.016-.02.031-.01.015c-.01.016-.019.033-.029.05-.307.6.1.872.1.872a5.61,5.61,0,0,0,.043.653c.449,4.037,5.135,6.652,5.375,6.783a8.358,8.358,0,0,0,.629,5.269.1.1,0,0,0,.013.018,8.145,8.145,0,0,0-1.522,7.938l.028.082h.04c0,.019,0,.038-.008.057a.65.65,0,0,1-.029.1.757.757,0,0,1-.083.159h0c-.037.054-.081.11-.126.166l-.048.059c-.194.234-.389.462-.216.525h0l.126-.015,2.251-.222-.126-1.027h.042s-.02-.03-.053-.088v-.019h-.008a4.409,4.409,0,0,1-.283-2.82,5.287,5.287,0,0,1,2.41-3.127l.055.126h-.008l2.373,5.414v.068a.906.906,0,0,1-.019.161,1,1,0,0,1-.033.126c-.079.23-.232.5-.288.709a.665.665,0,0,0-.019.084.252.252,0,0,0,0,.1.112.112,0,0,0,.083.083h0l.03-.009.065-.019Zm-2.548-15.9q-.069-.029-.14-.052l-.079-.676a.872.872,0,0,0-.033-.152,1.948,1.948,0,0,0,.378-.313C926.07,571.833,926.025,572.238,925.982,572.593Z" transform="translate(-917.614 -564.8)"/></g><path class="w" d="M918.058,579.288s-.454-.3-.115-.966,1.157-.277,1.157-.277.378.865.126,1.1S918.058,579.288,918.058,579.288Z" transform="translate(-823.331 -519.772)"/><path class="x" d="M957.658,768.13l-1.9.224a.629.629,0,0,1-.126.5c-.222.326-.694.744-.437.837l2.61-.308Z" transform="translate(-855.936 -686.025)"/><path class="d" d="M955.8,770.334a.63.63,0,0,0,.126-.5l-.139.016a.629.629,0,0,1-.126.5c-.222.326-.694.744-.437.837l.138-.016C955.106,771.078,955.578,770.66,955.8,770.334Z" transform="translate(-855.962 -687.511)"/><path class="x" d="M1014.125,758.65l-1.749.5a.913.913,0,0,1-.006.636c-.146.427-.522,1-.252,1.078l2.528-.721Z" transform="translate(-905.676 -677.739)"/><path class="x" d="M989.939,572.4s2.795,6.181-.2,10.141l-1.075-.638s1.19-7.249-.135-8.761C990.445,572.239,989.939,572.4,989.939,572.4Z" transform="translate(-885.141 -514.925)"/><path class="w" d="M987.408,568.868s-.455-.3-.115-.966,1.157-.277,1.157-.277.378.865.126,1.1S987.408,568.868,987.408,568.868Z" transform="translate(-883.95 -510.664)"/><path class="d" d="M1012.508,759.782a.912.912,0,0,0,.006-.636l1.618-.465-.008-.021-1.749.5a.913.913,0,0,1-.006.636c-.146.427-.522,1-.252,1.078l.106-.03C1012.02,760.729,1012.367,760.19,1012.508,759.782Z" transform="translate(-905.676 -677.748)"/><rect class="w" width="1.945" height="2.883" rx="0.973" transform="matrix(0.993, -0.117, 0.117, 0.993, 101.443, 63.932)"/><path class="d" d="M988.711,590.29s1.175-7.16-.111-8.732a.907.907,0,0,1-.161-.013l-.02-.015-.049.023c1.324,1.511.135,8.761.135,8.761l1.075.638c.025-.034.05-.068.074-.1Z" transform="translate(-885.001 -522.918)"/><circle class="w" cx="2.154" cy="2.154" r="2.154" transform="matrix(0.993, -0.117, 0.117, 0.993, 99.916, 60.789)"/><path class="d" d="M964.568,602.025l-.109-.932a.96.96,0,0,1,0-.205,2.154,2.154,0,0,1,.378-4.138l-.126.01a2.154,2.154,0,0,0-.5,4.155.978.978,0,0,0,0,.205l.11.932a.966.966,0,0,0,1.2.83A.976.976,0,0,1,964.568,602.025Z" transform="translate(-862.661 -536.222)"/><path class="x" d="M971.282,642.528s-4.07.953-4.28.5a9.182,9.182,0,0,1-.692-5.864,2.154,2.154,0,0,1,1.888-2.392h0a2.154,2.154,0,0,1,2.392,1.888Z" transform="translate(-865.543 -569.446)"/><path class="s" d="M962.251,696.46l2.87,8.336-1.863.22-2.682-6.12a5.856,5.856,0,0,0-2.669,3.463,4.588,4.588,0,0,0,.378,3.243l-1.992.242-.031-.091a8.957,8.957,0,0,1,1.711-8.782h0" transform="translate(-856.511 -623.379)"/><path class="d" d="M967.01,643.075a9.182,9.182,0,0,1-.692-5.864,2.154,2.154,0,0,1,1.749-2.371.573.573,0,0,0-.138.011h0a2.154,2.154,0,0,0-1.888,2.392,9.181,9.181,0,0,0,.692,5.864c.074.16.643.141,1.345.05C967.51,643.217,967.074,643.213,967.01,643.075Z" transform="translate(-865.307 -569.516)"/><path class="x" d="M925.743,595.863s-5.976-3.212-6-8.176l1.241-.147s3.725,6.066,5.7,6.464S925.743,595.863,925.743,595.863Z" transform="translate(-825.012 -528.171)"/><g class="n" transform="translate(99.27 73.589)"><path class="g" d="M994.35,715.995,996.983,722l.276-.033-2.682-6.12S994.491,715.9,994.35,715.995Z" transform="translate(-989.499 -713.916)"/><path class="g" d="M958.289,700.49h0l-.276.033h0a8.958,8.958,0,0,0-1.711,8.783l.031.091.276-.033-.031-.091A8.957,8.957,0,0,1,958.289,700.49Z" transform="translate(-955.817 -700.49)"/></g><path class="d" d="M920.007,589.06l-.207.024c.026,4.964,6,8.176,6,8.176l.126-.068C925.239,596.8,920.032,593.69,920.007,589.06Z" transform="translate(-825.064 -529.5)"/><path class="s" d="M954.843,591.717a3.477,3.477,0,0,1,.351.831,2.326,2.326,0,0,0,1.157,1.392,2.187,2.187,0,0,0,.992.149,1.846,1.846,0,0,0,1.371-.6,1.774,1.774,0,0,0,.331-.927,2.981,2.981,0,0,0-1.1-2.63,2.647,2.647,0,0,0-2.8-.252,2.633,2.633,0,0,1-.5.252.87.87,0,0,1-.787-.162.481.481,0,0,0,.535.564,1.342,1.342,0,0,1-1.016.176.872.872,0,0,0,1.141.308,2.938,2.938,0,0,1-1.207.4c.089-.009.282.133.394.152a2.37,2.37,0,0,0,.413-.019A.8.8,0,0,1,954.843,591.717Z" transform="translate(-854.355 -529.792)"/><g class="n" transform="translate(98.954 59.613)"><path class="g" d="M958.139,592.974a1.329,1.329,0,0,1-.491.189,1.337,1.337,0,0,0,.629-.205.487.487,0,0,1-.546-.463.82.82,0,0,1-.126-.084.481.481,0,0,0,.534.564Z" transform="translate(-957.056 -592.041)"/><path class="g" d="M963.54,589.995a2.627,2.627,0,0,0,.5-.252,2.392,2.392,0,0,1,.8-.263,2.422,2.422,0,0,0-.942.278,2.636,2.636,0,0,1-.5.252c-.024.008-.049.011-.073.016A.834.834,0,0,0,963.54,589.995Z" transform="translate(-962.067 -589.48)"/><path class="g" d="M953.833,601.18c-.112-.019-.3-.161-.394-.152a2.939,2.939,0,0,0,1.207-.4.77.77,0,0,1-.271.091,2.94,2.94,0,0,1-1.075.324c.089-.009.282.133.394.152a.924.924,0,0,0,.29-.011A.6.6,0,0,1,953.833,601.18Z" transform="translate(-953.3 -599.226)"/><path class="g" d="M962.613,607.551a2.188,2.188,0,0,1-.992-.149,2.341,2.341,0,0,1-1.157-1.392,3.511,3.511,0,0,0-.351-.831.8.8,0,0,0-.728-.363,1.384,1.384,0,0,0-.205.019h.068a.8.8,0,0,1,.728.363,3.473,3.473,0,0,1,.351.831,2.326,2.326,0,0,0,1.157,1.392,2.187,2.187,0,0,0,.992.148,1.753,1.753,0,0,0,.24-.024Z" transform="translate(-958.44 -602.884)"/><path class="g" d="M954.742,598.68a.881.881,0,0,1-.755-.365,1.282,1.282,0,0,1-.166-.025.881.881,0,0,0,.922.39Z" transform="translate(-953.755 -597.181)"/></g><path class="d" d="M918.2,579.253s-.454-.3-.115-.966a.666.666,0,0,1,.475-.378.675.675,0,0,0-.612.39c-.341.67.115.966.115.966a3.77,3.77,0,0,0,.822,0A4.114,4.114,0,0,1,918.2,579.253Z" transform="translate(-823.336 -519.753)"/><path class="b" d="M570.49,768.38H572.4a.63.63,0,0,0,.181.492c.258.3.776.657.532.781H570.49Z" transform="translate(-519.731 -686.244)"/><path class="d" d="M584.728,768.872a.63.63,0,0,1-.181-.492h.138a.63.63,0,0,0,.181.492c.258.3.776.657.533.781h-.138C585.508,769.529,584.99,769.171,584.728,768.872Z" transform="translate(-532.017 -686.244)"/><path class="b" d="M513.906,765.24l1.8.293a.912.912,0,0,0,.082.63c.2.407.629.929.371,1.041l-2.595-.419Z" transform="translate(-469.968 -683.499)"/><path class="d" d="M518.014,766.183a.913.913,0,0,1-.082-.629l-1.662-.272v-.021l1.8.293a.913.913,0,0,0,.082.629c.2.407.629.929.371,1.041l-.108-.018C518.61,767.065,518.2,766.571,518.014,766.183Z" transform="translate(-472.337 -683.517)"/><rect class="e" width="1.945" height="2.883" rx="0.973" transform="translate(48.906 66.943) rotate(180)"/><circle class="e" cx="2.154" cy="2.154" r="2.154" transform="translate(45.745 60.759)"/><path class="d" d="M547.686,603.847v-.938a.968.968,0,0,0-.023-.2,2.154,2.154,0,0,0-.864-4.065h.126a2.154,2.154,0,0,1,.986,4.069.964.964,0,0,1,.023.2v.934a.966.966,0,0,1-1.094.964A.976.976,0,0,0,547.686,603.847Z" transform="translate(-499.024 -537.874)"/><path class="b" d="M530.39,645.04s4.155.47,4.308,0a9.19,9.19,0,0,0,0-5.906,2.154,2.154,0,0,0-2.154-2.154h0a2.154,2.154,0,0,0-2.154,2.143Z" transform="translate(-484.679 -571.387)"/><path class="s" d="M517.366,701l-1.876,8.615h1.876l1.945-6.392a5.853,5.853,0,0,1,3.057,3.126,4.574,4.574,0,0,1,0,3.266h2.014l.02-.093A8.957,8.957,0,0,0,521.673,701h0" transform="translate(-471.655 -627.347)"/><path class="d" d="M548.688,645.075a9.19,9.19,0,0,0,0-5.906,2.154,2.154,0,0,0-2.014-2.149h.138a2.154,2.154,0,0,1,2.154,2.138,9.188,9.188,0,0,1,0,5.906c-.055.167-.623.215-1.329.208C548.209,645.269,548.64,645.215,548.688,645.075Z" transform="translate(-498.913 -571.422)"/><g class="n" transform="translate(45.431 73.682)"><path class="g" d="M530.358,719.007l-1.91,6.275h-.278l1.945-6.392S530.208,718.929,530.358,719.007Z" transform="translate(-528.17 -716.667)"/><path class="g" d="M562.39,701.23h.278a8.957,8.957,0,0,1,2.729,8.522l-.02.093H565.1l.02-.093A8.957,8.957,0,0,0,562.39,701.23Z" transform="translate(-558.082 -701.23)"/></g><path class="b" d="M541.637,599.872s6.287-2.549,6.849-7.482l-1.219-.279s-4.357,5.63-6.359,5.811S541.637,599.872,541.637,599.872Z" transform="translate(-493.232 -532.166)"/><path class="d" d="M557.432,594.5l.2.047c-.561,4.933-6.849,7.482-6.849,7.482l-.126-.082C551.4,601.628,556.908,599.1,557.432,594.5Z" transform="translate(-502.397 -534.255)"/><path class="e" d="M596.924,585.195s.483-.245.218-.948-1.12-.4-1.12-.4-.473.818-.252,1.084S596.924,585.195,596.924,585.195Z" transform="translate(-541.776 -524.886)"/><path class="d" d="M599.532,585.261s.483-.245.218-.948a.666.666,0,0,0-.432-.423.675.675,0,0,1,.567.454c.267.7-.218.948-.218.948a3.764,3.764,0,0,1-.817-.093A4.119,4.119,0,0,0,599.532,585.261Z" transform="translate(-544.521 -524.981)"/><path class="s" d="M527.025,597.833l-.126,2.9H523.86V599.2c0-3.087,3.263-4.259,5.1-1.778A19.072,19.072,0,0,1,527.025,597.833Z" transform="translate(-478.971 -535.636)"/><path class="d" d="M543.64,596.1a3.071,3.071,0,0,1,2.2,1.333,18.949,18.949,0,0,1-1.93.414l-.138,2.9h.42l.138-2.9a18.621,18.621,0,0,0,1.93-.414A2.975,2.975,0,0,0,543.64,596.1Z" transform="translate(-496.261 -535.646)"/></g></svg>