<svg xmlns="http://www.w3.org/2000/svg" width="112.215" height="82.499" viewBox="0 0 112.215 82.499"><defs><style>.a{fill:#f1f1f1;}.b{fill:#ffb7b7;}.c{fill:#2f2e41;}.d{fill:#cbcbcb;}.e{fill:#fff;}.f{fill:#e5e5e5;}.g{fill:#6c63ff;}</style></defs><g transform="translate(0 0)"><path class="a" d="M971.738,705.556v-9.368S975.389,702.83,971.738,705.556Z" transform="translate(-867.49 -623.057)"/><path class="a" d="M927.091,725.929l-6.9-6.335S927.552,721.4,927.091,725.929Z" transform="translate(-822.618 -643.432)"/><path class="b" d="M743.234,552.8a1.178,1.178,0,0,1,1.276-1.278l1.244-2.387,1.635.4-1.8,3.346a1.184,1.184,0,0,1-2.35-.083Z" transform="translate(-668.574 -495.051)"/><path class="b" d="M620.186,589.758h-1.38l-.656-5.321h2.036Z" transform="translate(-538.099 -508.752)"/><path class="c" d="M773.425,755.308h-4.448v-.056a1.731,1.731,0,0,1,1.731-1.731h2.717Z" transform="translate(-690.987 -672.965)"/><path class="b" d="M696.934,583.061l-1.331.363-2.033-4.961,1.964-.536Z" transform="translate(-603.753 -503.085)"/><path class="c" d="M862.265,746.695l-4.292,1.17-.015-.054a1.731,1.731,0,0,1,1.215-2.126h0l2.621-.715Z" transform="translate(-768.392 -665.522)"/><path class="c" d="M609.8,446.491l-.688,10.45,1.478,11.724,2.421-.739.1-10.475,1.937-6.041,5.735,16.134,2.625-.969L621.241,456.1l-1.223-9.838Z" transform="translate(-530.229 -388.471)"/><path class="d" d="M786.441,437.806l-4.078.6-1.469,1.453-.456,5.22.283,4.623-1.181,8.153s2.969-1.648,5.271.415,5.521.365,5.588-1.008Z" transform="translate(-700.183 -398.136)"/><path class="c" d="M816.834,443.844v-.006l2.026-6.6.026,0c.144-.009,3.54-.21,4.3,1.467l0,.008-.231,6.861.318,10.746-6.281,1.36-.046.01Z" transform="translate(-732.646 -397.627)"/><path class="c" d="M780.771,447.209l.372-5.6c-2.643.164-2.6,2.038-2.6,2.12l-.029,8.372-.529,8.957,1.924-.144Z" transform="translate(-698.828 -401.449)"/><path class="c" d="M753.485,506.66l2.346-5.445,1.638-3.007.855,5.425-2.968,4.453Z" transform="translate(-677.501 -450.716)"/><path class="b" d="M828.172,529.462a1.178,1.178,0,0,1,1.6-.845l1.893-1.914,1.443.867-2.711,2.665a1.184,1.184,0,0,1-2.221-.773Z" transform="translate(-742.492 -475.52)"/><path class="c" d="M840.651,458.641l3.859-4.234-2.555-3.645.263-1.782,1.506-1.86.029.038c.161.208,3.932,5.107,4.04,6.962s-5.312,6.571-5.543,6.771l-.032.028Z" transform="translate(-753.379 -406.244)"/><circle class="b" cx="2.743" cy="2.743" r="2.743" transform="translate(81.162 33.726)"/><path class="c" d="M797.3,385.91l.133-.268-.669-.332a1.961,1.961,0,0,0-2.074-.864c-1.336.338-1.937.539-1.937.539l-.667.336.335.333-.6.2.4.2-.467.268L792,387.7s.418-1.044,1.221-.645a3.558,3.558,0,0,0,2.272-.206l1.276,2.469s.263-.866.733-.635C797.5,388.684,798.7,386.775,797.3,385.91Z" transform="translate(-710.813 -351.634)"/><path class="e" d="M222.186,181.277l-41.712,11.5-13.736-49.806,41.712-11.5Z" transform="translate(-166.738 -131.472)"/><path class="a" d="M222.186,181.277l-41.712,11.5-13.736-49.806,41.712-11.5Zm-41.179,10.565,40.241-11.1-13.33-48.334-40.241,11.1Z" transform="translate(-166.738 -131.472)"/><path class="f" d="M324.166,225.863l-10.456,2.884a.578.578,0,0,1-.71-.4l-2.884-10.456a.578.578,0,0,1,.4-.71l10.456-2.884a.578.578,0,0,1,.71.4l2.884,10.456A.578.578,0,0,1,324.166,225.863ZM310.581,217.4a.347.347,0,0,0-.242.426l2.884,10.456a.347.347,0,0,0,.426.242l10.456-2.884a.347.347,0,0,0,.242-.426l-2.884-10.456a.347.347,0,0,0-.426-.242Z" transform="translate(-291.531 -203.551)"/><path class="g" d="M304.19,242.9l-10.456,2.884a.52.52,0,0,1-.639-.363l-2.884-10.456a.52.52,0,0,1,.362-.639l10.456-2.884a.52.52,0,0,1,.639.363l2.884,10.456a.52.52,0,0,1-.362.639Z" transform="translate(-274.205 -218.48)"/><rect class="a" width="30.268" height="1.17" transform="translate(12.918 33.894) rotate(-15.418)"/><rect class="a" width="30.268" height="1.17" transform="translate(13.729 36.834) rotate(-15.418)"/><rect class="a" width="30.268" height="1.17" transform="translate(14.54 39.774) rotate(-15.418)"/><rect class="a" width="30.268" height="1.17" transform="translate(15.967 44.948) rotate(-15.418)"/><rect class="a" width="30.268" height="1.17" transform="translate(16.778 47.888) rotate(-15.418)"/><rect class="a" width="30.268" height="1.17" transform="translate(17.588 50.828) rotate(-15.418)"/><path class="e" d="M407.157,256.326h-43.27V204.661h43.27Z" transform="translate(-338.356 -195.183)"/><path class="f" d="M407.157,256.326h-43.27V204.661h43.27Zm-42.506-.763h41.743V205.424H364.65Z" transform="translate(-338.356 -195.183)"/><rect class="g" width="24.739" height="1.17" transform="translate(36.183 31.688)"/><rect class="g" width="24.739" height="1.17" transform="translate(36.183 34.729)"/><rect class="g" width="24.739" height="1.17" transform="translate(36.183 37.77)"/><circle class="g" cx="0.763" cy="0.763" r="0.763" transform="translate(33.409 31.681)"/><rect class="f" width="24.739" height="1.17" transform="translate(36.183 18.584)"/><rect class="f" width="24.739" height="1.17" transform="translate(36.183 21.625)"/><rect class="f" width="24.739" height="1.17" transform="translate(36.183 24.666)"/><circle class="f" cx="0.763" cy="0.763" r="0.763" transform="translate(33.409 18.449)"/><rect class="f" width="24.739" height="1.17" transform="translate(36.183 44.919)"/><rect class="f" width="24.739" height="1.17" transform="translate(36.183 47.96)"/><rect class="f" width="24.739" height="1.17" transform="translate(36.183 51.001)"/><circle class="f" cx="0.763" cy="0.763" r="0.763" transform="translate(33.409 44.785)"/><circle class="g" cx="8.844" cy="8.844" r="8.844" transform="translate(57.936 47.904)"/><path class="e" d="M660.215,537.474v-1.692a2.45,2.45,0,0,0-4.9,0v1.692a1.274,1.274,0,0,0-1.217,1.272v4h7.334v-4A1.274,1.274,0,0,0,660.215,537.474Zm-2.45-3.28a1.589,1.589,0,0,1,1.587,1.588v1.689h-3.175v-1.689A1.589,1.589,0,0,1,657.765,534.195Z" transform="translate(-590.985 -481.291)"/><path class="g" d="M678.643,576.136a.659.659,0,1,0-1.03.545v1.433h.742v-1.433A.658.658,0,0,0,678.643,576.136Z" transform="translate(-611.203 -517.978)"/><path class="d" d="M699.729,766.381h-49.34a.13.13,0,0,1,0-.259h49.34a.13.13,0,1,1,0,.259Z" transform="translate(-587.644 -683.935)"/></g></svg>